<?xml version="1.0" encoding="UTF-8"?>
<!DOCTYPE svg PUBLIC "-//W3C//DTD SVG 1.1//EN" "http://www.w3.org/Graphics/SVG/1.1/DTD/svg11.dtd">
<!-- Creator: CorelDRAW -->
<svg xmlns="http://www.w3.org/2000/svg" xml:space="preserve" width="25px" height="25px" style="shape-rendering:geometricPrecision; text-rendering:geometricPrecision; image-rendering:optimizeQuality; fill-rule:evenodd; clip-rule:evenodd"
viewBox="0 0 2048 2048"
 xmlns:xlink="http://www.w3.org/1999/xlink">
 <defs>
  <style type="text/css">
   <![CDATA[
    .fil1 {fill:none}
    .fil0 {fill:#212121;fill-rule:nonzero}
   ]]>
  </style>
 </defs>
 <g id="Layer_x0020_1">
  <metadata id="CorelCorpID_0Corel-Layer"/>
  <path class="fil0" d="M1011.38 512.372c33.8292,0 64.4599,13.7162 86.6304,35.8878 22.1717,22.1705 35.8878,52.8012 35.8878,86.6304 0,33.828 -13.7162,64.4599 -35.8878,86.6316 -22.1705,22.1717 -52.8012,35.8878 -86.6304,35.8878 -33.828,0 -64.4599,-13.7162 -86.6316,-35.8878 -22.1717,-22.1717 -35.8878,-52.8036 -35.8878,-86.6316 0,-33.828 13.7162,-64.4587 35.8878,-86.6304 22.1717,-22.1717 52.8036,-35.8878 86.6316,-35.8878zm41.38 81.1383c-10.5862,-10.5874 -25.2177,-17.1366 -41.38,-17.1366 -16.1622,0 -30.7949,6.5504 -41.3811,17.1366 -10.5862,10.5862 -17.1366,25.2177 -17.1366,41.38 0,16.1622 6.5504,30.7949 17.1366,41.3811 10.5862,10.5862 25.2189,17.1366 41.3811,17.1366 16.1622,0 30.7937,-6.54922 41.38,-17.1366 10.5862,-10.5862 17.1366,-25.2189 17.1366,-41.3811 0,-16.1622 -6.54922,-30.7937 -17.1366,-41.38z"/>
  <path class="fil0" d="M1149.57 1163.23c0,-17.6728 -14.328,-32.0008 -32.0008,-32.0008 -17.6728,0 -32.0008,14.328 -32.0008,32.0008l0 340.393c0,17.6728 14.328,32.0008 32.0008,32.0008 17.6728,0 32.0008,-14.328 32.0008,-32.0008l0 -340.393z"/>
  <path class="fil0" d="M962.431 1163.23c0,-17.6728 -14.328,-32.0008 -32.0008,-32.0008 -17.6728,0 -32.0008,14.328 -32.0008,32.0008l0 340.393c0,17.6728 14.328,32.0008 32.0008,32.0008 17.6728,0 32.0008,-14.328 32.0008,-32.0008l0 -340.393z"/>
  <path class="fil0" d="M992.918 801.703l62.165 0c26.0173,0 49.6489,10.6217 66.7571,27.7323 17.1095,17.1095 27.7311,40.741 27.7311,66.7583l0 336.339c0,17.6728 -14.328,32.0008 -32.0008,32.0008l-187.14 0c-17.6728,0 -32.0008,-14.328 -32.0008,-32.0008l0 -336.339c0,-26.0173 10.6217,-49.6489 27.7311,-66.7583 17.1083,-17.1106 40.7398,-27.7323 66.7571,-27.7323zm62.165 64.0016l-62.165 0c-8.34922,0 -15.9662,3.44055 -21.5067,8.98111 -5.53937,5.53937 -8.97993,13.1563 -8.97993,21.5079l0 304.338 123.138 0 0 -304.338c0,-8.35158 -3.44055,-15.9685 -8.97993,-21.5079 -5.54056,-5.54056 -13.1575,-8.98111 -21.5067,-8.98111z"/>
  <path class="fil0" d="M750.537 606.787c-12.15,-12.7713 -32.354,-13.2744 -45.1252,-1.12441 -12.7713,12.15 -13.2744,32.354 -1.12441,45.1252l201.38 212.029c12.15,12.7713 32.354,13.2744 45.1252,1.12441 12.7713,-12.15 13.2744,-32.354 1.12441,-45.1252l-201.38 -212.029z"/>
  <path class="fil0" d="M1343.71 650.788c12.15,-12.7713 11.6469,-32.9752 -1.12441,-45.1252 -12.7713,-12.15 -32.9752,-11.6469 -45.1252,1.12441l-201.38 212.029c-12.15,12.7713 -11.6469,32.9752 1.12441,45.1252 12.7713,12.15 32.9752,11.6469 45.1252,-1.12441l201.38 -212.029z"/>
  <path class="fil0" d="M515.598 702.803c28.8673,0 55.0052,11.7036 73.9241,30.6248 18.9213,18.9189 30.6248,45.0567 30.6248,73.9241 0,28.8673 -11.7036,55.0052 -30.6248,73.9241 -18.9189,18.9213 -45.0567,30.6248 -73.9241,30.6248 -28.8662,0 -55.004,-11.7036 -73.9253,-30.6248 -18.9189,-18.9189 -30.6236,-45.0579 -30.6236,-73.9241 0,-28.8662 11.7047,-55.004 30.6236,-73.9253 18.9213,-18.9189 45.0591,-30.6236 73.9253,-30.6236zm28.6736 75.8753c-7.33465,-7.33465 -17.4744,-11.8736 -28.6736,-11.8736 -11.2004,0 -21.3402,4.5378 -28.6748,11.8725 -7.33465,7.33465 -11.8725,17.4744 -11.8725,28.6748 0,11.2004 4.5378,21.339 11.8725,28.6736 7.33583,7.33583 17.4744,11.8736 28.6748,11.8736 11.1992,0 21.339,-4.53898 28.6736,-11.8736 7.33465,-7.33465 11.8736,-17.4744 11.8736,-28.6736 0,-11.1992 -4.5378,-21.339 -11.8736,-28.6736z"/>
  <path class="fil0" d="M632.702 1230.81c0,-17.6728 -14.328,-32.0008 -32.0008,-32.0008 -17.6728,0 -32.0008,14.328 -32.0008,32.0008l0 272.818c0,17.6728 14.328,32.0008 32.0008,32.0008 17.6728,0 32.0008,-14.328 32.0008,-32.0008l0 -272.818z"/>
  <path class="fil0" d="M482.716 1230.81c0,-17.6728 -14.328,-32.0008 -32.0008,-32.0008 -17.6728,0 -32.0008,14.328 -32.0008,32.0008l0 272.818c0,17.6728 14.328,32.0008 32.0008,32.0008 17.6728,0 32.0008,-14.328 32.0008,-32.0008l0 -272.818z"/>
  <path class="fil0" d="M500.797 934.696l49.8248 0c22.6051,0 43.1339,9.2256 57.9957,24.0874 14.8618,14.8606 24.0874,35.3894 24.0874,57.9957l0 269.573c0,17.6728 -14.328,32.0008 -32.0008,32.0008l-149.989 0c-17.6728,0 -32.0008,-14.328 -32.0008,-32.0008l0 -269.573c0,-22.6063 9.2256,-43.1351 24.0874,-57.9957 14.8618,-14.8618 35.3906,-24.0874 57.9957,-24.0874zm49.8248 64.0016l-49.8248 0c-4.93937,0 -9.45355,2.04449 -12.7453,5.33622 -3.29173,3.29173 -5.33622,7.80709 -5.33622,12.7453l0 237.572 85.9879 0 0 -237.572c0,-4.93819 -2.04449,-9.45355 -5.33622,-12.7453 -3.29173,-3.29173 -7.80591,-5.33622 -12.7453,-5.33622z"/>
  <path class="fil0" d="M311.124 780.46c-12.15,-12.7713 -32.354,-13.2744 -45.1252,-1.12441 -12.7713,12.15 -13.2744,32.354 -1.12441,45.1252l161.404 169.937c12.15,12.7713 32.354,13.2744 45.1252,1.12441 12.7713,-12.15 13.2744,-32.354 1.12441,-45.1252l-161.404 -169.937z"/>
  <path class="fil0" d="M786.544 824.461c12.15,-12.7713 11.6469,-32.9752 -1.12441,-45.1252 -12.7713,-12.15 -32.9752,-11.6469 -45.1252,1.12441l-161.402 169.937c-12.15,12.7713 -11.6469,32.9752 1.12441,45.1252 12.7713,12.15 32.9752,11.6469 45.1252,-1.12441l161.402 -169.937z"/>
  <path class="fil0" d="M1512.18 702.803c28.8673,0 55.0052,11.7036 73.9241,30.6248 18.9213,18.9189 30.6248,45.0567 30.6248,73.9241 0,28.8673 -11.7036,55.0052 -30.6248,73.9241 -18.9189,18.9213 -45.0567,30.6248 -73.9241,30.6248 -28.8673,0 -55.0052,-11.7036 -73.9241,-30.6248 -18.9213,-18.9189 -30.6248,-45.0567 -30.6248,-73.9241 0,-28.8662 11.7036,-55.004 30.6248,-73.9253 18.9189,-18.9189 45.0579,-30.6236 73.9241,-30.6236zm28.6736 75.8753c-7.33465,-7.33583 -17.4744,-11.8736 -28.6736,-11.8736 -11.2004,0 -21.339,4.5378 -28.6736,11.8725 -7.33583,7.33583 -11.8736,17.4744 -11.8736,28.6748 0,11.1992 4.53898,21.339 11.8736,28.6736 7.33465,7.33465 17.4744,11.8736 28.6736,11.8736 11.1992,0 21.339,-4.5378 28.6736,-11.8736 7.33465,-7.33465 11.8736,-17.4744 11.8736,-28.6736 0,-11.1992 -4.5378,-21.339 -11.8736,-28.6736z"/>
  <path class="fil0" d="M1629.28 1230.81c0,-17.6728 -14.328,-32.0008 -32.0008,-32.0008 -17.6728,0 -32.0008,14.328 -32.0008,32.0008l0 272.818c0,17.6728 14.328,32.0008 32.0008,32.0008 17.6728,0 32.0008,-14.328 32.0008,-32.0008l0 -272.818z"/>
  <path class="fil0" d="M1479.3 1230.81c0,-17.6728 -14.328,-32.0008 -32.0008,-32.0008 -17.6728,0 -32.0008,14.328 -32.0008,32.0008l0 272.818c0,17.6728 14.328,32.0008 32.0008,32.0008 17.6728,0 32.0008,-14.328 32.0008,-32.0008l0 -272.818z"/>
  <path class="fil0" d="M1497.38 934.696l49.8237 0c22.6063,0 43.1351,9.2256 57.9957,24.0874 14.8618,14.8606 24.0874,35.3894 24.0874,57.9957l0 269.573c0,17.6728 -14.328,32.0008 -32.0008,32.0008l-149.989 0c-17.6728,0 -32.0008,-14.328 -32.0008,-32.0008l0 -269.573c0,-22.6063 9.2256,-43.1351 24.0874,-57.9957 14.8618,-14.8618 35.3918,-24.0874 57.9969,-24.0874zm49.8237 64.0016l-49.8237 0c-4.93937,0 -9.45473,2.04449 -12.7465,5.33622 -3.29173,3.29173 -5.33622,7.80709 -5.33622,12.7453l0 237.572 85.9879 0 0 -237.572c0,-4.93819 -2.04449,-9.45355 -5.33622,-12.7453 -3.29173,-3.29173 -7.80709,-5.33622 -12.7453,-5.33622z"/>
  <path class="fil0" d="M1307.71 780.46c-12.15,-12.7713 -32.354,-13.2744 -45.1252,-1.12441 -12.7713,12.15 -13.2744,32.354 -1.12441,45.1252l161.402 169.937c12.15,12.7713 32.354,13.2744 45.1252,1.12441 12.7713,-12.15 13.2744,-32.354 1.12441,-45.1252l-161.402 -169.937z"/>
  <path class="fil0" d="M1783.13 824.461c12.15,-12.7713 11.6469,-32.9752 -1.12441,-45.1252 -12.7713,-12.15 -32.9752,-11.6469 -45.1252,1.12441l-161.404 169.937c-12.15,12.7713 -11.6469,32.9752 1.12441,45.1252 12.7713,12.15 32.9752,11.6469 45.1252,-1.12441l161.404 -169.937z"/>
 </g>
 <rect class="fil1" width="2048" height="2048"/>
</svg>
