<svg xmlns="http://www.w3.org/2000/svg" viewBox="0 0 512 512"><title>Artboard 133</title><g id="History"><path d="M106.66667,460.49681v0a30.16989,30.16989,0,0,1,8.83654-21.33331L262.24872,292.418a51.50271,51.50271,0,0,1,36.41738-15.0848h0a51.50268,51.50268,0,0,1,36.41847,15.0848l146.74551,146.7455a30.16985,30.16985,0,0,1,8.83655,21.33331v0a30.16986,30.16986,0,0,1-30.16986,30.16986H136.83653A30.16986,30.16986,0,0,1,106.66667,460.49681Z" style="fill:#ffbe00"/><path d="M384,456.14844a34.5104,34.5104,0,0,0-3.64453-15.4375l-70.6862-141.3724a39.73516,39.73516,0,0,0-23.918-20.14974A51.33812,51.33812,0,0,0,262.2487,292.418L115.5026,439.16276a30.17082,30.17082,0,0,0,21.33334,51.50391H349.48177A34.51835,34.51835,0,0,0,384,456.14844Z" style="fill:#ffea21"/><rect x="256" y="298.66667" width="42.66667" height="21.33333" rx="10.66666" ry="10.66666" style="fill:#fffc74"/><rect x="277.33333" y="341.33333" width="42.66667" height="21.33333" rx="10.66666" ry="10.66666" style="fill:#fffc74"/><rect x="213.33333" y="341.33333" width="42.66667" height="21.33333" rx="10.66666" ry="10.66666" style="fill:#fffc74"/><rect x="234.66667" y="384" width="42.66667" height="21.33333" rx="10.66666" ry="10.66666" style="fill:#fffc74"/><rect x="277.33333" y="426.66667" width="42.66667" height="21.33333" rx="10.66666" ry="10.66666" style="fill:#fffc74"/><rect x="341.33333" y="426.66667" width="42.66667" height="21.33333" rx="10.66666" ry="10.66666" style="fill:#fffc74"/><rect x="362.66667" y="362.66667" width="42.66667" height="21.33333" rx="10.66666" ry="10.66666" style="fill:gold"/><rect x="384" y="405.33333" width="42.66667" height="21.33333" rx="10.66666" ry="10.66666" style="fill:gold"/><rect x="320" y="320" width="42.66667" height="21.33333" rx="10.66666" ry="10.66666" style="fill:gold"/><rect x="213.33333" y="426.66667" width=25px height=25px rx="10.66666" ry="10.66666" style="fill:#fffc74"/><rect x="298.66667" y="384" width="42.66667" height="21.33333" rx="10.66666" ry="10.66666" style="fill:#fffc74"/><rect x="128" y="448" width="234.66667" height="42.66667" rx="21.33331" ry="21.33331" style="fill:gold"/><path d="M458.66667,256a31.89959,31.89959,0,0,0-30.15625,21.70573c-.63933-.05729-1.19011-.3724-1.84375-.3724a21.33334,21.33334,0,1,0,0,42.66667h32a32,32,0,1,0,0-64Z" style="fill:#bce4ff"/><path d="M42.66667,341.33333,63.242,320.758A221.09765,221.09765,0,0,1,219.58165,256h.00009a36.4182,36.4182,0,0,0,25.75158-10.66666l0,0A36.4182,36.4182,0,0,0,256,219.58174v-.00009A221.09765,221.09765,0,0,1,320.758,63.242l20.57533-20.57533,128,128L448.758,191.242A221.09765,221.09765,0,0,1,292.41835,256h-.00009a36.4182,36.4182,0,0,0-25.75158,10.66666l0,0A36.4182,36.4182,0,0,0,256,292.41826v.00009A221.09765,221.09765,0,0,1,191.242,448.758l-20.57533,20.57533Z" style="fill:#ccd4ff"/><path d="M334.563,121.22962a21.57923,21.57923,0,0,0-34.23033,5.195q-2.09372,3.85963-3.97455,7.82537l-.0013.00391c-.026.056-.05338.11067-.07943.16666l-.0026.00782c-.08073.16927-.16146.34244-.24089.51171l-.00651.013c-.02474.05469-.04817.10417-.07422.15756l-.0052.01432c-.07943.16927-.15756.33724-.237.50781l-.00782.01823c-.02343.05078-.04817.10156-.07161.15235l-.00781.01692c-.05209.11459-.10417.22657-.15625.34115l-.00391.00651c-.02344.05078-.04687.10417-.07031.155l-.01432.03125c-.02214.04687-.043.09375-.06511.14062l-.01041.02474c-.05209.112-.10157.22-.15235.332l-.013.02735c-.01953.04427-.04036.09114-.0612.13541l-.01823.04037c-.01953.04427-.03906.08724-.05989.13151l-.01432.03255c-.04818.10677-.09766.21615-.14584.32422l-.02083.04557c-.01693.03906-.03646.07943-.05339.11719l-.02213.04948c-.01823.043-.03776.08463-.056.1263l-.01563.03516c-.02474.05208-.04948.10807-.07291.16145l-.01433.03126c-.01823.043-.03776.08593-.056.1276l-.026.056c-.01562.03515-.03125.07031-.04557.10547-.00912.01953-.01823.03906-.02734.05989-.01563.03646-.03256.07422-.04948.11068l-.02214.04948c-.02213.05078-.04557.10286-.06771.15495l-.02213.04948c-.01693.03645-.03255.07291-.04818.10937-.01042.02344-.01823.03906-.02865.0625-.01432.03255-.02864.06771-.043.10026-.00912.02084-.01954.043-.02865.0625l-.04948.11328c-.00651.01693-.013.02865-.01953.04688-.02344.05078-.04557.10156-.06771.15234-.00911.02084-.01693.03906-.026.0586-.01432.03385-.02865.069-.04427.10156-.00912.02344-.01953.04557-.02865.06771-.013.02994-.02734.0625-.04036.09114l-.03125.07162c-.01432.03515-.02865.06771-.04427.10156-.013.03255-.02735.0638-.04037.095-.01692.03646-.03125.07162-.04687.10807-.01172.026-.02344.05469-.03516.08073-.01172.02735-.02213.04948-.03385.07683-.01172.02864-.02214.05338-.03516.082l-.03385.07812c-.01042.026-.02344.05469-.03386.08073-.013.02735-.02474.05469-.03646.082-.02083.04948-.04166.099-.0638.14844-.01041.02474-.01823.04427-.02864.06771-.013.03125-.026.0599-.03907.09245-.00911.02213-.01823.04166-.02734.0638-.01432.03255-.026.0612-.04036.09245-.00782.02083-.01693.04166-.026.0625-.01432.03125-.02734.0638-.04166.09635l-.01172.02734c-.02865.069-.0599.14193-.08985.21224-.00651.01563-.01432.03516-.02213.05209-.01432.03385-.02734.0651-.04167.10026-.00781.01562-.01562.03646-.02344.05338-.01432.03516-.02864.06771-.043.10287l-.01823.043c-.05078.11979-.10287.24218-.15235.362-.0052.013-.00911.02213-.01562.03515l-.04557.11068c-.00651.013-.013.02865-.01823.04167-.01693.04166-.03.07421-.04688.11458l-.00781.01823-.16406.39453-.00782.01693-.05208.1276-.00781.01823c-.07552.181-.14974.362-.224.543l-.00521.01172c-.01953.04687-.03515.08594-.05469.13281l-.0039.00911c-.07552.1849-.151.3698-.22526.55469l-.0013.00261q-3.59961,8.86327-6.33073,18.05468a21.33347,21.33347,0,0,0,40.91666,12.09506,147.77276,147.77276,0,0,1,11.77659-28.17867,21.216,21.216,0,0,0-3.72142-25.09559Z" style="fill:#eff2ff"/><path d="M228.96842,318.38574a21.34284,21.34284,0,0,0-20.70931,16.28581,177.62249,177.62249,0,0,1-28.65852,62.15169A21.33324,21.33324,0,0,0,214.165,421.83773a221.179,221.179,0,0,0,35.556-77.09929,21.35158,21.35158,0,0,0-20.75261-26.3527ZM399.11491,182.438a21.23668,21.23668,0,0,0-11.376,3.30176,179.13254,179.13254,0,0,1-80.85937,27.00716,21.33391,21.33391,0,0,0,1.70475,42.59765q.854,0,1.72135-.06884c.18783-.01514.374-.03044.56153-.04623l.0166-.0013.15625-.01318.01888-.00163c.27962-.0236.55664-.04753.83594-.07227l.00358-.00032a220.92935,220.92935,0,0,0,24.84993-3.62956l.00163-.00033c.60807-.12451,1.21257-.25081,1.819-.38037l.00521-.001c.27246-.05811.54655-.11719.81836-.17644l.01139-.00244c.26856-.05843.54395-.11881.81218-.17822l.014-.00309c.05176-.01139.10677-.0236.15821-.03516l.00325-.00065c.22038-.049.4362-.09733.65625-.147l.00293-.00065.15983-.03614.00977-.00211c.21647-.04915.43717-.09929.65332-.14893l.00032-.00016c.05176-.01172.10677-.02441.15821-.0363l.014-.00325c.26433-.06087.53614-.124.80013-.18587l.0293-.00684.14583-.03434.01661-.00391c.21256-.05.41992-.09912.63248-.14974l.02311-.00553.14389-.03418.03027-.00732c.2054-.04916.41374-.09929.61914-.14909l.02864-.007.13965-.03386.03353-.00813.14258-.03484.01563-.00374c.154-.0376.30729-.07519.46093-.11312l.02572-.00634.13379-.03305.04525-.01106.13313-.033.03321-.0083c.154-.03809.30468-.07569.45833-.11426l.012-.00293.141-.03548.03451-.00863.13639-.03434.03874-.00977c.20117-.05078.40137-.10156.60254-.15283l.041-.01058.13249-.03385.04069-.01042.13639-.035.01889-.00489c.15332-.03938.2985-.077.45182-.1167l.03288-.00846.13053-.034.0485-.01269.12858-.03337.03874-.01025c.1429-.03727.29-.07585.43294-.11361l.03581-.00944.12891-.03385.04817-.01286.12631-.03337.04785-.01269c.14616-.03874.29459-.07829.44043-.11735l.01985-.00537.124-.03321.05826-.01562.11654-.03141.06055-.01628.12012-.03239.04264-.01155c.13932-.0376.27571-.07471.415-.11264l.05469-.01481.11816-.03222.05924-.01628.12045-.03288.05013-.01383q.20361-.05591.4069-.11214l.056-.01547.11686-.03238.05957-.01644.11751-.03272.05925-.0166.12044-.03353.01693-.00472.2666-.07454.05045-.01433.11524-.03222.06413-.01807.11425-.03223.06348-.0179.11458-.03255.05241-.01481c.08106-.02295.15625-.04427.23731-.06738l.04785-.01368.10905-.03108.07031-.02019.1084-.03092.07161-.02051.10808-.03109.06868-.01969c.125-.036.25163-.07243.37663-.10872l.07422-.02149.10482-.03043.07519-.02181.10222-.02979.08138-.02376.09993-.02914.082-.02409.17741-.05192.08333-.02457.09831-.029.08268-.02442.09864-.029.083-.02458.09668-.02864.08692-.02588.17285-.05127.08463-.02523.09668-.02881.08431-.02539.09668-.029.08366-.02506.09831-.02946.08594-.02572.13151-.03971.12565-.03793.097-.02946.082-.02474.10026-.03043.08073-.02458.09668-.02946.08984-.02734.09049-.02767.16634-.051.082-.02522.0983-.03011.08952-.02767.09245-.02832.08887-.02751.0957-.02962.08561-.02653.11654-.03614.12077-.03743.11165-.03483.08529-.02653.09537-.02979.08757-.0275.097-.03028.084-.02636.11491-.03614.06445-.02034c.05794-.01807.11491-.03613.17285-.05436l.07129-.02263.11035-.03483.07976-.02539.10188-.03222.08106-.02588.10644-.03386.07585-.02409.1696-.0542.07259-.02327.109-.035.07942-.02539.10385-.03353.07942-.02539.10742-.03483.0739-.02377c.05566-.01806.11393-.03678.16927-.05485l.055-.01774.12956-.04215.07357-.02393c.03711-.012.07226-.02344.10905-.03564l.07552-.02442.10905-.0358.07454-.02426.13509-.04427.04785-.01578.16992-.05583.07227-.02393.1097-.03613.07682-.02539.1058-.035.07682-.0254.123-.04085.05566-.01855c.05762-.019.11849-.03939.17611-.0586l.05762-.0192.12434-.04167.069-.02311.113-.03776.07259-.02425.12142-.04086.05827-.01969.17676-.05957.04492-.01514.13835-.04687.06087-.02051.123-.04183.06413-.02181.12468-.04248.05859-.01986c.05729-.01953.11751-.0402.17513-.05973l.00488-.00179.17969-.06152.05892-.02018.12272-.04216.06771-.02327.11784-.04053.06413-.0223.1416-.04883.03906-.01351c.05925-.02051.11947-.04134.17871-.062l.05241-.01823.12826-.04459.06575-.02279.11849-.04134.06543-.02279.12988-.04557.05046-.01774.18-.063.03353-.01188.14746-.05192.05892-.02067.12305-.04346.0638-.02262.12565-.04444.056-.01985.18-.064.00814-.00293c.05729-.02018.11263-.04.1696-.06038l.06347-.02246.11752-.04216.069-.02458.11588-.0415.06543-.0236.14746-.0529.03093-.01106.17838-.0643.05469-.01985.1263-.04557.0638-.02312.1198-.04345.06347-.023.13542-.04932.04395-.016.17871-.0651.043-.01579.13835-.05046.05827-.02148.1263-.04623.05729-.02115.13672-.0503.04492-.01644c.06088-.02246.12077-.04443.18164-.06705l.016-.00586.1621-.06006.0586-.02165.12239-.04541.06413-.02392.12533-.04655.05371-.02.165-.06153.01562-.00586c.06087-.02262.11947-.04459.18034-.06738l.0485-.01823c.04232-.016.08822-.033.13054-.04915l.06054-.02263.12663-.04768.05534-.02084c.05046-.019.09863-.03711.14909-.05631l.03-.0114c.05892-.02213.12109-.04573.17968-.068l.04623-.01742.13314-.05045.06184-.0236.1211-.04606.06087-.02328c.0446-.01692.08822-.03353.13249-.05062l.0472-.0179.17969-.06885.02343-.00895.15463-.05941.057-.02181.12435-.048.06152-.0236.12631-.04883.05241-.02018c.12109-.04688.23893-.09261.36-.13965l.04753-.01839.13053-.051.06055-.02343.124-.04851.05664-.02213q.07569-.02955.151-.05925l.02735-.01058.17838-.07.04623-.01823.13476-.05306.056-.02214.12663-.05.05566-.022.137-.0542.04362-.01741c.05859-.02311.11946-.04737.17773-.07048l.03451-.01367.1442-.05745.05534-.022.126-.05029.05892-.0236.13118-.05241.04655-.01872.18067-.07242.00227-.001c.06023-.02409.11654-.04688.17676-.07113l.04655-.01871c.04395-.01775.08822-.03549.13216-.05339l.05632-.02262.1289-.05225.05209-.02116.16374-.0664.01367-.00538.179-.07291.04753-.01937.12988-.0529.0612-.02506.12142-.04965.05729-.02343.14-.05729.03841-.016c.06022-.02458.11816-.04851.17838-.07325l.03483-.01432.1416-.05843.05827-.02409c.04-.01644.08073-.0332.12045-.0498l.06315-.026.123-.05094.054-.02246.17611-.07308.0205-.00863.15495-.06461.05892-.02442c.03972-.01676.08073-.03385.12077-.05045l.0599-.02523.12369-.05176.05632-.0236c.11784-.04931.23372-.098.35124-.14762l.054-.02279.12272-.05176.06478-.0275.11361-.048.06543-.02767.13151-.05582.04329-.0184c.058-.02457.11654-.04964.17416-.07421l.04752-.02019.12826-.05468.06347-.02718.11491-.04916.06478-.02767.12565-.05387.04916-.021.17415-.07487.03874-.01676.13672-.05892.06217-.02686.11458-.04948.06608-.02864.11817-.05127.05762-.0249.16048-.06966.02995-.013.15755-.06852.05989-.0262c.03972-.01725.07552-.03288.11491-.05029l.06869-.02979.11165-.049.0638-.028.13249-.0581.043-.01888c.05729-.02523.11393-.05.17122-.07536l.05469-.02409.11947-.05273.0677-.02979.10971-.0485.068-.03027.11458-.05062.06087-.027.16732-.07438.057-.02539.11621-.05176.07292-.03255.10351-.04623.07129-.0319.109-.04883.06706-.03011.151-.0677.0625-.02816.12467-.05615.07357-.03321.10156-.04573.07455-.03369.10124-.04574.07421-.03369.11556-.05241.07-.03174.15007-.0682.07487-.03417.09961-.04525.07747-.03532.09473-.0433.081-.03711.09831-.04508.07291-.03337.16211-.07438.07162-.033.09993-.0459.082-.03792.08887-.041.08529-.03939.09017-.04167.08105-.03743.1237-.0573.11068-.05143.0957-.04459.083-.03858.08984-.04183.08431-.03939.08854-.04134.083-.03873.09636-.04525.13183-.06185.10124-.04736.08463-.03988.085-.03988.08952-.04231.08041-.03793.09114-.043.08106-.03841.11491-.05436.12858-.06087.08919-.04248.07975-.03776.09473-.04509.07292-.03483.09667-.04606.07194-.03434.09831-.04688.05339-.02571c.06673-.03174.12956-.06185.196-.09375l.069-.03321.09961-.04785.06869-.033.10058-.04834.06511-.03157c.0319-.01514.07161-.03435.10319-.04965l.05338-.02587c.06966-.03353.1403-.06771.20964-.1014l.05273-.02539.10742-.05209.05827-.02848.10742-.05208.058-.02832.10937-.05323.04557-.02213c.126-.06169.25521-.12468.38119-.18653l.05013-.02457.112-.055.05143-.02522.11393-.05616.04395-.02148c.13216-.0651.25976-.12809.39193-.19352l.03678-.01823.11556-.05729.04948-.02458.1136-.05632.04786-.02392c.13867-.06885.2705-.1346.40885-.20361l.01335-.00684.12435-.06218.03873-.01936.123-.06185.03418-.01709c.18848-.09457.376-.189.56413-.284l.02539-.013.12825-.06478.03125-.01579.13151-.06673.00912-.00472c.14746-.07471.293-.14892.4401-.224l.00488-.00244c.04688-.02409.08952-.04573.1364-.06966l.02409-.01237.13509-.06917.012-.00619c.194-.09928.39258-.20149.58627-.30143l.00878-.00456.14519-.07519.0026-.0013c.24968-.12907.49707-.25765.74642-.3877l.0013-.00065q8.09766-4.22754,15.84831-9.12663A21.33556,21.33556,0,0,0,399.11491,182.438Z" style="fill:#a4b1ff"/><path d="M213.33314,298.66686a21.33333,21.33333,0,0,1,21.33353,21.33333V320c-5.889,42.90273-27.36258,82.52924-58.51042,113.67708l-5.48958,5.48959L72.83333,341.33333l5.48959-5.48958a212.387,212.387,0,0,1,39.73638-31.59931,41.13473,41.13473,0,0,1,21.35436-5.57772l73.91967.00033Z" style="fill:#ffea21"/><path d="M149.99911,320h-.08171l-.02506.00016-.05534.00017h-.03255l-.04851.00032-.03515.00016-.04264.00017-.04135.00032-.03157.00033c-.0612.00049-.1224.001-.18359.00179l-.012.00016-.0651.00081-.00944.00017-.06934.001h0q-.21972.00318-.43978.00847h0c-.32259.00781-.64388.01871-.96582.03288a21.01671,21.01671,0,0,0-19.85384,21.54541,21.65092,21.65092,0,0,0,21.58789,21.07763c.08464,0,.17155-.00065.25619-.00163l.14876-.00162a21.63881,21.63881,0,0,0,21.332-21.58448A21.02891,21.02891,0,0,0,150.51083,320Z" style="fill:#fffc74"/><path d="M211.21842,308.52653a21.34218,21.34218,0,0,0-20.805,16.70931c-4.7041,21.16455-14.27962,41.35352-28.46061,60.00618a21.33336,21.33336,0,0,0,33.92708,25.87273,202.35315,202.35315,0,0,0,30.94629-57.83692v-.00049c.16081-.47819.319-.95442.47591-1.43375l.00131-.00375.03776-.11621.0026-.00765.1123-.34489.00456-.01383c.01107-.035.02344-.07243.03483-.10742l.00684-.02181q.05469-.1687.109-.33773l.0039-.012.03353-.10466.00912-.02865c.03613-.11263.07259-.2264.1084-.33919l.00195-.006.03353-.10579.00879-.02751c.01139-.03516.02246-.07015.03353-.10531l.0013-.00423c.03646-.11507.071-.22428.10742-.33968l.01042-.033.03157-.10075.00619-.01953c.02213-.07031.04459-.1429.06673-.21305l.00423-.01351.029-.09343.01367-.043.029-.09342.0114-.03678c.03125-.10026.06347-.20394.0944-.30437l.01432-.04671.02767-.08919.01367-.04509c.03028-.09781.05957-.19319.08952-.29117l.0179-.05844.02442-.07959.01855-.06119.02344-.07683.02018-.06689c.014-.04525.02767-.09066.04134-.13591l.01791-.05908.02376-.07877.01921-.06332.02278-.075.02214-.07389c.012-.04037.02506-.08382.03743-.124l.01953-.06575.02312-.07731.01953-.06494.02181-.07325.02246-.07487.03418-.11539.02279-.0765.02181-.07275.01985-.06755.02181-.07324.02246-.07617.029-.09831.02735-.09294.02051-.07031.02083-.07064.02116-.07243.02083-.07161.02442-.083.03287-.11328.01921-.06592.02246-.07731.01921-.06657.02376-.08187.01758-.06071.03776-.131.0166-.05745.02441-.08529.01823-.06283.02474-.08675.016-.056c.013-.04492.02572-.08951.03841-.13427l.014-.04916.02669-.09342.01693-.0599.02539-.08935.0153-.05469c.013-.04492.02637-.09212.03874-.137l.00879-.03093.0319-.11344.01432-.05062.028-.09929.01334-.04768c.0127-.04493.02572-.09261.03841-.1377l.00163-.00521.04037-.14551.01074-.03841L229.764,343.7l.01074-.03873.03678-.13217.00391-.01416c.01367-.05013.02669-.09765.04069-.14762l.00846-.03125.03288-.119.00977-.03646c.012-.04329.02409-.0874.0358-.13069l.00456-.01628c.01335-.04834.02734-.10058.04069-.14892l.00749-.02735.03353-.12386.00911-.033.03581-.13249.00423-.01513.04134-.15381.00326-.01221c.01237-.04508.02474-.091.03678-.13607l.00846-.03125.03549-.13313.00423-.01514c.027-.10189.055-.20589.082-.30794l.00521-.02c.01269-.04672.02474-.0931.03711-.13981l.00358-.01384c.02767-.10368.05436-.20573.0817-.30941l.00489-.01839.03613-.13786.00488-.01823.08073-.30989.00358-.01319.03711-.14371.00391-.01433c.02734-.10546.054-.20931.08105-.31477l.001-.0031.03939-.15429.002-.008q.06054-.23632.12044-.47314l.00326-.01188q.65088-2.57349,1.22754-5.16651a21.35249,21.35249,0,0,0-20.84506-25.96647Z" style="fill:gold"/><rect x="87.16344" y="271.39896" width="60.33978" height="246.53541" rx="30.16986" ry="30.16986" transform="translate(-244.70534 198.56239) rotate(-45)" style="fill:#33527d"/><rect x="364.49678" y="-5.93437" width="60.33978" height="246.53541" rx="30.16986" ry="30.16986" transform="translate(32.62799 313.43761) rotate(-45)" style="fill:#33527d"/><rect x="129.83011" y="374.40541" width="60.33978" height="125.85586" rx="30.16986" ry="30.16986" transform="translate(-262.37845 241.22905) rotate(-45)" style="fill:#163969"/><rect x="407.16344" y="97.07207" width="60.33978" height="125.85586" rx="30.16986" ry="30.16986" transform="translate(14.95488 356.10428) rotate(-45)" style="fill:#163969"/><circle cx="128" cy="128" r="106.66667" style="fill:#ffea21"/><path d="M128,42.66667A85.33338,85.33338,0,0,0,42.66667,128v.14388l.00032.027v.11621l.00033.03157v.04021l.00032.03092v.04085l.00033.03174v.041l.00032.03027.00033.03858.00033.03694v.03353l.00032.0363.00033.03776.00032.03353.00033.04.00032.03125.00033.0363.00032.03727.00033.03321.00033.03645.001.07146.00033.01562.00065.05632.00032.02913.00033.03939.00065.03711.00065.03662.00033.03043.00065.04151.00032.03076.00065.04036.00066.0337.00065.036.00065.03564.00065.03776.00032.0332.001.0376.00065.0332.00065.04216.00065.029.00065.0389.00066.03467.001.03613.00065.03418.001.04346.00065.02783.0013.06982.001.03191.00065.03906.001.03548.001.0363.00065.03141.001.0402.001.035.001.035.001.03922.00065.02962.0013.04249.001.02978.001.03857.001.03239.001.04086.001.029.0013.04069.001.03011.001.04118.001.03239.0013.03694.001.03321.0013.03971.001.02653.0013.04313.00065.01937.00325.09554.001.02507.00163.043.00065.02588.00163.04151.001.03174.00163.03613.001.034.0013.03564.00163.03743.0013.03451.0013.03369.00163.0389.0013.03206.00163.04086.001.02523.00162.04589.00131.02686.00162.04248.00131.02751.00162.043.0013.03028.002.03955.0013.03239.00163.03825.00163.03369c.00227.05111.00455.10433.00716.15543l.00065.01937.00228.048.001.02164.00228.047.0013.02442.002.04069.00162.03141.002.03825.00163.03288.00162.03645.002.034.002.03874.00163.03092.002.03906.00163.02979.00228.04346.001.02327.00261.04639.001.02018.00293.05306v.0013c.00619.10791.01205.21631.01856.32406l.001.01823.00293.05143.001.01709.00293.04655.00163.02653.0026.04427.0013.02295.00326.04834.0013.02279.00261.04378.002.02881.00228.03906.00228.03369.00227.03809.00163.02571.00326.04753.001.0179.00358.05111.001.01709.00358.05338.00033.00489c.00553.0848.01172.1735.01758.2583l.00065.01009.00423.05827.00065.01009.00391.05648.001.01285.00391.05437.0013.01611.00326.04867.002.02262.00325.04818.00163.01985.00358.05078.0013.016.00424.05469.001.01384.00391.05175.00163.02247.0039.04947.00065.01091c.01205.15511.02409.30631.03679.46126l.00065.00489.00521.06526v.0013l.00553.06446.00033.00472.0052.0625.00066.006.0052.05941.001.0122.00488.05827.00065.00586.00521.06266.00065.00456a84.8018,84.8018,0,0,0,7.40756,28.03272A21.3334,21.3334,0,0,0,89.16927,145.731,42.26887,42.26887,0,0,1,85.33333,128,42.71514,42.71514,0,0,1,128,85.33333a21.33333,21.33333,0,0,0,0-42.66666Z" style="fill:#fffc74"/><path d="M128,234.66667q.38281,0,.765-.00277h.01107l.02181-.00016c.09343-.00065.18587-.00147.279-.00244l.1084-.00114.02181-.00017.12109-.00146.13737-.00179.01856-.00016.06771-.001h.00423l.25358-.00391.14746-.0026.02409-.00049.02995-.00049.05664-.00114h.00358c.05664-.00114.11165-.00211.168-.00342l.01107-.00016c.08235-.00163.16406-.00342.24609-.00537l.02506-.00065c.0778-.00179.15528-.00358.23308-.00553l.00976-.00033.07585-.00195.0306-.00082.05469-.00146.02408-.00065c.22071-.006.44239-.0127.66276-.02h.00033l.085-.00277.00879-.00032.16244-.0057.00618-.00016a106.47638,106.47638,0,0,0,26.60514-4.34945l.00814-.00228.06934-.02083.01237-.00358.06608-.01986.01334-.00391.06608-.01985.01075-.00326.06575-.01969.02084-.00619.05729-.01741.0205-.00619.05892-.01774.01791-.00537.0612-.01872.01562-.00472.06185-.01871.02214-.00684.05566-.01693.02311-.007.05567-.01709.02246-.00683.05566-.01709.02376-.00733.05339-.01643.02864-.00879.05079-.01563.02571-.008.05078-.01563.03386-.01058.04427-.01367.03353-.01042.04394-.01367.03744-.01172.041-.01269.03776-.01172.03907-.01221.04231-.01334.03646-.0114.04-.01269.03744-.01172.04589-.01433.03093-.00992.04655-.01465.03222-.01009.04786-.01514.02962-.00944.04883-.01546.02832-.00895.056-.01791.02083-.00667.05664-.01807.02148-.00683.0612-.01953.0153-.00489.06446-.02083.01269-.00407.06869-.022.00846-.00277.06966-.02246.00814-.0026.07357-.02377.00325-.00114.07552-.02441.002-.00065q4.39452-1.42676,8.6136-3.21647a10.66661,10.66661,0,0,0-8.35416-19.6294A84.78071,84.78071,0,0,1,128,213.33333a10.66667,10.66667,0,1,0,0,21.33334Zm68.8597-29.11052a10.636,10.636,0,0,0,7.65137-3.23388,106.95465,106.95465,0,0,0,18.83333-26.44548l.00261-.00537.03287-.06543.00293-.00586.0319-.06364.00391-.008c.02311-.04574.0459-.09115.06868-.13689l.00131-.00244.0345-.06933.00033-.00082.03483-.06966.00065-.00163c.02376-.04736.0459-.09244.06934-.13981l.00195-.00358.03385-.06836.00065-.0013.03321-.06738.0039-.008.03256-.06575.00032-.00082.03418-.06933.00195-.00407c.06934-.14079.139-.28337.20769-.42464l.00032-.00033c.18132-.37305.36165-.74935.53874-1.12484l.01139-.0236.026-.05534.00651-.01432.02572-.05436.00911-.01921.0267-.05729.00651-.01351.02474-.05322.00976-.02083.02995-.0638.00228-.00489.02767-.05924.00749-.01612.02539-.05419.00813-.01775.02246-.04866.0127-.02686.02246-.04834.00977-.02148.02343-.05029.01107-.02425.02149-.04607.012-.02653.02051-.04443.01367-.02978.02083-.04525.0114-.02458.02246-.04866.01172-.02556.0205-.04476.01368-.02978.0179-.0389.01628-.036.01823-.03988.01334-.02929.02018-.04428.014-.03043.01986-.04378.01172-.02588.02148-.04769.012-.02637.02181-.04785.00976-.022.02311-.05111.01107-.02409.02116-.047.012-.02685.02019-.04509.013-.02913.0205-.04525.01172-.02571.02084-.04688.01237-.02783.0205-.04541.012-.02686.02018-.04524.01335-.02963.01985-.04476.0114-.02539.02116-.04817.01171-.02588.02051-.04655.013-.02962.01856-.04118.01627-.03711.01628-.03679.014-.03157.0192-.04346.01335-.03043.01823-.04151.0153-.03467.01693-.03841.01432-.03271.0192-.04346.00912-.021.02279-.05241.01074-.02457.02083-.04785.014-.03142.01758-.04069.01562-.03564.01693-.03939.012-.02718.01986-.04622.013-.02963.01888-.04378.01465-.03353.01693-.03971.01237-.02881c.03157-.07308.06412-.14844.09537-.22152.01758-.04052.03353-.0778.05078-.11832l.0153-.03565.01628-.03857.01693-.03955.01432-.03369.016-.03744.016-.03743.01986-.04639.01041-.02523.02377-.05615.00748-.01725.01954-.04639.013-.03076.01269-.03028.01921-.04541.01172-.0275.01953-.04655.012-.029.01856-.04395.01465-.035.0166-.03939.013-.03125.01855-.0446.01172-.02783.01953-.047.01107-.02653.01953-.0472.01107-.02669.02148-.05143.00684-.01628.02441-.05908.00684-.01644.02344-.05664.00846-.02083.02148-.05176.01075-.0262.0205-.05.00879-.02116.02149-.05274.01041-.02506.02051-.04964.00977-.02425.01985-.04818.01172-.02946.02019-.04915.00813-.0197.02246-.05517.00879-.022.02149-.05257.00879-.02148.02116-.05241.00976-.02393.02149-.05371.00748-.01823.02246-.05566.00879-.02132.02149-.05355.00846-.02083.02116-.05323.00911-.02278.02247-.05583.00651-.01628.02343-.05826.00749-.01872.02181-.05518.00814-.02.02083-.05241.00977-.02425.02148-.05436.00749-.01855.02116-.05371.00944-.02393.02018-.05078.00944-.02393.01855-.0472.01172-.02962.02051-.05192.00814-.02035.02148-.055.00847-.02148.02278-.05811.00619-.01546.02246-.05729.00749-.01937.057-.14665.00065-.00163q.19189-.49316.37858-.98779l.00163-.00391.02669-.0708.00424-.01155.02506-.06657.00065-.00114.0267-.07145.00683-.01856.02246-.05957.00391-.0109.02376-.06348.00586-.01546.02409-.06462.00032-.00114.02735-.0734.00325-.00846.02474-.0669.00489-.01318.02213-.0599.00781-.02083.02116-.05746.00586-.01611.02116-.05745.00846-.02312.01954-.05322.00846-.02311.01888-.05127.00944-.02555.01986-.0542.00651-.01807.02116-.05843.00618-.01628.02279-.0625.00423-.01237.02246-.06119.00618-.01709.02214-.0612.00521-.01465.02181-.06071.00553-.01546.02377-.06527.0026-.00781.02409-.06706.00423-.0109.02474-.069.00163-.00521.02474-.06836.00358-.01042.02409-.06771.00325-.00862.02311-.06511.00456-.01286.02311-.06543.00391-.01106.02213-.06169.00586-.0166.02214-.06266.00456-.013.02148-.06136.00586-.01612.02279-.06543.00358-.0096.02343-.06673.00359-.01009.02343-.06706.00358-.01009.02409-.069.00228-.00668.02572-.07389.00065-.00244.02539-.07292.00163-.00455q.32128-.926.62565-1.85873l.00065-.00114.02474-.07617.00065-.00244c.00846-.026.016-.04818.02409-.07422l.0026-.00732.02279-.07015.00228-.007.02278-.0708.00261-.00765.02278-.071.00163-.00472.02311-.0721.00261-.008.02213-.06983.00261-.00781.02213-.0695.00326-.00944.02246-.07031.0013-.00456.02279-.07129.00325-.01009.02149-.06787.00293-.00944.02116-.06673.00423-.01351.02083-.06608.00293-.00912.02116-.06754.00423-.013.02051-.06527.00358-.01107.02083-.06722.00358-.01139.02084-.0669.00325-.01041.02018-.06413.00521-.01742.01888-.06054.00521-.01644.01856-.06039.00586-.01871.01985-.06381.00326-.01106.02148-.06934.00261-.0083.02278-.0752.00033-.00065c.02409-.07845.04752-.15527.07129-.23372l.00065-.00212c.19108-.62793.37565-1.25472.55534-1.88737l.00325-.0122.01953-.069.001-.00342c.00749-.02653.01432-.04964.02148-.076l.00065-.00195c.015-.0529.029-.10238.04362-.15511l.00163-.0057c.02962-.10563.057-.20361.08627-.30925l.00292-.00992.01954-.07048.00195-.00716.0192-.07048.00293-.01025.01954-.07047.002-.00765.01888-.0682.00391-.01449.0179-.06575.00325-.01237.01856-.06738.00293-.01075.01888-.06917.0026-.01042.01726-.06331.00553-.02067.01628-.06006.00455-.01725.01693-.0625.00423-.01612.01791-.06608.00292-.01139.01758-.06527.00423-.016.01791-.06673.0026-.01025.01921-.07129.00163-.007.01888-.07048.0026-.01074.01758-.06608.00358-.014.01823-.06933.00228-.00847.01985-.0747.00065-.00342.02019-.077.00065-.0026.01985-.0752.00131-.0052.01953-.07487.001-.00456c.014-.05322.02735-.10466.041-.15788l.00033-.001.01985-.07763.00065-.00244q.23634-.91871.45671-1.84278l.00032-.00162.01823-.077.00163-.00716.01791-.07471.00032-.00244.01856-.07747.00065-.00391.03678-.15576.00163-.00749.01725-.07373.0013-.005.01726-.0747.00195-.00733c.00618-.02685.01009-.04476.0166-.07161l.00228-.01107.0153-.06527.00456-.01969.015-.06462.00228-.01041.016-.069.00293-.01351.016-.06966.00163-.00749.01627-.07129.00261-.01139.0166-.07324.001-.00359.01693-.0747.002-.0083.016-.07129.00227-.00993.015-.06755.00358-.01513.0153-.06885.00195-.00928.016-.07015.00228-.01155.016-.07146.002-.00781.01563-.071.00228-.01091.0166-.07519.00065-.00309.01628-.07292.00195-.01025.016-.07227.00163-.00749.01465-.067.00358-.01628.01627-.0752.00033-.002c.13476-.62126.26367-1.24251.38769-1.86767l.00131-.00652.03092-.1569.001-.0052.015-.07634.001-.00521.01465-.07422.00227-.01155.01368-.07178.0013-.00651.014-.07194.00293-.015.013-.06755.0026-.01318.01237-.06494.00391-.0197.01237-.06445.0026-.01481.01237-.06429.00358-.01872.01237-.06559.00228-.013.01335-.06918.00195-.0109.01367-.07341.0013-.00634.01335-.07081.0026-.015.0127-.0682.0026-.01269.012-.06625.00325-.01692.01237-.06657.00261-.01449.01172-.06429.00358-.01839.012-.06706.00228-.01253.01269-.06885.00228-.01253.01335-.0734.001-.00651.013-.07194.00228-.01189.012-.06673.00293-.01725.01107-.06038.0039-.0223.0114-.06494.0026-.01449.0127-.07113.00162-.00911.014-.07959v-.00016l.01432-.08041.00033-.00228.01432-.08154V146.471l.014-.08106.00033-.00146.01334-.07764.001-.00537.01334-.07715.001-.00472c.07064-.41113.13867-.82145.20475-1.23421l.00131-.00765.012-.07471.0013-.0096.01172-.07275.0013-.00928.01172-.07275.00163-.01172.01139-.071.0013-.00992.0114-.07227.002-.012.01074-.06983.00228-.01448.01009-.0656.00391-.02376.00879-.05876.00358-.02148.00911-.0599.00391-.02571.00879-.05746.00325-.02116.00944-.06233.00293-.01937.00944-.06348.00261-.01693.01009-.06656.00228-.01612.00976-.06575.00261-.01709.00944-.06413.00325-.02116.00879-.06071.00326-.02148.00879-.05957.00358-.026.00814-.05566.0039-.02653.00814-.05452.00423-.02979.00781-.05436.00358-.02507.00814-.0568.00423-.02865.00749-.05289.00391-.02849.00781-.05387.00423-.02962.00749-.05436.00358-.02588.00814-.05632.0039-.02816.00782-.05566.00325-.02441.00846-.05974.00326-.02343.00846-.06283.00228-.01709.00879-.063.00326-.02278.00781-.05827.00325-.02393.00814-.05973.00326-.02311.00781-.06039.00293-.02164.00749-.056.00423-.03011.00716-.0542.00358-.02588.00781-.05925.00293-.02409.00847-.0625.00227-.01871.00814-.06234.00293-.022.00814-.06283.0026-.0192.00814-.06478.00261-.0184.00944-.07373.001-.00781.00814-.06348.00261-.02164c.02832-.2225.05533-.44108.08235-.66406l.002-.015c.00618-.05224.01171-.09977.01822-.152l.00131-.01269.00846-.07145.0013-.0101.00847-.07063.0026-.02393.00716-.06055.00228-.02067.00716-.06054.00358-.03044.00586-.05176.00423-.03727.00521-.04411.00423-.03792.00554-.0472.00358-.03337.00586-.0498.00293-.02865.00651-.05794.0026-.02279.00651-.05778.00326-.02848.00618-.0568.00293-.02588.00586-.0542.00358-.033.00554-.05.0039-.035.00489-.047.0039-.036.00521-.049.00358-.03272.00553-.05045.00326-.03255.00553-.05127.00358-.03256.00521-.04964.00358-.03483.00489-.04769.0039-.03646.00489-.04671.00358-.03564.00488-.04867.00358-.035.00488-.04639.00391-.03743.00521-.05143.0026-.027.00586-.05925.00228-.02278.00618-.06071.00228-.02474.00554-.05518.00293-.02978.00553-.05534.0026-.02767.00521-.05485.00293-.02865.00521-.055.00293-.03011.00456-.04785.00358-.0376.00456-.0485.00325-.03288.00521-.0568.00228-.02426.00586-.062.00195-.02246.00521-.05485.00293-.03044.00521-.05745.00228-.0249.00553-.063.00195-.01953.00586-.06543.00163-.019.00488-.05632.00293-.02962.00488-.0586.00228-.02343.00651-.07617.00065-.00586.00684-.08025.00033-.0039.00683-.07748.00065-.00716c.01921-.22509.03744-.44775.05534-.67334l.00195-.02229.00489-.06267.0013-.01774.00521-.06494.00228-.03109.00423-.05273.00228-.0332.0039-.04948.00261-.03565.0039-.05094.002-.02344.00455-.06055.00163-.026.00456-.05794.00195-.02783.00391-.05518.00228-.0306.0039-.05517.002-.02507.00423-.05778.00228-.03125.00358-.05306.00228-.03125.00358-.05062.0026-.03743.00326-.04834.00227-.03109.00359-.05355.00227-.03157.00359-.0529.002-.03158.00325-.05061.00261-.03663.00325-.04785.00228-.03548.00293-.04785.00261-.03792.00292-.04655.00228-.03679.00326-.04671.00228-.03776.00325-.05045.00163-.02865.00358-.05615.00195-.03076.00293-.05111.00228-.03483.00293-.04737.00228-.03808.00293-.049.002-.03223.00293-.05225.002-.0345.00293-.04753.00227-.03727.00261-.04508.00228-.04118.0026-.04444.00195-.03694.00293-.05029.00163-.03451.00293-.04915.00195-.03549.00228-.04557.00228-.041.00228-.04362.00228-.03907.00228-.04671.00195-.03857.00261-.04492.00195-.03923.00195-.04248.00228-.04362.0026-.04687.00163-.03353.00261-.05437.00162-.0319.00228-.05094.00163-.0332.00228-.04639.00195-.04.00261-.05159.0013-.03012.0026-.055.0013-.03141.00228-.05127.00163-.03288.002-.04476.002-.0415.0026-.06087.001-.021.0026-.06071.001-.02555.00195-.042.00163-.0433.00032-.00586.00489-.11328c.00162-.04622.00325-.08724.00521-.13346l.00162-.04313.00163-.042.00228-.05827.001-.02441.00195-.04736.0013-.04.00163-.04232.00163-.04036.00162-.0459.00131-.04037.0013-.04052.00163-.04362.00162-.04118.00131-.04492.0013-.03776.00163-.04607.0013-.04166.00163-.0433.0013-.04508.0013-.03776.0013-.04346.0013-.04492.00131-.03776.0013-.04525.0013-.03922.0013-.048.001-.03646.0013-.04638.0013-.03939.0013-.04736.001-.03858.0013-.04411.001-.04134.0013-.04508.001-.03907.0013-.04459.001-.04118.001-.04508.001-.04135.001-.041.0013-.04346.001-.04427.001-.03971.001-.04411.00065-.041.001-.04508.001-.04183.001-.04037.001-.04475.00065-.04118.001-.04427.00065-.04037.001-.04264.00065-.047.001-.03646.00065-.0472.00065-.03939.001-.04378.00065-.04394.00065-.03858.00065-.04573.00065-.04265.00065-.0415.00065-.04281.00065-.04313.00066-.042.00032-.04313.00065-.04085.00065-.04444.00033-.04362.00065-.041.00033-.04151.00065-.04476.00032-.04052.00065-.04476.00033-.03874.00032-.04622.00033-.04086.00065-.04524.00033-.03858.00032-.04541.00033-.042.00032-.0446v-.03776l.00033-.04622.00032-.0459.00033-.03939.00032-.04948v-.03483l.00033-.0555v-.03011l.00033-.05371v-.03206l.00032-.04639v-.07927l.00033-.04589v-.34815l-.00033-.03385v-.09017l-.00032-.05322v-.04265l-.00033-.0459v-.042l-.00033-.04655-.00032-.04264v-.04753l-.00033-.03922-.00032-.04851-.00033-.04313-.00032-.04671-.00033-.03922-.00032-.04981-.00033-.03988-.00065-.0511-.00033-.036-.00032-.051-.00033-.041-.00065-.0485-.00032-.0376-.00065-.05127-.00033-.03955-.00065-.05436-.00033-.03158-.001-.05534-.00033-.03629-.001-.0573-.00032-.02978-.0013-.08773-.00033-.02425-.001-.06689-.00032-.01872-.001-.06755-.00065-.03841-.001-.05062-.00066-.03906-.001-.04867-.00065-.03678-.001-.056-.00065-.03011-.001-.055-.001-.0402-.001-.04851-.00065-.03939-.0013-.04882-.00066-.03907-.0013-.05143-.00065-.03743-.0013-.048-.001-.0415-.001-.04981-.001-.03727-.0013-.05273-.001-.035-.0013-.05306-.001-.03776-.001-.04264-.00131-.0472-.0013-.04541-.0013-.04053-.0013-.05566-.001-.03272-.00228-.07552-.00032-.01253-.00261-.08724-.0013-.04-.0013-.0485-.001-.03288-.002-.05745-.001-.02881-.00195-.05908-.001-.03451-.00162-.05159-.00163-.04379-.0013-.04378-.00163-.04183-.00163-.04785-.0013-.041-.00163-.04638-.00163-.04-.00162-.05062-.00163-.03662-.002-.05339-.0013-.03271-.00195-.05664-.0013-.0332-.00228-.05534-.0013-.03239-.002-.05127-.00162-.041-.002-.04687-.00162-.03858-.00228-.05582-.00131-.03207-.00293-.06868-.00065-.01774-.00293-.07-.001-.02018-.00781-.17611-.00131-.02686-.0026-.061-.002-.03744-.00228-.04882-.00163-.03907-.0026-.05127-.00163-.03645-.00228-.04916-.00195-.0415-.00261-.047-.00195-.04118-.00228-.04622-.00195-.03955-.00261-.05062-.00195-.03776-.00228-.048-.00228-.0415-.00228-.04508-.00228-.044-.00227-.04215-.00261-.04525-.00228-.04395-.00228-.04362-.0026-.04476-.00228-.0415-.0026-.04915-.00228-.03841-.00293-.05339-.002-.03337-.00326-.05957-.00163-.02848-.00423-.06934-.001-.01822-.00521-.08692-.002-.03515-.00325-.05274-.00228-.03776-.00293-.05-.00228-.03711-.00325-.05045-.00228-.0376-.00326-.05127-.00195-.03157-.00358-.05746-.00195-.03239-.00359-.0542-.00227-.034-.00358-.05437-.00228-.0345-.00326-.05176-.0026-.03776-.00293-.04639-.00326-.04573-.0026-.03955-.00293-.0459-.00293-.04313-.00326-.0446-.00293-.04394-.00293-.04086-.00325-.04752-.00293-.04232-.00293-.04248-.00326-.04313-.00325-.04444-.00293-.04459-.00326-.04411-.00293-.04085-.00423-.05534-.0039-.05306-.00489-.06657-.00162-.02214-.00489-.06429-.00195-.027-.00488-.06364-.00163-.022-.00488-.06185-.00261-.03564-.00423-.05306-.00293-.03662-.00358-.04769-.00325-.04232-.00359-.04492-.00358-.04525-.00325-.0389-.00391-.04769-.00325-.04166-.00358-.04346-.00358-.0446-.00326-.04-.00423-.05061-.00293-.03695-.00391-.04639-.00358-.042-.0039-.04574-.00326-.04117-.00391-.04558-.00358-.04052-.00423-.05046-.00325-.03678-.00391-.04688-.00358-.04053-.00553-.06071-.002-.02474-.01562-.17366-.00358-.04085-.00391-.0446-.00423-.04639-.00391-.04117-.00358-.03825-.00455-.05-.00359-.03988-.00423-.04508-.0039-.04411-.00391-.0415-.00456-.04607-.0039-.04231-.00358-.03939-.00489-.05013-.00358-.037-.00455-.0485L234.168,117.62l-.00423-.04508-.00423-.04411-.00456-.04427-.00358-.0389-.00489-.05013-.0039-.03776-.00456-.0472-.00423-.04-.00423-.04215-.00456-.04607-.00521-.05387-.00293-.02767-.00781-.076-.001-.01107-.01823-.17513-.002-.0179-.00716-.06966-.00228-.02165-.00684-.06445-.00293-.02995-.00618-.05648-.00391-.03694-.00488-.04688-.00456-.0428-.0052-.04541-.00391-.03874-.00521-.047-.00456-.04036-.00488-.04655-.00456-.04086-.00488-.04313-.00456-.04313-.00521-.04606-.00455-.03939-.00489-.04557-.00455-.04085-.00554-.04834-.00423-.03662-.00553-.04948-.00423-.0376-.00586-.0516-.00391-.03369-.00618-.05241-.00391-.035-.00619-.05176-.0039-.03467-.00586-.05061-.00423-.03581-.02019-.17057-.0052-.0433-.00521-.04232-.00488-.041-.00554-.04574-.00488-.03971-.00554-.0472-.00455-.03646-.00586-.04932-.00488-.03841-.00586-.04866-.00456-.03549-.00619-.05045-.00455-.03679-.00651-.05126-.00391-.03272-.00651-.05257-.00456-.03532-.00683-.05322-.00391-.03044-.00684-.054-.00455-.036-.00619-.04882-.00456-.0363-.00651-.05-.00455-.03629-.00749-.05729-.00358-.02621-.00749-.0581-.0039-.03044-.00749-.05566-.00391-.02995-.00846-.06348-.00293-.02246-.02246-.1696-.00586-.04215-.00619-.04574-.00423-.03125-.00748-.05485-.00424-.03287-.00716-.0529-.00521-.03792-.00651-.04525-.00553-.04085-.00651-.04818-.00488-.03369-.00717-.05192-.00455-.03386-.00781-.054-.00424-.03207-.00716-.0498-.00553-.0389-.00684-.04851-.00521-.0358-.00683-.05-.00521-.03516-.00781-.0542-.00423-.03092-.00782-.05306-.00488-.03337-.00814-.05664-.0039-.02832-.00879-.05924-.00391-.02653-.00944-.0638-.00325-.0223-.00879-.05957-.00391-.02718-.0127-.08464-.00227-.0166-.01042-.07015-.0026-.01693-.01042-.0695-.00293-.02-.00977-.06363-.00455-.03093-.00879-.05615-.00358-.02555-.00944-.06023-.00424-.0288-.00878-.05632-.00456-.02978-.00814-.05355-.00586-.03728-.00749-.04752-.00553-.03581-.00781-.05-.00554-.03662-.00781-.04931-.00553-.03516-.00749-.0472-.00651-.04118-.00716-.04541-.00586-.03662-.00781-.04834-.00619-.03955-.00683-.04313-.00684-.04118-.00553-.036-.00847-.05241-.00358-.02181-.00944-.05843-.00911-.05566-.01009-.06071-.00879-.0542-.00489-.0293-.00879-.0542-.00618-.03646-.00814-.05045-.00553-.03337-.00847-.05013-.00618-.03825-.00781-.04671-.00684-.04036-.00749-.0433-.00651-.0402-.00813-.04785-.00619-.03532-.00781-.04736-.00684-.03956-.00781-.04622-.00651-.03841-.00781-.04525-.00651-.03825-.00879-.0511-.00586-.0337-.00814-.04606-.00716-.04134-.00749-.04378-.00683-.03988-.00782-.04345-.00716-.04167-.00781-.04443-.00716-.04037-.00814-.04671-.00651-.03662c-.015-.085-.03027-.1696-.04525-.25456l-.00488-.0262-.01009-.056-.00847-.04785-.00651-.035-.00879-.04769-.00651-.03711-.00878-.0485-.00652-.035-.00846-.04623-.00716-.03938-.00846-.0459-.00684-.03727-.00846-.04541-.00716-.03923-.00879-.04688-.00684-.03629-.00846-.04639-.00716-.03727-.00912-.05-.00586-.0306-.00976-.05175-.00619-.03321-.00976-.05143-.00619-.0332-.00911-.04834-.00782-.03972-.00846-.04443-.00814-.04281-.00749-.03971-.00781-.04053-.00879-.04638-.00162-.00782c-.01237-.06477-.0254-.13085-.03777-.19547l-.00911-.0459-.00846-.04411-.00716-.03711-.00977-.049-.00716-.03613-.00847-.04362-.00813-.04085-.00782-.04-.00878-.04476-.00847-.04281-.00781-.03841-.00912-.04525-.00781-.04-.00879-.04378-.00814-.04-.00813-.04118-.00912-.04492-.00814-.03987-.00846-.04183-.00846-.04167-.00912-.04541-.00748-.03743-.01042-.05013-.00619-.03109-.01106-.05388-.00684-.03287-.00944-.04606-.00781-.03776-.01009-.049-.00716-.03483-.0114-.055-.00586-.02816-.01465-.06982-.00976-.04753-.01009-.04866-.00977-.04558-.00781-.03792-.00814-.03841-.00976-.04671-.00847-.03939-.00911-.04248-.00912-.04313-.00846-.04-.00977-.0459-.00781-.03727-.00911-.04265-.00912-.04166-.00976-.04509-.00749-.03564-.01074-.04915-.00684-.03174-.01139-.05241-.00684-.03272-.01009-.04573-.00879-.04-.00976-.0459-.00749-.03337-.01074-.04915-.00716-.0332-.0114-.05127-.00683-.0306-.01107-.05029-.00814-.03663-.01042-.047-.00813-.03662-.00977-.04509-.00879-.03841-.01562-.06966-.013-.05827-.002-.0096-.01627-.07162-.00847-.03857-.01041-.04557-.00912-.04037-.00944-.041-.00911-.04069-.01009-.04476-.00912-.03972-.00911-.04052-.01009-.043-.00944-.04232-.00977-.04183-.00879-.03825-.01009-.04329-.01009-.04411-.00879-.03792-.00977-.04183-.00976-.043-.00944-.04053-.01009-.04248-.00879-.03776-.01042-.04574-.00911-.03841-.01042-.04427-.00879-.03809-.01042-.04345-.00976-.041-.01009-.0428-.00814-.03516-.01139-.04736-.00879-.03744-.01075-.04508-.00878-.03646c-.015-.06364-.028-.11751-.0433-.18115l-.00651-.027-.012-.05046-.00782-.03206-.01106-.04606-.00912-.03711-.01107-.04509-.00878-.03727-.01075-.04329-.00944-.03955-.01074-.04362-.00976-.03988-.0101-.0402-.01009-.04216-.01041-.04166-.01009-.04151-.00977-.03857-.01074-.0446-.01009-.03971-.01075-.04313-.00911-.03793-.01139-.04459-.00977-.03906-.01139-.04558-.00847-.0345-.012-.04753-.00944-.03808-.01107-.04379-.00911-.03646-.012-.04752-.00911-.03646-.0166-.06462-.00391-.01546-.01465-.0581-.01432-.05664-.01335-.05176-.00683-.02686-.01368-.05322-.00846-.03353-.01367-.05273-.00651-.02507-.014-.0542-.00976-.03808-.0114-.04444-.01009-.03776-.01107-.04329-.01041-.0402-.0114-.043-.01009-.03858-.01106-.04231-.01042-.04069-.01139-.043-.00977-.03793-.01172-.04329-.01009-.03923-.01172-.04394-.01009-.03874-.01042-.03874-.012-.04557-.00977-.03613-.01172-.04411-.01074-.04118-.01074-.03939-.01237-.047-.00944-.03532-.01074-.0402-.01172-.04281-.01172-.04411-.00976-.03646-.02214-.08121-.01107-.04151-.01041-.03841-.01628-.05957-.00553-.02034-.01433-.05225-.00846-.03174-.01139-.04167-.0114-.04052-.01139-.04183-.01074-.03972-.0114-.04166-.01106-.03907-.01205-.0441-.01074-.03874-.01074-.03923-.012-.043-.01139-.04069-.01074-.03923-.01237-.04394-.00912-.03353-.014-.05-.00944-.03337-.01205-.04329-.01237-.04395-.01074-.03743-.0127-.04574-.00976-.03515-.01237-.04313-.01139-.04021-.01335-.04769-.00879-.03108-.014-.048-.01009-.03646-.00683-.0236-.054-.18863-.00814-.02881-.01335-.04606-.00944-.03321-.01367-.04736-.01041-.03532-.0127-.0446-.01042-.03515-.01237-.04313-.012-.04135-.01139-.03906-.0114-.03873-.01334-.04639-.01009-.03418-.014-.04753-.00912-.03174-.014-.047-.01107-.03776-.01237-.042-.01139-.03841-.01237-.04231-.01237-.04216-.01107-.03662-.013-.04443-.0114-.03777-.01269-.04264-.01172-.03939-.01009-.03466-.01432-.04753-.00879-.02962-.0153-.05062-.00619-.02051c-.02734-.09163-.05468-.18245-.08268-.27409l-.00749-.02457-.01334-.04428-.01107-.03694-.014-.04492-.01074-.03581-.013-.04248-.01172-.03809L230,96.6984l-.012-.03938-.012-.03955-.01237-.04021-.013-.04248-.012-.03857-.012-.03971-.01334-.04265-.01172-.03792-.01335-.04281-.01139-.03694-.01335-.0433-.01237-.03955-.01237-.03922-.01269-.04118-.0114-.036-.01465-.04671-.00944-.02979-.01562-.0498-.00781-.02491-.043-.13623-.00033-.00146-.04459-.14046-.00456-.01481-.04557-.14291-.00489-.01481-.01855-.05859-.00684-.021-.01692-.05306-.00912-.028-.0179-.05567-.00684-.02116-.01823-.0568-.00781-.02441-.01725-.05274-.00912-.02816-.015-.04655-.012-.03711-.01432-.0441-.01009-.03093-.01693-.05176-.00879-.027-.01725-.05323-.00781-.02311-.01856-.05664-.00683-.02083-.02018-.06185-.00228-.00716-.02377-.07178L229.32,94.561l-.02409-.07357-.0013-.00342-.02442-.07438-.0013-.00375c-.0332-.10042-.06413-.19335-.098-.29362l-.00488-.01464-.02312-.06934-.0026-.00781-.02116-.063-.00586-.01709-.0192-.05664-.00782-.02376-.016-.04655-.01237-.03679-.014-.0415-.01237-.037-.015-.04411-.01172-.03385-.016-.04688-.01107-.033-.01529-.04427-.01172-.03483-.01661-.04834-.00911-.026-.01823-.05338-.00846-.02426-.01888-.0555-.00847-.02457-.01757-.05078-.01107-.03239-.01693-.049-.00814-.02344-.0192-.05469-.00749-.02214c-.04264-.12223-.085-.24414-.12793-.366v-.00049l-.01855-.05225-.01075-.03092-.01627-.04541-.01107-.03158-.0166-.04736-.01172-.03255-.01758-.04981-.00911-.026-.01823-.05094-.01074-.03011-.01726-.049-.01009-.02766-.0179-.0503-.01042-.02946-.01823-.05127-.00846-.02343-.01953-.05372-.00977-.028-.01855-.05111-.00879-.02474-.01888-.05257-.01074-.02913-.01758-.04883-.01009-.02767-.01856-.05176-.00814-.02181-.02083-.05778-.0026-.00716c-.02572-.07031-.05339-.14665-.07911-.2168l-.0026-.00667-.016-.04362-.013-.03548-.0153-.042-.01335-.036-.01692-.04639-.01172-.0319-.0166-.0446-.01237-.03369-.01791-.04785-.01074-.02962-.01823-.04916-.01042-.02815-.01953-.05209-.00944-.02522-.01855-.05013-.01074-.029-.01954-.05175-.00911-.02425-.01921-.05176-.01041-.02751-.01953-.05208-.00912-.02442-.0192-.05094-.01075-.02865-.01953-.05175-.00814-.02149-.02115-.05566-.00814-.02165-.02116-.05648-.00781-.02034-.02116-.05567-.00749-.01969-.10644-.27848-.00359-.00961-.05371-.13965-.00586-.01481-.02278-.05875-.00684-.01839-.02018-.05241-.01107-.02832-.02083-.05388-.00749-.01872-.02246-.05843-.00814-.0205-.02148-.05551-.00879-.02213-.01986-.05127-.012-.0306-.01856-.04753-.01074-.02718-.01953-.04948-.0127-.03255-.01692-.043-.015-.03824-.015-.03793-.01563-.04-.016-.04052-.01041-.02621-.02084-.05257-.00781-.01921-.02278-.05794-.00359-.00911c-.03645-.09131-.07454-.18734-.11132-.27865l-.00684-.01709-.01986-.04964-.01139-.02832-.01986-.04981-.01074-.02685-.02051-.05111-.01041-.02506-.02181-.054-.00912-.02246-.02018-.05-.01172-.0293-.01953-.04785-.012-.02962-.01823-.04525-.013-.0319-.01921-.0472-.01269-.03109-.01693-.04117-.01563-.0389-.01725-.04167-.01269-.03109-.01856-.04573-.01172-.02816-.02148-.05241-.00684-.01693-.02376-.05729-.00977-.0236-.02278-.05517-.002-.00456c-.03092-.0752-.05892-.14307-.09017-.21794l-.0013-.00309-.056-.13444-.00748-.0179-.02377-.057-.00781-.01872-.02116-.05045-.01237-.02914-.0192-.04573-.01237-.02979-.01888-.04492-.01433-.03418-.01758-.04167-.01464-.03466-.01661-.0389-.01822-.04314-.01335-.0319-.01823-.04313-.0153-.03613-.01725-.0402-.016-.03744-.01465-.03467-.01921-.04492-.01334-.03141-.01856-.04346-.015-.0345-.01791-.04248-.01464-.03369-.01823-.04281-.0127-.02962-.02083-.048-.00814-.01888c-.04948-.11491-.09961-.23144-.14974-.34619l-.00423-.01025-.026-.0599-.00716-.016-.02442-.05648-.00911-.0205-.02181-.05-.01172-.027-.02214-.05062-.01074-.02441-.02311-.05257-.00912-.021-.02506-.0568-.00814-.01807-.02409-.055-.00944-.021-.02506-.05745-.00716-.01563-.02507-.05713-.00944-.021-.02441-.05518-.00814-.01855-.02539-.057-.00684-.015-.02767-.0625-.00065-.00147c-.07422-.16667-.14974-.335-.22493-.501l-.00847-.019-.028-.06169L225.21,84.027l-.02734-.06022-.00749-.0166-.02767-.06088-.00553-.01155-.027-.05974-.00781-.01725-.02767-.06022-.00521-.01139-.02865-.063-.00586-.01286-.02669-.05827-.00911-.01953-.02474-.05387-.01042-.02279-.02507-.05436-.00651-.01449-.02832-.06119-.0052-.01107-.02963-.06413-.00228-.00537-.03222-.06934h0q-.1167-.25243-.235-.5039l-.00553-.01221-.026-.05534-.00944-.02018-.02637-.05583-.00846-.01774-.02637-.05615-.00879-.01807-.02637-.056-.00911-.01969-.02409-.05013-.01237-.02653-.02409-.05078-.01009-.02132-.02539-.05274-.00977-.02067-.02636-.05518-.00879-.01871-.02539-.05323-.01075-.02213-.02636-.05518-.00586-.01253-.0293-.061-.00521-.01075q-.03271-.06835-.06575-.13655l-.00326-.007c-.04394-.09115-.09147-.18945-.13574-.28044l-.00228-.005-.0306-.063-.00521-.01074-.02636-.05371-.01075-.02247-.026-.05322-.00944-.019-.02441-.05029-.01335-.02735-.02246-.0459-.01334-.02669-.02409-.04915-.01172-.02377-.026-.05338-.00879-.0179-.0267-.05372-.01106-.02278-.026-.05241-.00912-.01872-.02669-.054-.01042-.02068-.027-.05452L223.61,80.655l-.02832-.05681-.00977-.01953-.02767-.0555-.00521-.01058-.03092-.06233-.00456-.00928c-.06934-.13867-.1403-.28028-.21-.41862l-.00423-.00781-.03158-.06267-.00521-.01058-.02864-.05664-.00944-.01823-.028-.0555-.00879-.01741-.027-.05323-.01042-.0205-.028-.055-.00878-.01725-.02767-.05436-.01009-.01937-.02735-.05371-.01009-.01986-.02669-.05208-.01042-.02051-.029-.05631-.00553-.01091-.03093-.06006-.00781-.01513-.0306-.05957-.00326-.00635-.03352-.06478-.00586-.01139c-.071-.13754-.14258-.27572-.2142-.41276l-.00455-.00912-.02963-.05648-.00878-.01676-.02442-.04671-.01562-.02963-.02377-.04573-.013-.02458-.02506-.04769-.01433-.027-.02343-.04509-.015-.028-.02213-.04248-.01726-.03272-.02311-.04362-.01269-.02425-.026-.04883-.014-.02653-.02409-.04557-.014-.02653-.02441-.0459-.015-.02783-.02474-.04655-.01106-.02067-.02767-.05176-.01172-.02246-.027-.05029-.01074-.02-.02767-.05176-.01074-.02035-.13216-.24576-.012-.0223-.02539-.04672-.01367-.02555-.02474-.04573-.01432-.02653-.02572-.04737-.01367-.02539-.02246-.0415-.01823-.0332-.02279-.04232-.0153-.02783-.02571-.047-.012-.02263-.02929-.05338-.00912-.01693-.02832-.05143-.0127-.0236-.02766-.05046-.01042-.01871-.02865-.05209-.01106-.02034-.0293-.05339-.00879-.016-.02962-.05355-.0114-.02067-.02994-.05468-.001-.00163c-.0778-.14112-.154-.27783-.23242-.41862l-.00163-.00309-.02995-.05372L221.168,76.023l-.03093-.05518-.00781-.014-.03092-.05534-.00977-.01726-.03222-.05745-.00619-.01107-.0319-.05664-.01009-.0179-.02995-.0529-.00977-.01741-.02962-.05258-.01172-.0205-.029-.05144-.01009-.01806-.02962-.05176-.0127-.02279-.028-.04931-.01042-.01807-.03092-.05436-.00847-.01481-.0319-.05648-.00651-.01107-.03418-.06022-.00423-.007c-.07812-.13688-.15592-.27278-.2347-.40934l-.0026-.00407-.03842-.06657-.00162-.00325L220.376,74.631l-.00293-.00521-.03907-.067-.001-.00212-.03581-.06152-.00684-.01188-.03287-.05648-.00912-.01546-.0306-.05241-.01139-.01937-.03092-.05339-.00912-.01562-.03157-.05388-.00977-.01692-.03255-.05518-.00781-.01351-.03191-.05469-.01074-.01774-.03288-.056-.00358-.00634-.03613-.06136-.00944-.01579-.03288-.05583-.00358-.00618-.03678-.06218-.00749-.01286c-.05143-.08658-.10124-.17073-.15267-.25716l-.00553-.00944c-.02572-.04313-.05078-.08528-.07682-.12842l-.00651-.01139-.03223-.05355-.01074-.0179-.02637-.04411-.01823-.0306-.02572-.0428-.01432-.02377-.02767-.04638-.016-.02653-.026-.04281-.0166-.02783-.02442-.04069-.01953-.03223-.02409-.03955-.0166-.02783-.026-.04313-.01823-.02979-.02344-.03873-.02148-.03549-.02051-.034-.02409-.03955-.01953-.03191-.0179-.02929-.02669-.04378-.00782-.01286c-.0664-.10873-.13118-.21485-.19791-.32324l-.00586-.00977-.0293-.04769-.01432-.02327-.03158-.051-.01074-.01725-.03092-.05029-.01237-.01986-.02963-.04818-.01465-.02327-.026-.04216-.01823-.02929-.02636-.04281-.016-.02572-.02735-.04394-.0153-.02442-.02832-.04589-.01725-.02718-.02376-.03858-.02051-.03239-.02539-.041-.0153-.02426-.02832-.04508-.01367-.02214-.03093-.04931-.01041-.0166-.03223-.05111-.013-.021-.03125-.0498-.00326-.005-.11914-.18847-.00716-.01172-.042-.06592-.00065-.001-.0306-.04866-.015-.02328-.02735-.043-.01595-.02522-.02767-.04379-.01725-.02685-.02637-.04151-.01758-.02718-.02636-.04166-.01823-.02849-.027-.042-.0166-.026-.02572-.0402-.02148-.03369-.02279-.03548-.01953-.0306-.02572-.03972-.02018-.03125-.02441-.03808-.01791-.02784-.02734-.04248-.0179-.0275-.02637-.041-.01791-.02734-.027-.042-.01726-.02653-.02767-.04281-.01171-.01807c-.05469-.08431-.1097-.16894-.16472-.25293l-.00032-.00081-.03223-.04915-.01335-.02035-.02962-.04541-.0153-.02344-.02767-.04183-.0179-.02766-.02507-.03793-.02148-.03288-.02148-.03271-.02377-.036-.02409-.03646-.0205-.03141-.02474-.03727-.02051-.03093-.02572-.03922-.01985-.02979-.02377-.03581-.02343-.03564-.02279-.03418-.02181-.033-.02376-.03581-.02214-.03336-.02344-.03483-.02474-.03711-.02018-.03044-.02311-.03467-.02474-.03727-.01725-.02588-.02735-.04085-.02246-.03353-.02376-.03548-.0905-.13477-.01725-.02555-.0306-.04557-.01009-.015-.03613-.05355-.0127-.01855-.03418-.05111-.01562-.02278-.02865-.04248-.02116-.03142-.026-.03808-.02018-.02963-.026-.03873-.01953-.02865-.028-.04134-.0192-.028-.02572-.03809-.02181-.03158-.02572-.03776-.02115-.03092-.02409-.03565-.02214-.03222-.02506-.03646-.02344-.03418-.01856-.02734-.02864-.04167-.01823-.02637-.02832-.04118-.01953-.02848-.02572-.0376-.02571-.03727-.02116-.0306-.02181-.03157-.02572-.03728-.00391-.00553-.04882-.0708-.08757-.12614-.01953-.02783-.02669-.03858-.02279-.033-.02539-.03613-.01888-.02734-.02865-.04069-.0205-.02979-.026-.03694-.02246-.03207-.02408-.03467-.02442-.03466-.02376-.034-.02116-.03011-.02734-.0389-.02149-.03076-.02441-.03467-.02344-.03337-.02246-.03206-.02669-.0376-.02214-.03125-.02311-.03271-.02572-.03646-.02311-.03272-.02376-.03336-.02344-.03321-.02539-.036-.02214-.03125-.04492-.063-.001-.00131-.03711-.05224-.02246-.03158-.03777-.05289-.02571-.036L214.847,66.055l-.02344-.03239-.02669-.03743-.01986-.02767-.02637-.037-.02506-.03467-.02409-.03352-.02311-.03223L214.654,65.786l-.02279-.03174-.02669-.03711-.02246-.03092-.02376-.03321-.026-.0358-.02214-.03093-.02767-.03792-.01823-.02523-.02962-.04085-.02148-.02979-.02539-.03483-.02312-.03206-.02474-.03385-.02636-.0363-.02181-.02995-.02637-.03629-.02181-.02995-.0306-.04183-.0179-.02458-.03028-.0415-.01855-.02539-.03386-.04639-.015-.02051-.03548-.04817-.02344-.03207-.03874-.0529-.01269-.01676-.03711-.05062-.01237-.01692-.03711-.05014-.01335-.01806-.03548-.04818-.01692-.02295-.03256-.04411-.01595-.02164-.03287-.04411-.01954-.02637-.029-.03939-.02018-.02685-.029-.0389-.02181-.02962-.02865-.03842-.0179-.02408-.03385-.04541-.0153-.02019-.03809-.0511-.00944-.01254-.03939-.05289-.012-.01612-.04-.05322-.00879-.012-.04-.05306-.01139-.01514-.0459-.0612-.00228-.00325-.04362-.05778-.00846-.01107c-.06673-.0887-.13412-.17757-.20118-.26611l-.00976-.013-.042-.05518-.00619-.00814-.04232-.05583-.01432-.01839-.03646-.04834-.01562-.02034-.03223-.042-.02116-.02784-.03092-.04036-.0166-.02181-.03581-.04688-.012-.01578-.041-.05339-.00944-.012-.03906-.051-.01367-.01774-.03777-.04948-.01269-.01611-.041-.05355-.00813-.01042-.04623-.05973-.00456-.006-.04589-.05941-.00554-.00749c-.12109-.15608-.24056-.30989-.3623-.46549l-.002-.00244-.04785-.061-.01009-.01269-.04329-.0555-.00423-.00537-.04818-.06136-.00391-.005-.0485-.06136-.00326-.0044-.04687-.05924-.00814-.01009-.04492-.05729-.00553-.00668-.0459-.0581-.00716-.00928-.0459-.05794-.00554-.00668-.04492-.0568-.00846-.01058q-.2085-.26294-.41862-.52376l-.00554-.00716c-.03418-.04248-.06673-.08252-.10091-.12517l-.00325-.00374-.04981-.06185-.00358-.00439-.04622-.05729-.01042-.0127-.04525-.05583-.00488-.006-.04622-.05729-.00814-.0096L210.79,60.737l-.00423-.00505-.04785-.05908-.00554-.00667q-.37255-.457-.75-.91016l-.0026-.00293-.10449-.12549-.00456-.00537-.05209-.06217h0l-.0524-.06234-.00326-.00407c-.25358-.30241-.50618-.60026-.763-.89974l-.00326-.00358a107.286,107.286,0,0,0-8.92513-9.22623,10.66664,10.66664,0,1,0-14.41862,15.723,85.33513,85.33513,0,0,1,3.55762,122.36963,10.66641,10.66641,0,0,0,7.64909,18.09944Zm-95.75684,25.29574a10.66828,10.66828,0,0,0,2.97819-20.91048,84.62107,84.62107,0,0,1-29.984-15.7837A10.66658,10.66658,0,0,0,60.6097,210.68636,106.38907,106.38907,0,0,0,98.11491,230.4235a10.6691,10.6691,0,0,0,2.988.42839Z" style="fill:#ffbe00"/><path d="M128,64a29.59839,29.59839,0,0,0-28.0795,20.23856L85.33333,128,72.59766,111.80193a17.53286,17.53286,0,0,0-24.79523,0l0,0a17.5329,17.5329,0,0,0-3.28427,20.23856l13.5675,26.8999a21.33332,21.33332,0,0,0,19.0477,11.72626H178.86666a21.33332,21.33332,0,0,0,19.0477-11.72626l13.5675-26.8999a17.5329,17.5329,0,0,0-3.28427-20.23856l0,0a17.53286,17.53286,0,0,0-24.79523,0L170.66667,128,156.07952,84.23856A29.59839,29.59839,0,0,0,128,64Z" style="fill:gold"/><path d="M128,64l-.06836.00016h-.00976l-.06543.00017-.01172.00016-.06576.00032h-.00846l-.06478.00065h-.00553l-.06739.00082-.00976.00016-.06511.00082-.012.00016-.06673.00114h-.00326l-.06608.0013-.00846.00016-.06543.0013-.01172.00033-.06478.00163-.01107.00016-.06673.00179h-.0026l-.06543.002-.01075.00033-.06445.002-.012.00049-.06543.00212-.00879.00032-.06315.00228-.00651.00033-.06478.00244-.0127.00049-.06282.0026-.014.00065-.0638.00277-.00781.00032-.06413.00293-.00651.00033-.06511.00325-.013.00065-.06282.0031-.013.00081-.06478.00342-.00489.00032-.06347.00359-.00977.00048-.06282.00375-.01563.00081-.0612.00374-.013.001-.06022.00374-.00749.00049-.06347.00423-.013.00082-.06185.00423-.0153.00114-.06185.00439-.01074.00082-.05827.00423-.01042.00081-.06282.00472-.014.00114-.0612.00489-.015.00113-.06283.00505-.00781.00065-.05957.005-.012.001-.06283.00537-.0127.00114-.06282.0057-.01172.001-.13216.0122-.01107.00114-.06315.006-.01237.00113-.06315.00635-.01074.001-.06088.00618-.00683.00066-.06478.00683-.01139.00114-.06315.00667-.01172.00131-.06446.007-.00683.00082-.06185.00683-.00879.001-.06348.00716-.012.00147-.0625.00732-.013.00147-.06022.00716-.01009.0013-.05925.00716-.01237.00147-.06087.00748-.015.002-.06218.00781-.00879.00114-.06185.008-.00651.00082-.06413.00846-.01106.00147-.0625.0083-.0127.00179-.0638.00862-.00619.001-.06119.00846-.00977.0013-.06185.00879-.01367.002-.06152.00879-.01237.00195-.06348.00928-.00488.00065-.06055.00911-.01172.00179-.06152.00928-.01367.002-.06022.00944-.01433.00212-.057.00895-.00814.0013-.06055.00961-.0153.00244-.06022.00976-.013.00212-.06185.01009-.00944.00163-.06022.01009-.00684.00114-.06185.01041-.01432.00245-.06087.01058-.01107.00179-.06413.01123-.00488.001-.06185.01091-.00944.00163-.06152.01106-.01367.00244-.06153.01124-.00911.00162c-.0433.008-.08854.01628-.13151.02442l-.00912.00179-.06185.01172-.013.00244-.06185.01188-.00813.00163-.06185.012-.00554.00114-.0638.01253-.01074.00212-.0612.01221-.01269.0026-.06315.01286-.002.00032-.06543.01335-.00618.0013-.06446.01335-.00878.00195-.06348.01335-.00912.00179-.13085.028-.00847.002-.06282.01367-.01042.00228-.06315.014-.00684.00147-.06315.01416-.00391.00081-.06412.01433-.00912.00211-.06315.01449-.00879.00195-.06445.015-.00391.00082-.06478.01513-.00455.001-.06315.015-.01075.0026-.06152.01465-.01042.00244-.06315.0153-.00325.00081-.06283.0153-.00716.00179-.06315.01546-.00944.00228-.06348.01579-.00586.00163-.0651.01627-.0013.00049-.06543.0166-.00716.00179-.06413.01644-.00684.00179-.06575.01709-.0013.00017-.06706.01757-.00261.00082-.0651.01709-.00716.00195-.06413.01725-.00553.00147c-.04525.012-.08887.02392-.13379.03613l-.00391.00114-.06608.01823-.00391.001-.06705.01871-.002.00049-.13411.03776-.00553.00163-.06543.01872-.00358.001-.06674.01921-.00162.00049c-.04493.013-.09017.0262-.13477.03939l-.00456.0013-.06478.0192-.00553.00179c-.06706.01986-.13476.04021-.2015.06071l-.0039.00114-.06641.02035-.0013.00049-.13672.04248h0l-.06608.02083-.00488.00163c-.068.02132-.13477.0428-.20248.06478l-.001.00016-.06641.02181-.00326.001q-.10155.03319-.2028.067l-.00032.00017a29.63389,29.63389,0,0,0-10.15918,5.853q-.2085.18433-.40495.37663-.22119.18872-.43522.39209a29.53074,29.53074,0,0,0-6.58919,9.29264V81.445q-.0464.103-.09212.20687l-.00163.0039-.02214.05029-.001.0018q-.04542.10375-.09017.208l-.001.00293c-.02962.069-.05924.13819-.08822.20752l-.00162.00375-.02084.05-.00228.00489-.06445.15576v.00065l-.01953.04687-.00488.01237-.01856.04558-.00293.00748c-.01985.04834-.03939.097-.05859.14551l-.00554.01367-.01757.04362-.00521.01367c-.01888.04769-.03776.09522-.05632.14307l-.00455.01156-.01661.04264-.00683.01725-.016.04134-.00651.01661-.05306.13867-.00586.01562-.01563.04134-.00781.02067-.01465.03923-.00716.01921-.026.06982-.00977.02588-.01237.03418-.01074.02864-.01237.034-.01074.029-.01172.03239-.02051.056-.01106.03125-.0114.03158-.01172.03255-.01074.03-.01139.03255-.0127.035-.01627.04671-.01368.03907-.00976.0275-.0127.0363-.00976.028-.01367.03972-.00814.0236-.02116.06152-.00619.01807-.01562.0459-.00781.02311-.015.04476-.00683.02018-.02149.064h0L99.294,86.11882h0c-.39909,1.19661-.96875,2.90608-1.65267,4.95735h0c-.6836,2.05143-1.48145,4.44466-2.33627,7.00879h0c-.85449,2.56413-1.76627,5.29915-2.67806,8.03434h0c-.91178,2.735-1.82324,5.47022-2.67806,8.03435h0c-.85481,2.56412-1.65267,4.95735-2.33626,7.00862h0c-.68392,2.05127-1.25358,3.76074-1.65234,4.95736h0c-.36166,1.08447-.58269,1.74756-.6211,1.86247v.00016l-.00325.00976h0l-.00261.008h0l-.05143-.06559-.0013-.00163-.016-.02-.00293-.00391-.00716-.00895-.01823-.02311-.00261-.00342-.0039-.00521-.00326-.0039-.001-.00147-.00326-.0039c-.43424-.55241-1.99544-2.53793-1.99544-2.53793a10.66669,10.66669,0,0,0-16.77051,13.18571l2.10645,2.679a21.33341,21.33341,0,0,0,37.00911-6.43945l14.58757-43.76172a8.15944,8.15944,0,0,1,2.13964-3.3711c.03972-.03792.07943-.07617.11849-.11458.04167-.03532.083-.07129.12435-.10726A8.26884,8.26884,0,0,1,128,85.33333,10.66667,10.66667,0,1,0,128,64Z" style="fill:#ffbe00"/><circle cx="181.33333" cy="117.33333" r="10.66667" style="fill:#ffbe00"/><rect x="85.33333" y="170.66667" width="106.66667" height="21.33333" rx="10.66666" ry="10.66666" style="fill:#fffc74"/><rect x="80.91506" y="312.99356" width="30.16989" height="78.01287" rx="15.08493" ry="15.08493" transform="translate(-220.78384 170.98066) rotate(-45)" style="fill:#5e7599"/><rect x="358.24839" y="35.66023" width="30.16989" height="78.01287" rx="15.08493" ry="15.08493" transform="translate(56.5495 285.85589) rotate(-45)" style="fill:#5e7599"/><rect x="432.91506" y="125.41184" width="30.16989" height="47.84298" rx="15.08493" ry="15.08493" transform="translate(25.62155 360.52256) rotate(-45)" style="fill:#33527d"/><rect x="155.58172" y="402.74517" width="30.16989" height="47.84298" rx="15.08493" ry="15.08493" transform="translate(-251.71178 245.64733) rotate(-45)" style="fill:#33527d"/><rect x="384" y="448" width="85.33333" height="42.66667" rx="21.33331" ry="21.33331" style="fill:#ffa300"/></g></svg>