<?xml version="1.0" encoding="utf-8"?>
<!-- Generator: Adobe Illustrator 24.3.0, SVG Export Plug-In . SVG Version: 6.00 Build 0)  -->
<svg version="1.1" id="Layer_1" xmlns="http://www.w3.org/2000/svg" xmlns:xlink="http://www.w3.org/1999/xlink" x="0px" y="0px"
	 viewBox="0 0 80 80" enable-background="new 0 0 80 80" xml:space="preserve" width="25px" height="25px">
<path fill="#667BBC" d="M37.723,52.902l0.25-3.875l-4.375-0.25l-1.5-4.125l2.875-3.25l-2.125-2.375l-4.5,3.125l-3.375-1.625
	l-0.375-4.75l-3.5-0.625l-0.375,5.625l-4,1.25l-2.875-2.875l-1.875,2.125l2,4.125l-2,3.875l-3.75-0.125l-0.625,3.75l4,0.5l2.75,3.25
	l-3.625,3.25l2.75,3.625l3.5-3.125l4.25,0.875l-0.125,4.875l3.5-1l0.375-3.75l4.25-1l2.75,2.75l2.875-2.75l-2.875-4l1.25-3.375
	L37.723,52.902z M22.973,56.027c-2.555,0-4.625-2.071-4.625-4.625s2.07-4.625,4.625-4.625s4.625,2.071,4.625,4.625
	S25.528,56.027,22.973,56.027z"/>
<path fill="#FFCC43" d="M70.801,33.204l0.277-4.303l-4.858-0.278l-1.666-4.581l3.193-3.609l-2.36-2.637l-4.996,3.47l-3.749-1.805
	l-0.416-5.275l-3.887-0.694l-0.416,6.246l-4.441,1.389l-3.193-3.193l-2.082,2.36l2.221,4.581l-2.221,4.303l-4.164-0.138
	l-0.694,4.164l4.441,0.555l3.055,3.609l-4.026,3.609l3.055,4.025l3.886-3.47l4.721,0.972l-0.14,5.414l3.887-1.111l0.416-4.164
	l4.721-1.11l3.053,3.054l3.193-3.054l-3.193-4.442l1.389-3.748L70.801,33.204z M54.421,36.674c-2.837,0-5.136-2.3-5.136-5.136
	c0-2.836,2.299-5.136,5.136-5.136s5.137,2.3,5.137,5.136C59.558,34.374,57.258,36.674,54.421,36.674z"/>
<path fill="#131731" d="M33.669,45.387l3.725-3.723l-5.005-5.005l-3.863,3.867c-0.616-0.308-1.264-0.565-1.936-0.767v-5.501h-7.075
	v5.5c-0.673,0.202-1.32,0.46-1.937,0.767l-3.868-3.864l-5.001,5.003l3.725,3.722c-0.371,0.657-0.683,1.352-0.924,2.079H6.308v7.075
	h5.108c0.23,0.763,0.534,1.496,0.906,2.187l-3.611,3.611l5.001,5.005l3.662-3.661c0.679,0.353,1.395,0.643,2.141,0.865v5.196h7.075
	v-5.196c0.746-0.222,1.462-0.513,2.141-0.865l3.658,3.66l5.005-5.003l-3.613-3.613c0.373-0.693,0.677-1.425,0.905-2.188h5.111
	v-7.075h-5.203C34.353,46.738,34.041,46.044,33.669,45.387z M36.794,51.54h-4.53l-0.229,1.224c-0.227,1.222-0.703,2.355-1.385,3.342
	l-0.706,1.028l3.205,3.207l-0.76,0.758l-3.218-3.218l-1.02,0.671c-0.994,0.65-2.123,1.114-3.342,1.346l-1.22,0.232v4.615h-1.076
	l0.002-4.617l-1.222-0.23c-1.22-0.232-2.349-0.696-3.338-1.346l-1.024-0.671l-3.221,3.22l-0.76-0.76l3.208-3.207l-0.707-1.028
	c-0.68-0.99-1.156-2.121-1.385-3.342l-0.232-1.224H9.309v-1.074h4.547l0.26-1.18c0.26-1.179,0.758-2.272,1.449-3.235l0.741-1.036
	l-3.354-3.351l0.762-0.76l3.39,3.389l1.013-0.635c0.958-0.599,2.027-1.032,3.18-1.251l1.218-0.232v-4.916h1.076v4.916l1.22,0.232
	c1.149,0.22,2.222,0.652,3.175,1.251L29,44.296l3.391-3.391l0.758,0.758l-3.354,3.355l0.745,1.034
	c0.69,0.964,1.188,2.056,1.447,3.233l0.256,1.18h4.551V51.54z M23.052,45.126c-3.37,0-6.103,2.731-6.103,6.104
	c0,3.372,2.733,6.101,6.103,6.103c3.37-0.003,6.101-2.732,6.101-6.103C29.153,47.858,26.422,45.126,23.052,45.126z M23.052,54.332
	c-1.713-0.003-3.1-1.389-3.104-3.102c0.005-1.713,1.392-3.1,3.104-3.104c1.714,0.004,3.1,1.391,3.103,3.104
	C26.152,52.943,24.766,54.329,23.052,54.332z M73.499,34.933v-7.699h-5.938c-0.298-0.937-0.698-1.83-1.186-2.666l4.257-4.257
	l-5.446-5.445l-4.412,4.414c-0.794-0.407-1.634-0.742-2.51-0.993V12h-7.7v6.288c-0.877,0.25-1.715,0.584-2.507,0.991l-4.413-4.413
	l-5.446,5.445l4.256,4.258c-0.487,0.835-0.888,1.728-1.187,2.666h-5.935v7.699h5.835c0.281,0.982,0.671,1.918,1.158,2.796
	l-4.127,4.125l5.446,5.447l4.181-4.18c0.861,0.461,1.779,0.833,2.739,1.106v5.94h7.7v-5.939c0.962-0.273,1.88-0.646,2.743-1.107
	l4.177,4.178l5.446-5.445l-4.126-4.124c0.488-0.879,0.878-1.816,1.158-2.797H73.499z M66.389,41.855l-1.203,1.204l-3.743-3.744
	l-1.02,0.669c-1.169,0.765-2.502,1.313-3.938,1.587l-1.22,0.231v5.364h-1.699v-5.364l-1.221-0.231
	c-1.437-0.273-2.769-0.822-3.937-1.587l-1.022-0.669l-3.742,3.744l-1.203-1.204l3.725-3.724l-0.705-1.028
	c-0.801-1.17-1.362-2.504-1.634-3.945l-0.23-1.224h-5.265v-1.701l5.294,0.002l0.256-1.18c0.306-1.392,0.895-2.68,1.71-3.815
	l0.741-1.034l-3.892-3.894l1.201-1.203l3.945,3.947l1.013-0.638c1.127-0.706,2.388-1.216,3.745-1.473l1.221-0.233V15h1.699v5.712
	l1.22,0.233c1.356,0.256,2.619,0.767,3.743,1.475l1.013,0.638l3.945-3.947l1.201,1.201l-3.893,3.894l0.745,1.036
	c0.815,1.134,1.402,2.422,1.708,3.813l0.256,1.18h5.294v1.699h-5.264l-0.229,1.224c-0.271,1.441-0.832,2.775-1.635,3.943
	l-0.708,1.027L66.389,41.855z M54.416,24.536c-3.762,0-6.81,3.046-6.812,6.809c0.002,3.761,3.05,6.808,6.812,6.81
	c3.761-0.002,6.808-3.048,6.809-6.81C61.223,27.584,58.176,24.536,54.416,24.536z M54.416,35.153
	c-2.104-0.002-3.808-1.705-3.81-3.808c0.002-2.102,1.705-3.806,3.81-3.81c2.102,0.004,3.806,1.705,3.808,3.81
	C58.221,33.448,56.518,35.151,54.416,35.153z"/>
</svg>
