<?xml version="1.0" encoding="UTF-8"?>
<!DOCTYPE svg PUBLIC "-//W3C//DTD SVG 1.1//EN" "http://www.w3.org/Graphics/SVG/1.1/DTD/svg11.dtd">
<!-- Creator: CorelDRAW -->
<svg xmlns="http://www.w3.org/2000/svg" xml:space="preserve" width="25px" height="25px" style="shape-rendering:geometricPrecision; text-rendering:geometricPrecision; image-rendering:optimizeQuality; fill-rule:evenodd; clip-rule:evenodd"
viewBox="0 0 2048 2048"
 xmlns:xlink="http://www.w3.org/1999/xlink">
 <defs>
  <style type="text/css">
   <![CDATA[
    .fil2 {fill:none}
    .fil12 {fill:#07588E}
    .fil17 {fill:#212121}
    .fil9 {fill:#263238}
    .fil3 {fill:#37474F}
    .fil15 {fill:#777070}
    .fil1 {fill:#AFB42B}
    .fil0 {fill:#C0CA33}
    .fil16 {fill:#C84213}
    .fil11 {fill:#CBAFA3}
    .fil10 {fill:#DDBDAF}
    .fil18 {fill:#E6E6E5}
    .fil7 {fill:#FFDDCC}
    .fil19 {fill:#FFFFFE}
    .fil8 {fill:#0277BD;fill-rule:nonzero}
    .fil13 {fill:#1583C8;fill-rule:nonzero}
    .fil6 {fill:#37474F;fill-rule:nonzero}
    .fil14 {fill:#C48E62;fill-rule:nonzero}
    .fil5 {fill:#E6E6E5;fill-rule:nonzero}
    .fil4 {fill:#FFFFFE;fill-rule:nonzero}
   ]]>
  </style>
   <clipPath id="id0">
    <path d="M1024 0c565.538,0 1024,458.462 1024,1024 0,565.538 -458.462,1024 -1024,1024 -565.538,0 -1024,-458.462 -1024,-1024 0,-565.538 458.462,-1024 1024,-1024z"/>
   </clipPath>
 </defs>
 <g id="Layer_x0020_1">
  <metadata id="CorelCorpID_0Corel-Layer"/>
  <path class="fil0" d="M1024 0c565.538,0 1024,458.462 1024,1024 0,565.538 -458.462,1024 -1024,1024 -565.538,0 -1024,-458.462 -1024,-1024 0,-565.538 458.462,-1024 1024,-1024z"/>
  <g style="clip-path:url(#id0)">
   <g id="_385677952">
    <g>
     <polygon id="_3303924961" class="fil1" points="1364.32,594.005 2500.2,1729.89 2500.09,1729.89 1364.21,594.005 "/>
     <polygon id="_330392904" class="fil1" points="1535.93,645.696 2671.81,1781.58 2657.99,1916.35 1522.11,780.471 "/>
     <polygon id="_330397800" class="fil1" points="981.983,643.848 2117.86,1779.73 2117.85,1779.86 2117.84,1780 2117.83,1780.14 2117.82,1780.27 2117.81,1780.41 2117.81,1780.54 2117.8,1780.68 2117.8,1780.82 981.917,644.933 981.92,644.797 981.924,644.66 981.931,644.525 981.94,644.389 981.949,644.253 981.96,644.118 981.972,643.982 "/>
     <polygon id="_330397944" class="fil1" points="981.917,644.933 2117.8,1780.82 2117.84,1782.05 2118,1783.32 2118.3,1784.64 2118.75,1786.02 2119.35,1787.47 2120.13,1789.02 2121.1,1790.67 2122.27,1792.44 986.388,656.554 985.22,654.784 984.251,653.134 983.47,651.589 982.865,650.135 982.419,648.758 982.122,647.441 981.959,646.171 "/>
     <polygon id="_330398016" class="fil1" points="986.388,656.554 2122.27,1792.44 2123.46,1794.18 2124.61,1795.95 2125.71,1797.73 2126.76,1799.52 2127.78,1801.34 2128.75,1803.17 2129.68,1805.03 2130.57,1806.9 2131.43,1808.79 2132.26,1810.69 2133.05,1812.62 2133.8,1814.56 2134.53,1816.53 2135.23,1818.51 2135.91,1820.51 2136.56,1822.53 2137.18,1824.57 2137.79,1826.63 2138.37,1828.71 2138.93,1830.81 2139.48,1832.93 2140.01,1835.06 2140.53,1837.22 2141.03,1839.4 2141.53,1841.6 2142.01,1843.82 2142.49,1846.06 2142.96,1848.33 2143.43,1850.61 2143.89,1852.91 2144.36,1855.24 2144.82,1857.58 1008.94,721.699 1008.48,719.353 1008.01,717.029 1007.55,714.725 1007.08,712.443 1006.61,710.181 1006.13,707.94 1005.65,705.72 1005.15,703.521 1004.65,701.341 1004.13,699.182 1003.6,697.043 1003.05,694.926 1002.49,692.827 1001.9,690.747 1001.3,688.688 1000.68,686.647 1000.03,684.628 999.353,682.626 998.652,680.644 997.924,678.681 997.165,676.736 996.375,674.81 995.552,672.903 994.693,671.014 993.799,669.145 992.867,667.291 991.895,665.458 990.883,663.642 989.827,661.843 988.728,660.063 987.581,658.3 "/>
     <polygon id="_330398832" class="fil1" points="777.353,498.514 1913.23,1634.4 1914.77,1636.08 1916.13,1637.91 1917.32,1639.86 1918.32,1641.94 1919.12,1644.12 1919.71,1646.39 1920.07,1648.74 1920.19,1651.17 784.307,515.287 784.184,512.862 783.825,510.507 783.239,508.233 782.441,506.054 781.44,503.98 780.251,502.024 778.884,500.198 "/>
     <polygon id="_330398904" class="fil1" points="1007.88,778.11 2143.76,1913.99 2143.68,1917.08 2143.85,1920.12 2144.27,1923.1 2144.93,1926.04 2145.79,1928.93 2146.86,1931.79 2148.11,1934.62 2149.53,1937.43 2151.1,1940.21 2152.8,1942.98 2154.63,1945.74 2156.56,1948.5 2158.57,1951.26 2160.67,1954.02 2162.81,1956.8 2165,1959.59 2167.22,1962.41 2169.45,1965.25 2171.67,1968.12 2173.87,1971.03 2176.03,1973.98 2178.14,1976.98 2180.19,1980.04 2182.14,1983.15 2184,1986.32 2185.74,1989.57 2187.36,1992.89 2188.82,1996.28 2190.12,1999.76 2191.25,2003.34 2192.17,2007 2192.89,2010.77 1057.01,874.885 1056.29,871.119 1055.36,867.453 1054.24,863.883 1052.94,860.402 1051.47,857.004 1049.86,853.686 1048.12,850.442 1046.26,847.267 1044.3,844.155 1042.26,841.1 1040.15,838.1 1037.99,835.146 1035.79,832.236 1033.57,829.364 1031.34,826.523 1029.12,823.709 1026.93,820.916 1024.78,818.142 1022.69,815.377 1020.67,812.619 1018.74,809.862 1016.92,807.101 1015.21,804.331 1013.65,801.545 1012.23,798.74 1010.98,795.91 1009.91,793.049 1009.04,790.153 1008.39,787.216 1007.97,784.234 1007.79,781.199 "/>
     <polygon id="_330398712" class="fil1" points="1057.01,874.885 2192.89,2010.77 2193.03,2013.72 2192.68,2016.27 2191.87,2018.46 2190.66,2020.31 2189.09,2021.85 2187.2,2023.12 2185.04,2024.15 2182.65,2024.97 2180.07,2025.61 2177.35,2026.11 2174.54,2026.49 2171.67,2026.78 2168.79,2027.03 2165.94,2027.25 2163.18,2027.48 2160.53,2027.76 1024.65,891.881 1027.29,891.602 1030.06,891.368 1032.91,891.144 1035.79,890.9 1038.66,890.605 1041.47,890.226 1044.19,889.732 1046.77,889.091 1049.16,888.271 1051.32,887.242 1053.21,885.972 1054.78,884.428 1055.99,882.578 1056.79,880.392 1057.15,877.838 "/>
     <polygon id="_330399072" class="fil1" points="1024.65,891.881 2160.53,2027.76 2159.99,2028.41 2159.5,2029.14 2159.07,2029.97 2158.68,2030.88 2158.33,2031.87 2158.02,2032.94 2157.74,2034.08 2157.48,2035.29 2157.23,2036.56 2157.01,2037.89 2156.78,2039.27 2156.56,2040.71 2156.34,2042.19 2156.1,2043.72 2155.85,2045.28 2155.57,2046.88 1019.69,910.998 1019.96,909.399 1020.22,907.834 1020.45,906.308 1020.68,904.824 1020.9,903.388 1021.12,902.003 1021.35,900.673 1021.59,899.403 1021.85,898.196 1022.14,897.057 1022.45,895.991 1022.8,895 1023.18,894.089 1023.62,893.262 1024.11,892.525 "/>
     <polygon id="_330398928" class="fil1" points="1017.8,937.905 2153.68,2073.79 2154.96,2076 2156.01,2078.11 2156.81,2080.14 2157.37,2082.08 2157.68,2083.95 2157.73,2085.75 2157.51,2087.48 2157.02,2089.16 2156.25,2090.78 2155.19,2092.36 2153.84,2093.9 2152.19,2095.4 2150.23,2096.87 2147.96,2098.32 2145.38,2099.75 2142.46,2101.17 1006.58,965.285 1009.49,963.865 1012.08,962.434 1014.35,960.986 1016.31,959.514 1017.96,958.014 1019.31,956.478 1020.36,954.901 1021.14,953.278 1021.63,951.602 1021.85,949.868 1021.8,948.069 1021.49,946.2 1020.93,944.255 1020.13,942.227 1019.08,940.113 "/>
     <polygon id="_330398880" class="fil1" points="1020.98,912.261 2156.86,2048.14 2158.15,2049.64 2159.4,2051.35 2160.56,2053.21 2161.59,2055.2 2162.47,2057.26 2163.14,2059.37 2163.57,2061.49 2163.72,2063.56 2163.56,2065.57 2163.03,2067.45 2162.11,2069.19 2160.76,2070.72 2158.92,2072.03 2156.58,2073.07 2153.68,2073.79 1017.8,937.905 1020.7,937.183 1023.04,936.148 1024.87,934.842 1026.23,933.303 1027.15,931.57 1027.68,929.683 1027.84,927.681 1027.69,925.603 1027.26,923.489 1026.58,921.38 1025.71,919.313 1024.67,917.327 1023.51,915.464 1022.27,913.762 "/>
     <polygon id="_330398808" class="fil1" points="1006.58,965.285 2142.46,2101.17 2142.69,2102.08 2142.9,2102.98 2143.1,2103.89 2143.28,2104.79 2143.46,2105.69 2143.62,2106.59 2143.78,2107.49 2143.93,2108.39 1008.05,972.511 1007.9,971.612 1007.74,970.711 1007.58,969.81 1007.4,968.907 1007.21,968.004 1007.02,967.099 1006.81,966.193 "/>
     <polygon id="_330398592" class="fil1" points="1005.06,1012.36 2140.94,2148.24 2140.15,2150.34 2139.3,2152.32 2138.39,2154.18 2137.41,2155.94 2136.37,2157.6 2135.27,2159.16 2134.11,2160.62 2132.88,2161.98 2131.6,2163.26 2130.25,2164.45 2128.84,2165.56 2127.38,2166.59 2125.85,2167.54 2124.27,2168.42 2122.62,2169.23 2120.92,2169.98 2119.15,2170.67 2117.33,2171.3 2115.45,2171.87 2113.52,2172.39 2111.52,2172.87 2109.47,2173.3 2107.36,2173.69 2105.2,2174.05 2102.98,2174.37 2100.7,2174.66 2098.37,2174.93 2095.98,2175.17 2093.54,2175.4 2091.05,2175.61 2088.49,2175.8 2085.89,2175.99 950.007,1040.11 952.613,1039.92 955.164,1039.72 957.661,1039.51 960.102,1039.29 962.491,1039.05 964.822,1038.78 967.098,1038.49 969.318,1038.16 971.483,1037.81 973.592,1037.42 975.642,1036.99 977.636,1036.51 979.573,1035.99 981.452,1035.41 983.273,1034.78 985.035,1034.1 986.74,1033.35 988.385,1032.54 989.97,1031.66 991.497,1030.7 992.963,1029.68 994.37,1028.57 995.716,1027.38 997.001,1026.1 998.226,1024.73 999.388,1023.27 1000.49,1021.72 1001.53,1020.06 1002.51,1018.3 1003.42,1016.43 1004.27,1014.46 "/>
     <polygon id="_330398616" class="fil1" points="952.413,1356.29 2088.29,2492.17 2088.46,2493.73 2088.62,2495.3 2088.78,2496.86 2088.93,2498.43 2089.08,2500 2089.21,2501.57 2089.35,2503.14 2089.47,2504.72 953.59,1368.84 953.466,1367.26 953.333,1365.68 953.195,1364.11 953.05,1362.54 952.899,1360.98 952.743,1359.41 952.58,1357.85 "/>
     <polygon id="_330398640" class="fil1" points="1012.63,976.217 2148.52,2112.1 2149.5,2113.18 2150.42,2114.31 2151.27,2115.49 2152.04,2116.72 2152.73,2118 2153.34,2119.32 2153.86,2120.68 2154.3,2122.07 2154.65,2123.5 2154.89,2124.96 2155.05,2126.45 2155.1,2127.96 1019.22,992.074 1019.17,990.563 1019.01,989.076 1018.76,987.617 1018.42,986.189 1017.98,984.794 1017.46,983.436 1016.85,982.117 1016.16,980.84 1015.39,979.609 1014.54,978.426 1013.62,977.294 "/>
     <polygon id="_330399432" class="fil1" points="950.007,1040.11 2085.89,2175.99 2083.14,2176.25 2080.45,2176.63 2077.82,2177.13 2075.25,2177.75 2072.74,2178.49 2070.29,2179.34 2067.89,2180.3 2065.55,2181.37 2063.26,2182.55 2061.02,2183.83 2058.84,2185.21 2056.72,2186.69 2054.64,2188.26 2052.61,2189.93 2050.63,2191.7 2048.7,2193.55 2046.82,2195.49 2044.99,2197.51 2043.2,2199.62 2041.45,2201.8 2039.75,2204.07 2038.09,2206.4 2036.48,2208.81 2034.9,2211.29 2033.37,2213.84 2031.88,2216.45 2030.42,2219.13 2029,2221.87 2027.62,2224.66 2026.27,2227.51 2024.96,2230.42 2023.69,2233.37 887.807,1097.49 889.084,1094.53 890.394,1091.63 891.74,1088.78 893.121,1085.98 894.539,1083.25 895.996,1080.57 897.49,1077.96 899.023,1075.41 900.597,1072.93 902.213,1070.52 903.871,1068.18 905.571,1065.92 907.316,1063.73 909.106,1061.63 910.94,1059.61 912.823,1057.67 914.751,1055.82 916.73,1054.05 918.757,1052.38 920.834,1050.81 922.963,1049.33 925.143,1047.94 927.376,1046.66 929.664,1045.49 932.006,1044.42 934.404,1043.46 936.858,1042.61 939.369,1041.87 941.939,1041.25 944.568,1040.75 947.258,1040.37 "/>
     <polygon id="_330399168" class="fil1" points="968.131,569.513 2104.01,1705.4 2104.33,1705.74 2104.65,1706.09 2104.96,1706.44 2105.27,1706.79 969.391,570.903 969.08,570.553 968.767,570.205 968.45,569.858 "/>
     <polygon id="_330399720" class="fil1" points="1530.87,626.463 2666.75,1762.35 2667.98,1763.98 2669.06,1765.71 2669.99,1767.52 2670.77,1769.4 2671.38,1771.34 2671.82,1773.33 2672.09,1775.36 2672.18,1777.42 2672.09,1779.5 2671.81,1781.58 1535.93,645.696 1536.21,643.615 1536.3,641.54 1536.21,639.481 1535.94,637.45 1535.5,635.457 1534.89,633.514 1534.11,631.633 1533.18,629.823 1532.1,628.097 "/>
     <polygon id="_330399240" class="fil1" points="969.391,570.903 2105.27,1706.79 2106.09,1707.76 970.207,571.876 "/>
     <polygon id="_330399192" class="fil1" points="1577.89,792.308 2713.77,1928.19 2715.12,1929.83 2716.32,1931.59 2717.37,1933.45 2718.24,1935.41 2718.94,1937.45 2719.45,1939.56 2719.77,1941.73 2719.88,1943.95 1584,808.064 1583.89,805.844 1583.57,803.675 1583.06,801.565 1582.36,799.528 1581.49,797.572 1580.44,795.709 1579.24,793.951 "/>
     <polygon id="_330399528" class="fil1" points="1584,808.064 2719.88,1943.95 2719.88,1944.13 1584,808.249 "/>
     <polygon id="_330399096" class="fil1" points="1584,808.249 2719.88,1944.13 2719.88,1944.42 2719.87,1944.71 2719.86,1945 2719.85,1945.29 2719.84,1945.58 2719.82,1945.87 2719.79,1946.16 2719.76,1946.45 1583.88,810.566 1583.91,810.275 1583.93,809.984 1583.95,809.694 1583.97,809.404 1583.98,809.114 1583.99,808.825 1584,808.537 "/>
     <polygon id="_330399144" class="fil1" points="1583.88,810.566 2719.76,1946.45 2719.72,1946.67 2719.69,1946.89 2719.67,1947.11 2719.64,1947.33 2719.62,1947.55 2719.59,1947.77 2719.56,1948 2719.52,1948.22 1583.64,812.334 1583.68,812.114 1583.71,811.892 1583.74,811.671 1583.76,811.45 1583.79,811.23 1583.81,811.009 1583.84,810.787 "/>
     <polygon id="_330365496" class="fil1" points="1286.85,1407.19 2422.73,2543.07 2423.15,2543.65 2423.43,2544.32 1287.55,1408.44 1287.26,1407.77 "/>
     <polygon id="_330365640" class="fil1" points="1072.72,1479.37 2208.6,2615.25 2209.9,2619.03 1074.02,1483.14 "/>
     <polygon id="_330365520" class="fil1" points="1074.02,1483.14 2209.9,2619.03 2209.96,2619.25 2210,2619.48 2210.03,2619.71 2210.04,2619.93 2210.03,2620.15 2210.02,2620.37 2209.99,2620.59 2209.96,2620.81 1074.08,1484.93 1074.11,1484.71 1074.14,1484.49 1074.15,1484.27 1074.16,1484.05 1074.14,1483.82 1074.12,1483.6 1074.08,1483.37 "/>
     <polygon id="_330365664" class="fil1" points="929.083,1261.37 2064.96,2397.25 2065.54,2398.71 2066.11,2400.18 2066.68,2401.65 2067.24,2403.12 2067.8,2404.6 2068.34,2406.08 2068.89,2407.57 2069.42,2409.06 2069.95,2410.56 2070.48,2412.06 2071,2413.57 2071.51,2415.08 2072.01,2416.59 2072.51,2418.11 2073.01,2419.64 2073.49,2421.17 937.611,1285.28 937.124,1283.76 936.631,1282.23 936.132,1280.71 935.626,1279.2 935.115,1277.69 934.596,1276.18 934.073,1274.68 933.543,1273.18 933.007,1271.69 932.463,1270.2 931.915,1268.72 931.361,1267.24 930.8,1265.76 930.233,1264.3 929.662,1262.83 "/>
     <polygon id="_330365832" class="fil1" points="1124.21,1462.37 2260.09,2598.25 2261.39,2602.03 1125.51,1466.15 "/>
     <polygon id="_330365952" class="fil1" points="616.036,1133.43 1751.92,2269.31 1750.8,2268.65 1749.76,2267.96 1748.78,2267.24 1747.88,2266.51 611.995,1130.63 612.9,1131.36 613.877,1132.07 614.924,1132.76 "/>
     <polygon id="_330365568" class="fil1" points="1125.51,1466.15 2261.39,2602.03 2261.45,2602.23 2261.49,2602.43 2261.52,2602.63 2261.53,2602.84 2261.54,2603.04 2261.53,2603.24 2261.52,2603.44 2261.49,2603.64 1125.61,1467.76 1125.64,1467.56 1125.65,1467.36 1125.66,1467.15 1125.65,1466.95 1125.64,1466.75 1125.61,1466.55 1125.57,1466.35 "/>
     <polygon id="_330366048" class="fil1" points="900.284,1101.36 2036.17,2237.24 2043.13,2337.32 907.253,1201.44 "/>
     <polygon id="_330365616" class="fil1" points="1175.71,1445.38 2311.59,2581.26 2312.89,2585.04 1177.01,1449.15 "/>
     <polygon id="_330365856" class="fil1" points="1177.01,1449.15 2312.89,2585.04 2312.94,2585.21 2312.98,2585.39 2313.01,2585.57 2313.03,2585.75 2313.04,2585.93 2313.05,2586.11 2313.04,2586.29 2313.03,2586.46 1177.15,1450.58 1177.16,1450.4 1177.17,1450.22 1177.16,1450.04 1177.15,1449.86 1177.13,1449.68 1177.1,1449.51 1177.06,1449.33 "/>
     <polygon id="_330366720" class="fil1" points="954.494,1412.1 2090.38,2547.98 2090.22,2553.44 2090.14,2558.76 2090.12,2563.95 2090.17,2569.01 2090.28,2573.95 2090.45,2578.78 2090.68,2583.5 2090.97,2588.12 2091.31,2592.64 2091.72,2597.08 2092.17,2601.44 2092.68,2605.72 2093.23,2609.93 2093.84,2614.08 2094.49,2618.18 2095.19,2622.23 2095.93,2626.23 2096.71,2630.2 2097.54,2634.14 2098.4,2638.05 2099.3,2641.95 2100.23,2645.84 2101.2,2649.73 2102.2,2653.61 2103.23,2657.51 2104.29,2661.42 2105.38,2665.36 2106.49,2669.32 2107.63,2673.32 2108.79,2677.36 2109.96,2681.45 2111.16,2685.59 975.281,1549.71 974.083,1545.56 972.904,1541.48 971.746,1537.44 970.609,1533.44 969.497,1529.48 968.41,1525.54 967.351,1521.63 966.32,1517.73 965.32,1513.84 964.352,1509.96 963.418,1506.07 962.519,1502.17 961.657,1498.26 960.833,1494.32 960.05,1490.35 959.309,1486.34 958.611,1482.3 957.959,1478.2 957.353,1474.05 956.796,1469.84 956.29,1465.56 955.835,1461.2 955.433,1456.76 955.086,1452.24 954.797,1447.62 954.565,1442.9 954.394,1438.07 954.284,1433.13 954.238,1428.07 954.256,1422.88 954.341,1417.56 "/>
     <polygon id="_330366672" class="fil1" points="1226.55,1427.07 2362.43,2562.95 2362.87,2563.56 2363.2,2564.27 1227.32,1428.38 1226.99,1427.68 "/>
     <polygon id="_330366816" class="fil1" points="1175,1444.13 2310.89,2580.01 2311.3,2580.59 2311.59,2581.26 1175.71,1445.38 1175.42,1444.71 "/>
     <polygon id="_330366264" class="fil1" points="1227.32,1428.38 2363.2,2564.27 2364.38,2568.04 1228.5,1432.16 "/>
     <polygon id="_330366504" class="fil1" points="1228.5,1432.16 2364.38,2568.04 2364.43,2568.19 2364.48,2568.35 2364.51,2568.51 2364.53,2568.66 2364.55,2568.82 2364.56,2568.98 2364.57,2569.13 2364.57,2569.29 1228.69,1433.41 1228.69,1433.25 1228.68,1433.1 1228.67,1432.94 1228.65,1432.78 1228.63,1432.63 1228.6,1432.47 1228.55,1432.31 "/>
     <polygon id="_330366432" class="fil1" points="907.253,1201.44 2043.13,2337.32 2042.2,2336.78 2041.25,2336.24 2040.3,2335.71 2039.34,2335.18 2038.36,2334.64 2037.38,2334.11 2036.39,2333.58 2035.4,2333.06 2034.39,2332.53 2033.37,2332.01 2032.35,2331.49 2031.32,2330.97 2030.28,2330.45 2029.23,2329.94 2028.18,2329.43 2027.12,2328.92 891.238,1193.03 892.299,1193.55 893.352,1194.06 894.399,1194.57 895.437,1195.09 896.468,1195.61 897.492,1196.13 898.507,1196.65 899.514,1197.18 900.512,1197.7 901.503,1198.23 902.483,1198.76 903.457,1199.29 904.419,1199.83 905.374,1200.36 906.318,1200.9 "/>
     <polygon id="_330366072" class="fil1" points="891.238,1193.03 2027.12,2328.92 2027.78,2329.77 891.898,1193.89 "/>
     <polygon id="_330366168" class="fil1" points="1287.55,1408.44 2423.43,2544.32 2424.73,2548.1 1288.85,1412.21 "/>
     <polygon id="_330366528" class="fil1" points="1288.85,1412.21 2424.73,2548.1 2424.77,2548.23 2424.8,2548.37 2424.82,2548.51 2424.84,2548.65 2424.84,2548.79 2424.85,2548.93 2424.85,2549.07 2424.85,2549.21 1288.97,1413.33 1288.97,1413.19 1288.97,1413.05 1288.96,1412.91 1288.95,1412.77 1288.94,1412.63 1288.92,1412.49 1288.89,1412.35 "/>
     <polygon id="_330366552" class="fil1" points="1336.57,1447.27 2472.45,2583.15 2415.17,2602.21 1279.29,1466.33 "/>
     <polygon id="_330367464" class="fil1" points="1345.3,1407.61 2481.18,2543.49 2482.78,2545.14 2484.22,2546.95 2485.49,2548.92 2486.57,2551.03 2487.45,2553.29 1351.56,1417.4 1350.68,1415.15 1349.6,1413.03 1348.34,1411.07 1346.9,1409.26 "/>
     <polygon id="_330367200" class="fil1" points="1019.22,992.074 2155.1,2127.96 2155.02,2129.57 2154.8,2131.15 2154.44,2132.7 2153.94,2134.21 2153.33,2135.69 2152.6,2137.11 2151.77,2138.49 2150.84,2139.83 2149.82,2141.1 2148.72,2142.32 2147.55,2143.48 2146.32,2144.58 2145.04,2145.6 2143.71,2146.56 2142.34,2147.44 2140.94,2148.24 1005.06,1012.36 1006.46,1011.56 1007.82,1010.68 1009.16,1009.72 1010.44,1008.7 1011.67,1007.6 1012.84,1006.44 1013.94,1005.22 1014.96,1003.94 1015.88,1002.61 1016.72,1001.23 1017.45,999.803 1018.06,998.33 1018.56,996.818 1018.92,995.268 1019.14,993.686 "/>
     <polygon id="_330367320" class="fil1" points="1024.06,1551.24 2159.94,2687.12 2157.61,2687.77 2155.27,2688.17 2152.93,2688.34 2150.62,2688.27 2148.35,2687.97 2146.13,2687.46 2143.98,2686.74 2141.92,2685.83 2139.95,2684.71 2138.09,2683.41 2136.36,2681.93 1000.48,1546.05 1002.21,1547.53 1004.07,1548.83 1006.03,1549.94 1008.1,1550.86 1010.25,1551.58 1012.47,1552.09 1014.74,1552.38 1017.05,1552.45 1019.39,1552.29 1021.73,1551.89 "/>
     <polygon id="_330367584" class="fil1" points="975.281,1549.71 2111.16,2685.59 2111.76,2687.59 975.875,1551.71 "/>
     <polygon id="_330366888" class="fil1" points="975.875,1551.71 2111.76,2687.59 2111.92,2688.17 2112.07,2688.74 2112.19,2689.32 2112.3,2689.91 2112.39,2690.5 2112.47,2691.1 2112.53,2691.7 2112.58,2692.32 976.702,1556.43 976.651,1555.82 976.588,1555.21 976.511,1554.62 976.42,1554.03 976.312,1553.44 976.185,1552.86 976.04,1552.28 "/>
     <polygon id="_330367368" class="fil1" points="976.702,1556.43 2112.58,2692.32 2060.49,2692.32 924.613,1556.43 "/>
     <polygon id="_330367392" class="fil1" points="924.613,1556.43 2060.49,2692.32 1849.44,2692.32 713.56,1556.43 "/>
     <polygon id="_330367488" class="fil1" points="713.56,1556.43 1849.44,2692.32 1650.91,2692.32 515.025,1556.43 "/>
     <polygon id="_330367536" class="fil1" points="515.025,1556.43 1650.91,2692.32 1600.24,2692.32 464.357,1556.43 "/>
     <polygon id="_330367032" class="fil1" points="891.898,1193.89 2027.78,2329.77 2028.91,2331.31 2030.03,2332.87 2031.15,2334.44 2032.25,2336.02 2033.35,2337.61 2034.44,2339.21 2035.52,2340.82 2036.59,2342.44 2037.65,2344.07 2038.7,2345.71 2039.75,2347.37 2040.78,2349.03 2041.81,2350.7 2042.82,2352.39 2043.83,2354.08 2044.83,2355.78 2045.81,2357.5 2046.79,2359.22 2047.76,2360.95 2048.72,2362.69 2049.67,2364.45 2050.61,2366.21 2051.54,2367.98 2052.46,2369.76 2053.37,2371.55 2054.28,2373.35 2055.17,2375.16 2056.05,2376.98 2056.92,2378.81 2057.78,2380.64 2058.64,2382.49 2059.48,2384.34 923.597,1248.46 922.755,1246.6 921.903,1244.76 921.041,1242.92 920.168,1241.1 919.287,1239.28 918.395,1237.47 917.493,1235.67 916.581,1233.88 915.661,1232.1 914.729,1230.33 913.789,1228.56 912.839,1226.81 911.879,1225.07 910.911,1223.34 909.931,1221.61 908.944,1219.9 907.947,1218.2 906.94,1216.5 905.924,1214.82 904.899,1213.15 903.865,1211.48 902.821,1209.83 901.77,1208.19 900.708,1206.56 899.638,1204.94 898.559,1203.32 897.471,1201.72 896.374,1200.13 895.268,1198.56 894.153,1196.99 893.03,1195.43 "/>
     <polygon id="_330368112" class="fil1" points="784.307,515.287 1920.19,1651.17 1920.19,1656.67 784.307,520.786 "/>
     <polygon id="_330368208" class="fil1" points="1008.94,721.699 2144.82,1857.58 2145.74,1862.41 2146.54,1866.89 2147.23,1871.04 2147.81,1874.88 2148.3,1878.41 2148.69,1881.67 2149,1884.65 2149.22,1887.37 2149.37,1889.86 2149.44,1892.12 2149.45,1894.16 2149.4,1896.01 2149.29,1897.68 2149.13,1899.17 2148.92,1900.52 2148.68,1901.72 2148.4,1902.8 2148.09,1903.77 2147.76,1904.64 2147.41,1905.44 2147.04,1906.17 2146.68,1906.84 2146.3,1907.48 2145.94,1908.1 2145.58,1908.71 2145.23,1909.33 2144.91,1909.96 2144.6,1910.64 2144.33,1911.36 2144.1,1912.16 2143.91,1913.03 2143.76,1913.99 1007.88,778.11 1008.03,777.144 1008.22,776.273 1008.45,775.482 1008.72,774.757 1009.02,774.082 1009.35,773.443 1009.69,772.827 1010.05,772.217 1010.42,771.599 1010.79,770.959 1011.16,770.284 1011.53,769.555 1011.88,768.761 1012.21,767.887 1012.52,766.918 1012.79,765.837 1013.04,764.633 1013.24,763.289 1013.41,761.793 1013.52,760.127 1013.57,758.279 1013.56,756.233 1013.49,753.976 1013.34,751.491 1013.12,748.765 1012.81,745.783 1012.42,742.531 1011.93,738.994 1011.35,735.156 1010.66,731.004 1009.86,726.524 "/>
     <polygon id="_330368352" class="fil1" points="970.207,571.876 2106.09,1707.76 2106.38,1708.1 2106.67,1708.44 2106.96,1708.78 2107.24,1709.12 2107.53,1709.47 2107.81,1709.81 2108.09,1710.16 2108.37,1710.5 972.491,574.622 972.213,574.274 971.932,573.928 971.649,573.584 971.363,573.24 971.076,572.898 970.788,572.556 970.497,572.216 "/>
     <polygon id="_330367608" class="fil1" points="972.491,574.622 2108.37,1710.5 2109.26,1711.69 973.376,575.807 "/>
     <polygon id="_330367728" class="fil1" points="973.376,575.807 2109.26,1711.69 2109.51,1712.02 2109.76,1712.35 2110.01,1712.68 2110.26,1713.02 2110.51,1713.35 2110.75,1713.68 2111,1714.02 2111.24,1714.36 975.356,578.474 975.116,578.136 974.873,577.8 974.628,577.466 974.379,577.133 974.129,576.8 973.879,576.469 973.627,576.137 "/>
     <polygon id="_330367632" class="fil1" points="975.356,578.474 2111.24,1714.36 2111.37,1714.55 2111.5,1714.75 2111.63,1714.95 2111.76,1715.15 2111.89,1715.34 2112.02,1715.54 2112.15,1715.74 2112.28,1715.94 976.402,580.058 976.27,579.859 976.141,579.661 976.012,579.461 975.883,579.263 975.753,579.064 975.623,578.866 975.491,578.669 "/>
     <polygon id="_330367704" class="fil1" points="976.402,580.058 2112.28,1715.94 2112.48,1716.24 2112.68,1716.54 2112.89,1716.84 2113.08,1717.13 2113.28,1717.43 2113.48,1717.73 2113.67,1718.04 2113.86,1718.34 977.982,582.458 977.792,582.154 977.598,581.852 977.402,581.55 977.204,581.252 977.004,580.953 976.803,580.654 976.602,580.356 "/>
     <polygon id="_330368160" class="fil1" points="977.982,582.458 2113.86,1718.34 2114.17,1718.85 2114.48,1719.36 2114.79,1719.87 2115.09,1720.38 2115.38,1720.9 2115.67,1721.41 2115.96,1721.93 2116.24,1722.45 980.362,586.57 980.078,586.049 979.791,585.53 979.5,585.013 979.204,584.497 978.905,583.985 978.602,583.473 978.294,582.964 "/>
     <polygon id="_330367800" class="fil1" points="980.362,586.57 2116.24,1722.45 2117.29,1724.46 2118.25,1726.51 2119.13,1728.6 2119.93,1730.72 2120.65,1732.88 2121.28,1735.07 2121.83,1737.29 2122.3,1739.55 2122.67,1741.84 2122.96,1744.16 2123.17,1746.51 2123.29,1748.89 2123.31,1751.3 2123.25,1753.73 2123.1,1756.19 2122.86,1758.68 986.977,622.8 987.219,620.312 987.37,617.85 987.432,615.415 987.405,613.007 987.288,610.627 987.083,608.276 986.793,605.957 986.415,603.668 985.951,601.41 985.403,599.186 984.77,596.995 984.053,594.837 983.252,592.715 982.37,590.63 981.407,588.582 "/>
     <polygon id="_330368376" class="fil1" points="1583.64,812.334 2719.52,1948.22 2683.5,2298.49 1547.62,1162.61 "/>
     <polygon id="_330368592" class="fil1" points="986.977,622.8 2122.86,1758.68 2122.79,1759.2 2122.72,1759.7 2122.65,1760.2 2122.58,1760.69 2122.5,1761.17 2122.42,1761.64 2122.34,1762.1 2122.26,1762.56 986.375,626.678 986.457,626.219 986.539,625.754 986.619,625.283 986.697,624.804 986.772,624.317 986.844,623.822 986.912,623.317 "/>
     <polygon id="_330368640" class="fil1" points="986.375,626.678 2122.26,1762.56 2122.16,1763.03 986.278,627.152 "/>
     <polygon id="_330368760" class="fil1" points="986.278,627.152 2122.16,1763.03 2121.87,1764.44 2121.56,1765.78 2121.24,1767.05 2120.91,1768.26 2120.58,1769.41 2120.25,1770.51 2119.92,1771.57 2119.6,1772.58 2119.29,1773.55 2119.01,1774.49 2118.74,1775.41 2118.5,1776.3 2118.28,1777.17 2118.1,1778.03 2117.96,1778.88 2117.86,1779.73 981.983,643.848 982.081,643 982.222,642.148 982.4,641.288 982.614,640.415 982.856,639.525 983.124,638.611 983.414,637.669 983.721,636.695 984.04,635.684 984.368,634.63 984.7,633.53 985.033,632.377 985.36,631.169 985.68,629.898 985.987,628.56 "/>
     <polygon id="_330369096" class="fil1" points="1547.74,1162.61 2683.62,2298.49 2683.24,2300.88 2682.63,2303.18 2681.81,2305.37 2680.79,2307.45 2679.58,2309.4 2678.2,2311.22 2676.65,2312.89 2674.96,2314.41 2673.12,2315.75 2671.17,2316.92 2669.1,2317.9 2666.93,2318.69 2664.67,2319.26 2662.35,2319.61 2659.96,2319.73 2657.52,2319.61 1521.64,1183.73 1524.08,1183.85 1526.46,1183.73 1528.79,1183.38 1531.05,1182.8 1533.22,1182.02 1535.28,1181.04 1537.24,1179.87 1539.07,1178.52 1540.77,1177.01 1542.32,1175.34 1543.7,1173.52 1544.91,1171.57 1545.93,1169.49 1546.75,1167.3 1547.36,1165 "/>
     <polygon id="_330368712" class="fil1" points="1521.64,1183.73 2657.52,2319.61 2657.34,2319.61 2657.14,2319.59 2656.94,2319.57 2656.74,2319.54 2656.53,2319.51 2656.31,2319.47 2656.09,2319.42 2655.87,2319.38 1519.99,1183.5 1520.21,1183.54 1520.43,1183.58 1520.64,1183.62 1520.86,1183.66 1521.06,1183.69 1521.26,1183.71 1521.45,1183.73 "/>
     <polygon id="_330368976" class="fil1" points="1519.99,1183.5 2655.87,2319.38 2617.72,2315.49 1481.84,1179.6 "/>
     <polygon id="_330368472" class="fil1" points="1481.84,1179.6 2617.72,2315.49 2617.01,2315.37 1481.13,1179.49 "/>
     <polygon id="_330368496" class="fil1" points="1481.13,1179.49 2617.01,2315.37 2606.38,2419.93 1470.5,1284.05 "/>
     <polygon id="_330368616" class="fil1" points="1470.5,1284.05 2606.38,2419.93 2606.14,2421.74 2605.75,2423.5 2605.24,2425.21 2604.61,2426.85 2603.86,2428.43 2603,2429.94 2602.03,2431.38 2600.96,2432.73 2599.81,2434.01 2598.56,2435.2 2597.24,2436.29 2595.83,2437.29 2594.37,2438.19 2592.83,2438.98 2591.25,2439.66 2589.61,2440.23 1453.73,1304.35 1455.36,1303.78 1456.95,1303.1 1458.48,1302.31 1459.95,1301.41 1461.35,1300.41 1462.68,1299.31 1463.92,1298.13 1465.08,1296.85 1466.15,1295.49 1467.12,1294.06 1467.98,1292.55 1468.73,1290.97 1469.36,1289.32 1469.87,1287.62 1470.25,1285.86 "/>
     <polygon id="_330369432" class="fil1" points="1453.73,1304.35 2589.61,2440.23 2573.59,2446.28 1437.71,1310.4 "/>
     <polygon id="_330369864" class="fil1" points="1437.71,1310.4 2573.59,2446.28 2573.6,2446.47 2573.61,2446.66 2573.63,2446.84 2573.64,2447.03 2573.65,2447.22 2573.66,2447.4 2573.66,2447.59 2573.66,2447.78 1437.78,1311.9 1437.78,1311.71 1437.78,1311.52 1437.77,1311.33 1437.76,1311.15 1437.74,1310.96 1437.73,1310.77 1437.72,1310.59 "/>
     <polygon id="_330369600" class="fil1" points="1388.92,1328.82 2524.8,2464.71 2456.5,2490.51 1320.62,1354.62 "/>
     <polygon id="_330369240" class="fil1" points="1437.78,1311.9 2573.66,2447.78 2590.88,2605.1 1455,1469.21 "/>
     <polygon id="_330369528" class="fil1" points="1537.47,1504.86 2673.35,2640.74 2673.23,2643.16 2672.87,2645.52 2672.28,2647.79 2671.48,2649.97 2670.48,2652.05 2669.29,2654 2667.93,2655.83 2666.39,2657.51 2664.71,2659.04 2662.88,2660.41 2660.92,2661.6 2658.85,2662.6 2656.67,2663.39 2654.39,2663.98 2652.03,2664.34 2649.6,2664.46 1513.72,1528.58 1516.15,1528.46 1518.51,1528.1 1520.78,1527.51 1522.97,1526.72 1525.04,1525.72 1527,1524.53 1528.83,1523.16 1530.51,1521.63 1532.04,1519.95 1533.41,1518.12 1534.6,1516.16 1535.6,1514.09 1536.4,1511.91 1536.99,1509.64 1537.34,1507.28 "/>
     <polygon id="_330369552" class="fil1" points="1320.62,1354.62 2456.5,2490.51 2454.18,2491.24 2451.85,2491.74 2449.51,2491.99 2447.19,2492.02 2444.89,2491.81 2442.64,2491.39 2440.45,2490.76 2438.33,2489.93 2436.3,2488.9 2434.38,2487.67 2432.58,2486.26 2430.91,2484.68 1295.03,1348.8 1296.69,1350.38 1298.5,1351.79 1300.42,1353.01 1302.45,1354.05 1304.57,1354.88 1306.76,1355.51 1309.01,1355.93 1311.31,1356.13 1313.63,1356.11 1315.97,1355.85 1318.3,1355.36 "/>
     <polygon id="_330369576" class="fil1" points="1525.36,1472.94 2661.24,2608.82 2663.1,2610.72 2664.82,2612.92 2666.39,2615.36 2667.81,2618.01 2669.08,2620.8 2670.19,2623.71 2671.14,2626.67 2671.92,2629.64 2672.54,2632.58 2672.99,2635.45 2673.26,2638.18 2673.35,2640.74 1537.47,1504.86 1537.38,1502.3 1537.11,1499.56 1536.66,1496.7 1536.04,1493.76 1535.26,1490.79 1534.31,1487.82 1533.2,1484.92 1531.93,1482.12 1530.51,1479.48 1528.94,1477.04 1527.22,1474.84 "/>
     <polygon id="_330369696" class="fil1" points="1351.56,1417.4 2487.45,2553.29 2488.08,2555.62 2488.46,2557.96 2488.62,2560.29 2488.54,2562.6 2488.25,2564.87 2487.74,2567.09 2487.02,2569.25 2486.1,2571.32 2485,2573.29 2483.7,2575.15 2482.23,2576.89 2480.59,2578.48 2478.78,2579.92 2476.82,2581.19 2474.7,2582.27 2472.45,2583.15 1336.57,1447.27 1338.82,1446.39 1340.94,1445.31 1342.9,1444.04 1344.71,1442.6 1346.35,1441.01 1347.82,1439.27 1349.12,1437.41 1350.22,1435.43 1351.14,1433.36 1351.85,1431.21 1352.36,1428.99 1352.66,1426.72 1352.74,1424.41 1352.58,1422.08 1352.19,1419.74 "/>
     <polygon id="_330369504" class="fil1" points="923.669,1248.52 2059.55,2384.4 2060.21,2385.88 2060.86,2387.37 2061.5,2388.86 2062.14,2390.36 2062.77,2391.86 2063.39,2393.37 2064.01,2394.88 2064.62,2396.4 928.738,1260.51 928.126,1259 927.509,1257.48 926.885,1255.98 926.255,1254.47 925.62,1252.98 924.977,1251.48 924.327,1250 "/>
     <polygon id="_330369360" class="fil1" points="928.738,1260.51 2064.62,2396.4 2064.96,2397.25 929.083,1261.37 "/>
     <polygon id="_330370632" class="fil1" points="1122.99,1460.64 2258.87,2596.52 2259.39,2597.01 2259.8,2597.59 2260.09,2598.25 1124.21,1462.37 1123.92,1461.7 1123.51,1461.12 "/>
     <polygon id="_330369912" class="fil1" points="937.611,1285.28 2073.49,2421.17 2074.23,2423.54 938.344,1287.66 "/>
     <polygon id="_330369936" class="fil1" points="938.344,1287.66 2074.23,2423.54 2074.61,2424.82 2075,2426.09 2075.38,2427.37 2075.76,2428.65 2076.13,2429.94 2076.5,2431.23 2076.86,2432.52 2077.22,2433.81 941.336,1297.93 940.978,1296.64 940.615,1295.34 940.247,1294.06 939.875,1292.77 939.498,1291.49 939.118,1290.21 938.733,1288.93 "/>
     <polygon id="_330369960" class="fil1" points="941.336,1297.93 2077.22,2433.81 2077.79,2435.85 941.905,1299.96 "/>
     <polygon id="_330369984" class="fil1" points="941.905,1299.96 2077.79,2435.85 2078.17,2437.3 2078.56,2438.77 2078.93,2440.23 2079.31,2441.7 2079.67,2443.17 2080.03,2444.65 2080.38,2446.13 2080.73,2447.61 944.851,1311.73 944.502,1310.24 944.148,1308.76 943.789,1307.29 943.424,1305.82 943.053,1304.35 942.676,1302.88 942.294,1301.42 "/>
     <polygon id="_330370200" class="fil1" points="944.851,1311.73 2080.73,2447.61 2081.45,2450.83 945.57,1314.95 "/>
     <polygon id="_330370032" class="fil1" points="945.57,1314.95 2081.45,2450.83 2081.71,2452 2081.97,2453.17 2082.22,2454.35 2082.47,2455.52 2082.71,2456.7 2082.95,2457.88 2083.19,2459.06 2083.43,2460.25 947.547,1324.37 947.312,1323.18 947.074,1322 946.831,1320.82 946.586,1319.64 946.337,1318.47 946.085,1317.29 945.829,1316.12 "/>
     <polygon id="_330370080" class="fil1" points="947.547,1324.37 2083.43,2460.25 2084.09,2463.59 948.204,1327.71 "/>
     <polygon id="_330370464" class="fil1" points="948.204,1327.71 2084.09,2463.59 2084.36,2465.08 2084.63,2466.57 2084.89,2468.06 2085.15,2469.55 2085.4,2471.05 2085.65,2472.55 2085.89,2474.05 2086.12,2475.56 950.244,1339.68 950.009,1338.17 949.768,1336.67 949.521,1335.17 949.268,1333.67 949.009,1332.18 948.746,1330.69 948.478,1329.2 "/>
     <polygon id="_330371424" class="fil1" points="950.244,1339.68 2086.12,2475.56 2086.18,2475.95 2086.24,2476.34 2086.3,2476.73 2086.35,2477.12 2086.41,2477.51 2086.46,2477.9 2086.52,2478.29 2086.57,2478.68 950.69,1342.8 950.635,1342.41 950.579,1342.02 950.525,1341.63 950.47,1341.24 950.416,1340.85 950.359,1340.46 950.303,1340.07 "/>
     <polygon id="_330370968" class="fil1" points="950.69,1342.8 2086.57,2478.68 2086.75,2479.9 2086.92,2481.13 2087.09,2482.35 2087.25,2483.58 2087.41,2484.81 2087.56,2486.04 2087.72,2487.27 2087.87,2488.5 951.985,1352.62 951.836,1351.38 951.683,1350.15 951.528,1348.92 951.367,1347.7 951.204,1346.47 951.036,1345.25 950.865,1344.02 "/>
     <polygon id="_330371352" class="fil1" points="951.985,1352.62 2087.87,2488.5 2088.29,2492.17 952.413,1356.29 "/>
     <polygon id="_330370920" class="fil1" points="1071.5,1477.63 2207.38,2613.52 2207.9,2614 2208.31,2614.58 2208.6,2615.25 1072.72,1479.37 1072.43,1478.7 1072.02,1478.12 "/>
     <polygon id="_330370800" class="fil1" points="953.59,1368.84 2089.47,2504.72 2089.6,2506.77 953.72,1370.89 "/>
     <polygon id="_330371400" class="fil1" points="953.72,1370.89 2089.6,2506.77 2089.7,2508.16 2089.79,2509.56 2089.87,2510.95 2089.96,2512.35 2090.03,2513.75 2090.1,2515.16 2090.17,2516.56 2090.23,2517.96 954.348,1382.08 954.287,1380.68 954.22,1379.27 954.15,1377.87 954.074,1376.47 953.994,1375.07 953.907,1373.68 953.816,1372.28 "/>
     <polygon id="_330370704" class="fil1" points="954.348,1382.08 2090.23,2517.96 2090.37,2521.53 954.486,1385.65 "/>
     <polygon id="_330371208" class="fil1" points="954.486,1385.65 2090.37,2521.53 2090.39,2522.35 2090.42,2523.18 2090.44,2524 2090.47,2524.83 2090.49,2525.65 2090.51,2526.48 2090.53,2527.3 2090.54,2528.13 2090.56,2528.95 2090.57,2529.78 2090.58,2530.61 2090.6,2531.44 2090.6,2532.27 2090.61,2533.1 2090.61,2533.93 2090.61,2534.76 954.732,1398.88 954.731,1398.05 954.727,1397.22 954.721,1396.39 954.714,1395.56 954.703,1394.73 954.692,1393.9 954.679,1393.07 954.663,1392.25 954.646,1391.42 954.627,1390.59 954.607,1389.77 954.585,1388.94 954.562,1388.12 954.538,1387.29 954.512,1386.47 "/>
     <polygon id="_330370848" class="fil1" points="954.732,1398.88 2090.61,2534.76 2090.61,2535.27 2090.61,2535.82 2090.6,2536.42 2090.59,2537.06 2090.58,2537.74 2090.57,2538.47 2090.56,2539.23 2090.54,2540.04 2090.52,2540.89 2090.5,2541.79 2090.48,2542.72 2090.46,2543.69 2090.44,2544.7 2090.42,2545.76 2090.4,2546.85 2090.38,2547.98 954.494,1412.1 954.517,1410.97 954.539,1409.88 954.561,1408.82 954.582,1407.81 954.602,1406.84 954.622,1405.9 954.641,1405.01 954.657,1404.16 954.674,1403.35 954.688,1402.58 954.701,1401.86 954.712,1401.18 954.72,1400.54 954.727,1399.94 954.731,1399.39 "/>
     <polygon id="_330371232" class="fil1" points="1251.33,1475.63 2387.21,2611.51 2159.94,2687.12 1024.06,1551.24 "/>
     <polygon id="_330371856" class="fil1" points="1279.29,1466.33 2415.17,2602.21 2415.17,2663.05 1279.29,1527.16 "/>
     <polygon id="_330371808" class="fil1" points="1339.88,1528.58 2475.76,2664.46 2473.33,2664.34 2470.97,2663.98 2468.7,2663.39 2466.52,2662.6 2464.44,2661.6 2462.48,2660.41 2460.66,2659.04 2458.97,2657.51 1323.09,1521.63 1324.78,1523.16 1326.6,1524.53 1328.56,1525.72 1330.64,1526.72 1332.82,1527.51 1335.09,1528.1 1337.45,1528.46 "/>
     <polygon id="_330372048" class="fil1" points="1279.29,1527.16 2415.17,2663.05 2398.51,2661.04 1262.63,1525.16 "/>
     <polygon id="_330371592" class="fil1" points="1513.72,1528.58 2649.6,2664.46 2475.76,2664.46 1339.88,1528.58 "/>
    </g>
    <path id="_385678048" class="fil1" d="M1583.64 812.334l-36.0225 350.273 0.122835 0c-1.42087,12.9827 -12.9945,22.4244 -26.1071,21.1229 -0.468898,0 -1.06181,-0.113386 -1.64764,-0.231496l-38.1496 -3.8941 -0.712205 -0.11811 -10.6264 104.56c-0.943702,9.79607 -7.91221,17.5878 -16.774,20.3008l-16.0205 6.05552c0.0307087,0.497244 0.0767717,0.988583 0.0767717,1.49528l17.2122 157.317 61.5638 0c13.1114,0 20.9079,22.5425 20.9079,35.641 0,13.1055 -10.6311,23.7236 -23.7437,23.7236l-173.847 0c-13.1126,0 -23.739,-10.6181 -23.739,-23.7236 0,-13.0984 13.3441,-35.641 26.452,-35.641l33.9236 0 -0.0248032 -0.232677 12.4347 -140.158 -68.302 25.8c-12.2823,4.6004 -25.9807,-1.53543 -30.5906,-13.8083 -1.53425,-4.13386 -1.8874,-8.38111 -1.17992,-12.5102l75.469 -734.3 -0.113386 0c1.29685,-12.9827 12.9898,-22.4244 25.9807,-21.1252 2.71654,0.236221 5.19567,0.943702 7.44568,2.00551l42.6237 15.4099 0.00826772 -0.068504 80.4331 29.152 -0.0011811 -0.119291c10.9807,4.01339 17.2382,15.3437 15.2315,26.4366l-13.8154 134.775 40.5095 4.1315c12.2599,1.21417 21.3189,11.5122 21.3792,23.4614l0 0.185433c-0.00236221,0.766536 -0.0401575,1.54016 -0.11811,2.31732 -0.121654,0.590552 -0.121654,1.17756 -0.239764,1.76811zm-232.079 605.07c4.01575,12.3957 -2.59488,25.7327 -14.9988,29.8618l-57.28 19.0606 0 60.8363 -16.6524 -2.00669 -11.3008 -49.5296 -227.273 75.6119c-12.4016,4.13386 -25.7457,-2.59488 -29.7662,-14.987 -4.12796,-12.3921 2.60079,-25.728 15.0012,-29.739l22.5343 -7.50945c-0.455906,-0.425197 -0.843308,-0.927166 -1.03701,-1.58032l-1.30158 -3.77835c-0.585827,-1.8874 0.475985,-4.01103 2.36339,-4.60158l36.2611 -12.0378c1.88858,-0.590552 4.01575,0.47126 4.60276,2.36339l1.30158 3.77599c0.180709,0.61063 0.16063,1.20473 0.0590552,1.78228l9.11812 -3.0378c-0.400394,-0.401575 -0.737008,-0.864568 -0.910631,-1.45866l-1.30158 -3.77835c-0.585827,-1.88858 0.475985,-4.01221 2.36339,-4.60276l36.2575 -12.0378c1.8874,-0.590552 4.01575,0.47126 4.6063,2.35984l1.30158 3.77953c0.164173,0.531496 0.172441,1.0748 0.0968505,1.60512l8.97875 -2.99055c-0.359055,-0.375591 -0.649607,-0.81378 -0.81378,-1.33228l-1.29331 -3.77481c-0.594095,-1.8874 0.467717,-4.01103 2.35984,-4.71969l36.2611 -11.9197c1.88858,-0.590552 4.01221,0.47126 4.6063,2.35866l1.29685 3.77599c0.147638,0.467717 0.190158,0.951969 0.144095,1.42795l8.80158 -2.93622c-0.295276,-0.346063 -0.53504,-0.751182 -0.677953,-1.20591l-1.29803 -3.77481c-0.589371,-2.00906 0.472441,-4.01575 2.35984,-4.72323l36.2611 -11.9197c1.8874,-0.708662 4.01575,0.35315 4.72441,2.36339l1.17874 3.77126c0.155906,0.413386 0.190158,0.838583 0.186614,1.25079l33.9733 -11.3173c-0.240945,-0.311811 -0.472441,-0.640158 -0.615355,-1.02402l-1.17992 -3.77481c-0.712205,-1.8874 0.354331,-4.01575 2.24173,-4.72323l19.7244 -6.48898c2.00551,-0.595276 4.13386,0.472441 4.72323,2.35866l1.29685 3.77599c0.11811,0.366142 0.11811,0.741733 0.11811,1.1126l32.7189 -10.9039c12.3992,-4.13386 25.7481,2.59488 29.8772,14.9823zm-397.07 -5.30433c-2.00433,59.0056 7.91339,93.1111 20.7862,137.606l0.594095 2.00197c0.47126,1.53662 0.707481,3.07087 0.826772,4.72678l-52.089 0 -211.053 0 -198.535 0 -50.6681 0c-0.243307,-4.95827 -0.354331,-9.9567 -0.355512,-14.9988 -0.00590552,-21.8551 2.04567,-44.5441 4.25315,-68.3245 1.89095,-20.8902 3.77953,-42.6024 4.48819,-62.55 2.71654,-83.7898 31.1799,-160.03 74.8796,-215.261 19.9299,-25.2437 43.037,-46.239 68.4142,-61.8709 -3.05079,-1.74921 -5.43308,-3.7252 -6.88229,-5.98819 -9.96615,-15.4205 0.970867,-54.9225 15.0791,-65.204l4.99961 -66.8599c6.20552,-82.3028 -60.0804,-146.797 -72.1583,-229.355 -10.0146,-51.9532 0.785434,-108.68 66.0166,-177.565l0.138189 -0.141732c0.912993,-0.960237 1.85315,-1.90158 2.79331,-2.84055l1.61339 -1.61929c0.772442,-0.748819 1.56969,-1.48347 2.35984,-2.22166 0.746457,-0.699213 1.48937,-1.40315 2.25355,-2.09173l1.98189 -1.73386c0.938977,-0.817323 1.87677,-1.63347 2.83583,-2.43425l1.63347 -1.32756c1.11732,-0.910631 2.23819,-1.81536 3.38386,-2.7l1.29449 -0.981497c1.2874,-0.979135 2.59016,-1.95 3.913,-2.90079l0.968505 -0.687402c1.45394,-1.02992 2.92087,-2.04685 4.41024,-3.04252l0.682678 -0.451181c1.6063,-1.06536 3.23032,-2.11299 4.87796,-3.13701l0.376772 -0.231496c1.76457,-1.09606 3.55276,-2.16851 5.36339,-3.21733l0.0496063 -0.0283465c21.7571,-12.6036 46.6595,-21.9756 72.8044,-28.174l0 -13.2083c0,-13.0996 10.6311,-23.7213 23.7402,-23.7213 13.1091,0 23.7414,10.6217 23.7414,23.7213l0 5.49922c15.7677,-1.44095 31.5626,-1.8189 47.0044,-1.13386l0.71693 0.0377953c1.99134,0.0933072 3.97323,0.197244 5.95158,0.324803l1.88858 0.138189c1.57441,0.111024 3.14646,0.223229 4.71142,0.356693l2.73662 0.253937 3.80788 0.369685 3.34725 0.383859 3.12166 0.370866 3.8126 0.517323 2.58071 0.366142 4.17284 0.660237 2.13898 0.354331c1.48819,0.255118 2.96339,0.525591 4.43622,0.804331l1.79646 0.338977c1.54134,0.301181 3.07205,0.617717 4.59567,0.94252l1.55788 0.333071c1.57795,0.347244 3.13819,0.711024 4.69725,1.08189l1.34882 0.323622c1.60866,0.39567 3.20551,0.806694 4.7941,1.22835l1.13386 0.302362c1.62165,0.440552 3.22796,0.896457 4.82363,1.36654l1.02047 0.302362c1.62165,0.485433 3.22796,0.987402 4.82008,1.50473l0.881103 0.284646c1.62165,0.532678 3.22323,1.08307 4.80709,1.64646l0.779528 0.27874c1.60158,0.577559 3.19016,1.16929 4.75748,1.77874l0.700394 0.275197c1.57441,0.620079 3.13347,1.25315 4.66772,1.9063l0.666142 0.285827c1.53307,0.657875 3.05079,1.32992 4.54252,2.01969l0.656693 0.308268c1.48347,0.693308 2.95394,1.40315 4.39843,2.12953l0.636615 0.325985c1.4374,0.728741 2.85236,1.47402 4.24725,2.24055l0.627166 0.347244c1.38189,0.765355 2.74843,1.54134 4.08426,2.34095l0.63189 0.38504c1.32284,0.796064 2.62795,1.6063 3.90473,2.43662l0.63189 0.418111c1.26024,0.826772 2.49921,1.66654 3.71221,2.5252l0.661418 0.479528c1.18465,0.851575 2.35276,1.71142 3.48898,2.59252l0.692127 0.550394c1.11142,0.871654 2.20394,1.74921 3.26575,2.64803l0.733465 0.640158c1.02284,0.887009 2.04331,1.77992 3.02008,2.6941l0.750001 0.721654c0.951969,0.902363 1.89213,1.80945 2.79685,2.73898l0.772442 0.827953c0.868111,0.911812 1.7315,1.8248 2.55355,2.76142l0.816142 0.973229c0.775985,0.907087 1.54725,1.81536 2.28425,2.74607l0.884646 1.18465c0.670867,0.883465 1.34528,1.76339 1.98071,2.66693 0.361418,0.518504 0.694489,1.05709 1.04528,1.58386 0.53504,0.797245 1.07835,1.58622 1.58032,2.4 0.837402,1.35 1.62992,2.72008 2.37992,4.1126 5.78622,10.6228 8.14961,22.8933 6.61536,36.2303 -0.167717,1.39016 -0.379134,2.65984 -0.602363,3.87756l-0.0968505 0.473622c-1.49528,7.71024 -3.89292,12.1748 -4.29449,16.6961 -0.0330709,0.359055 -0.0614174,0.721654 -0.0661418,1.08543 -0.0389764,3.27166 1.0748,6.72638 4.47048,11.6209 12.9886,18.528 17.5937,40.0075 22.5532,65.1449 10.3949,53.3445 0.236221,45.554 -1.06181,56.4107 -2.36339,33.2811 42.6378,56.0587 49.1339,96.7749 2.12362,16.8768 -18.6614,15.3414 -32.3634,16.9961 -3.06851,3.18425 -3.4252,10.5024 -4.96063,19.1173 6.84804,6.02126 15.1158,23.9575 -1.89095,26.9067 7.44095,12.039 5.2004,19.8295 -11.2169,27.3803 0.616536,2.42244 1.07953,4.82953 1.46693,7.22599 6.73347,4.24725 11.1697,11.4437 11.1697,19.5626 0,8.67284 -6.64843,16.2189 -14.1567,20.289 -8.07284,22.9453 -26.9776,25.7681 -55.0536,27.7453 -29.6634,2.09291 -48.763,25.6051 -62.2004,57.3792 5.73898,1.26024 10.3158,2.54528 12.4772,3.87284l6.96851 100.08c-4.95945,-2.88189 -10.3394,-5.68465 -16.0146,-8.40591l0.660237 0.851575c12.1181,16.4327 22.7705,34.7481 31.6984,54.5741l0.0720473 0.0625985c1.76575,3.93071 3.44292,7.94174 5.0693,11.9917l0.344882 0.858662c3.1004,7.77166 5.94922,15.7476 8.52757,23.9126l0.733465 2.37638c1.04055,3.3874 2.04449,6.8126 2.99173,10.2685l0.569292 2.03504c1.04528,3.87992 2.02323,7.80355 2.94567,11.7602l0.719292 3.22323c0.69567,3.11811 1.35354,6.25749 1.97717,9.41812l0.656693 3.34488c0.737008,3.96024 1.42087,7.94646 2.03977,11.9669 0.16063,1.03583 0.295276,2.07992 0.446457,3.12166 0.472441,3.25748 0.902363,6.52678 1.29449,9.81733l0.42874 3.67441c0.451181,4.15748 0.855119,8.33386 1.17638,12.5469l0.129921 2.04921c0.265748,3.71221 0.468898,7.44449 0.628347,11.1945l0.138189 3.56575c0.144095,4.39016 0.245669,8.79331 0.245669,13.2295 0,2.59606 -0.11811,7.08308 -0.237402,13.2225z"/>
   </g>
  </g>
  <path class="fil2" d="M1024 0c565.538,0 1024,458.462 1024,1024 0,565.538 -458.462,1024 -1024,1024 -565.538,0 -1024,-458.462 -1024,-1024 0,-565.538 458.462,-1024 1024,-1024z"/>
  <rect class="fil3" transform="matrix(0.703838 -0.232661 0.0519969 0.157299 1028.34 1490.54)" width="61.4587" height="68.7508" rx="3.7063" ry="3.7063"/>
  <rect class="fil3" transform="matrix(0.703838 -0.232661 0.0519969 0.157299 1079.85 1473.52)" width="61.4587" height="68.7508" rx="3.7063" ry="3.7063"/>
  <rect class="fil3" transform="matrix(0.703838 -0.232661 0.0519969 0.157299 1131.35 1456.49)" width="61.4587" height="68.7508" rx="3.7063" ry="3.7063"/>
  <rect class="fil3" transform="matrix(0.703838 -0.232661 0.0519969 0.157299 1182.86 1439.47)" width="61.4587" height="68.7508" rx="3.7063" ry="3.7063"/>
  <rect class="fil3" transform="matrix(0.435347 -0.143909 0.0519969 0.157299 1259.66 1414.08)" width="61.4587" height="68.7508" rx="3.7063" ry="3.7063"/>
  <polygon class="fil3" points="1251.03,1474.83 1279.27,1455.32 1279.27,1527.52 1262.69,1525.59 "/>
  <path class="fil4" d="M1437.84 1312.13c0,-13.1008 -10.6217,-23.7225 -23.7225,-23.7225 -13.1008,0 -23.7225,10.6217 -23.7225,23.7225l-13.8992 157.26c0,13.1008 24.5209,27.4288 37.6217,27.4288 13.1008,0 41.328,-10.6205 41.328,-23.7213l-17.6055 -160.968z"/>
  <path class="fil4" d="M1342.62 1469.52c-13.1008,0 -26.5016,22.6677 -26.5016,35.7685 0,13.1008 10.6217,23.7225 23.7225,23.7225l173.962 0c13.1008,0 23.7225,-10.6217 23.7225,-23.7225 0,-13.1008 -7.84253,-35.7685 -20.9433,-35.7685l-173.962 0z"/>
  <path class="fil5" d="M1397.62 574.513l123.079 44.5394 0.022441 -0.0637796c11.0244,3.98859 17.2843,15.3 15.2858,26.4614l-13.8354 134.85 40.5107 4.1563 0.011811 -0.0614174c13.0323,1.33701 22.5142,12.9862 21.1772,26.0185 -0.0590552,0.575197 -0.13937,1.14331 -0.237402,1.70433l-35.9646 350.563 0.0614174 0.011811c-1.33701,13.0323 -12.9862,22.5142 -26.0197,21.1772 -0.575197,-0.0590552 -1.14331,-0.13937 -1.70315,-0.237402l-38.8051 -3.9815 -10.7268 104.56 0.0602363 0.011811c-1.00866,9.84213 -7.90158,17.6575 -16.8284,20.3185l-133.074 50.3044 0.0200788 0.0531496c-12.2539,4.63229 -25.9453,-1.54725 -30.5764,-13.8012 -1.56732,-4.14567 -1.89449,-8.45788 -1.16929,-12.5268l75.3898 -734.852 -0.0614174 -0.011811c1.33701,-13.0323 12.9862,-22.513 26.0185,-21.1772 2.61732,0.269292 5.09056,0.955513 7.36418,1.98307z"/>
  <polygon class="fil6" points="1434.91,588.005 1445.64,591.887 1359.17,1340.28 1347.49,1344.7 "/>
  <path class="fil4" d="M1336.55 1447.56c12.385,-4.0937 19.1055,-17.4532 15.0118,-29.837 -4.0937,-12.385 -17.4532,-19.1055 -29.8382,-15.0118l-312.456 104.152c-12.3839,4.0937 -19.1055,17.4532 -15.0106,29.837 4.0937,12.385 17.4532,19.1055 29.837,15.0118l312.456 -104.152z"/>
  <path class="fil7" d="M629.271 995.402l-11.7614 156.406c-8.25946,6.32599 206.674,31.7835 245.075,37.6878l0.0011811 -0.00944883c13.6618,-67.5532 32.2488,-145.471 87.4477,-149.323 31.9181,-2.22874 51.8906,-5.59961 57.6756,-38.3457 2.10709,-11.9303 2.11417,-24.0957 -1.14331,-36.6225 16.415,-7.53662 18.6236,-15.274 11.1921,-27.3331 17.0351,-3.00118 8.8252,-20.9232 1.95591,-26.954 1.51772,-8.61024 1.9063,-15.9012 4.99843,-19.0854 13.6158,-1.64291 34.4185,-0.204331 32.3634,-16.9961 -6.50315,-40.8426 -51.5233,-63.6249 -49.2378,-96.8552 1.32756,-10.9169 11.5559,-3.09685 1.13386,-56.4745 -4.92874,-25.2414 -9.57757,-46.6961 -22.5473,-65.2737 -9.34725,-13.3878 -1.55669,-16.0417 0.507874,-33.7252 1.55906,-13.3441 -0.746457,-25.5815 -6.5315,-36.326 -49.0394,-91.0725 -282.363,-91.6501 -364.922,10.5602 -147.711,182.871 23.5843,268.419 13.7917,398.67z"/>
  <path class="fil8" d="M924.669 1556.84l0 0 52.0335 0c-0.127559,-1.57559 -0.412205,-3.16063 -0.868111,-4.73977l-0.574016 -1.98425c-12.841,-44.4839 -22.7162,-78.6922 -20.7886,-137.666 0.201969,-6.2126 0.303544,-10.6347 0.303544,-13.2626l-0.0992127 0c0,-79.9666 -23.7496,-152.216 -62.8158,-205.1 -40.663,-55.0477 -97.943,-89.6316 -163.062,-91.6324 -3.78544,-0.115748 -5.77323,-0.174803 -5.89607,-0.174803 -67.8367,0 -129.861,35.5866 -175.298,93.1194 -43.7268,55.3678 -72.1453,131.582 -74.8879,215.514 -0.649607,19.8709 -2.62205,41.654 -4.51536,62.5725 -2.65394,29.3256 -5.15788,56.9764 -3.8374,83.354l50.6268 0 409.679 0z"/>
  <path class="fil9" d="M629.269 995.402l-0.00472441 0.0791339c20.8488,19.6477 44.9374,13.487 59.0599,4.97717 46.7374,-28.1681 55.8036,-167.881 55.3808,-176.959 -3.83622,-82.0099 51.1512,-61.5284 51.1512,-22.6406l19.8012 0c0,-11.9114 3.13229,-53.7709 8.81575,-63.163 39.8114,-65.791 142.062,-63.2918 158.454,-92.6245 -0.127559,-5.89725 3.65788,-11.0362 5.00433,-22.5732 1.56024,-13.3441 -0.746457,-25.5815 -6.5315,-36.326 -47.6126,-88.4221 -268.942,-91.5379 -357.34,1.89921 -164.278,173.679 16.5189,270.197 6.20906,407.331z"/>
  <path class="fil10" d="M757.499 750.015c16.2532,0 44.2429,31.6146 38.9233,70.7658 -1.81772,13.3748 -4.43859,28.7988 -7.5189,43.3111 -5.93623,27.9673 20.2441,51.7241 -20.4862,52.5485 -10.4858,0.212599 -25.5343,-56.7083 -30.8528,-95.8595 -5.31969,-39.1512 3.6815,-70.7658 19.9347,-70.7658z"/>
  <path class="fil11" d="M771.043 788.155c6.78544,0 18.4701,15.5551 16.2496,34.8189 -2.22047,19.2626 -7.31339,47.165 -11.6917,47.165 -4.37717,0 -10.6595,-27.9024 -12.8799,-47.165 -2.22166,-19.2638 1.53662,-34.8189 8.32205,-34.8189z"/>
  <path class="fil12" d="M631.204 1059.63c-0.622441,0.0755906 -1.4374,0.214961 -2.58071,0.501969 -16.0689,4.03819 -30.5221,50.4237 -19.526,67.4398 10.3276,15.9827 66.3626,18.1866 91.6761,20.7579 32.8902,3.34134 66.2599,6.51733 97.3359,13.5945 39.1099,8.90552 80.6257,23.1532 109.119,39.6992l-6.92008 -100.166c-5.82402,-3.57874 -28.8154,-6.92717 -45.2528,-9.94489l0.244488 -1.06654 -224.095 -30.8162z"/>
  <path class="fil13" d="M924.669 1556.84l0 0 52.0335 0c-0.127559,-1.57559 -0.412205,-3.16063 -0.868111,-4.73977l-0.574016 -1.98425c-12.841,-44.4839 -22.7162,-78.6934 -20.7886,-137.666 0.201969,-6.2126 0.303544,-10.6358 0.303544,-13.2626l-0.0992127 0c0,-55.076 -11.2677,-106.491 -31.0441,-150.441 -26.3776,-25.4835 -60.2315,-40.187 -102.725,-33.8032 -90.0757,13.5343 -135.703,110.177 -124.768,199.498l17.4343 142.399 211.096 0z"/>
  <path class="fil14" d="M784.293 514.885c0,-13.1008 -10.6217,-23.7225 -23.7225,-23.7225 -13.1008,0 -23.7213,10.6217 -23.7213,23.7225l0 211.63c-12.3284,3.86693 -23.3575,10.6654 -32.2725,19.5803 -14.3303,14.3315 -23.1957,34.1292 -23.1957,55.9937 0,21.8646 8.86536,41.6622 23.1957,55.9926 12.7772,12.776 29.8973,21.2079 48.9544,22.8874 2.69764,33.3981 17.465,63.5197 39.9036,85.9583 24.8977,24.8977 59.2512,40.3536 97.0489,40.3536l90.0048 0c4.00748,3.95788 9.51379,6.40276 15.5906,6.40276 12.2539,0 22.187,-9.93426 22.187,-22.187 0,-12.2539 -9.93308,-22.1882 -22.187,-22.1882 -9.45591,0 -17.5288,5.91733 -20.7236,14.25l-84.8717 0c-31.2484,0 -59.667,-12.7937 -80.2772,-33.4028 -18.4665,-18.4677 -30.6567,-43.2059 -32.9918,-70.6312 15.1866,-3.24922 28.761,-10.8532 39.3496,-21.4429 14.3303,-14.3303 23.1957,-34.128 23.1957,-55.9926 0,-21.8646 -8.86536,-41.6622 -23.1957,-55.9937 -8.91379,-8.91379 -19.9453,-15.7122 -32.2713,-19.5791l0 -211.631z"/>
  <circle class="fil15" cx="760.251" cy="802.826" r="83.7811"/>
  <circle class="fil16" cx="760.251" cy="802.826" r="40.6035"/>
  <path class="fil17" d="M994.002 968.461c13.9122,0 25.1918,10.5449 25.1918,23.5512 0,13.0063 -14.85,23.5512 -25.1918,23.5512 -10.3417,0 -13.0158,-4.04292 -17.5429,-8.10827l0.101575 0.0011811c8.43898,0.0720473 12.287,-5.04449 12.287,-12.9331 0,-7.88977 -6.89292,-11.8725 -11.9988,-11.8725 -5.10473,0 -3.47362,0.282284 -5.0563,0.801969 4.18583,-7.58505 12.4536,-14.9917 22.2095,-14.9917z"/>
  <path class="fil18" d="M1522.79 780.364l-40.95 399.352 38.1744 3.91654c0.559843,0.0980316 1.12795,0.178347 1.70315,0.237402 13.0335,1.33701 24.6827,-8.14489 26.0197,-21.1772l-0.0614174 -0.011811 35.9646 -350.563c0.0980316,-0.561024 0.178347,-1.12913 0.237402,-1.70433 1.33701,-13.0323 -8.14489,-24.6815 -21.1772,-26.0185l-0.011811 0.0614174 -39.8988 -4.09252z"/>
  <path class="fil19" d="M1440.27 589.947l-86.941 752.541 35.5713 -13.4469 48.8882 -18.4807 15.9213 -6.0189c8.92678,-2.66103 15.8197,-10.4764 16.8284,-20.3185l-0.0602363 -0.011811 10.7268 -104.56 0.630709 0.0649607 40.95 -399.352 -0.611811 -0.0637796 13.8354 -134.85c1.99843,-11.1614 -4.26142,-22.4729 -15.2858,-26.4614l-0.022441 0.0637796 -80.4308 -29.1059z"/>
 </g>
</svg>
