<?xml version="1.0" encoding="utf-8"?>
<!-- Generator: Adobe Illustrator 24.3.0, SVG Export Plug-In . SVG Version: 6.00 Build 0)  -->
<svg version="1.1" id="Layer_1" xmlns="http://www.w3.org/2000/svg" xmlns:xlink="http://www.w3.org/1999/xlink" height="40px" width="40px" x="0px" y="0px"
	 viewBox="0 0 325 325" enable-background="new 0 0 325 325" xml:space="preserve">
<g id="civciv_1_">
	<g>
		<g>
			<path fill="#E3B41E" d="M175.674,228.143l-1.576,14.445c0,0,9.188-1.078,11.319-0.907c2.041,0.167,3.182,3.58-0.498,3.476
				c-4.357-0.122-6.568,0.483-6.568,0.483s8.19,1.758,10.429,2.659c2.241,0.906,0.877,5.381-3.089,2.703
				c-3.956-2.682-11.718-0.927-12.828-1.429c-1.107-0.508,6.042,1.417,7.974,2.703c1.369,0.906,0.271,3.304-1.985,2.976
				c-2.258-0.334-11.143-6.289-11.143-6.289l1.183-21.366L175.674,228.143z"/>
			<path fill="#EFCB53" d="M182.086,217.087c0,0-4.353,10.693-7.412,13.05c-3.06,2.359-7.788,1.455-9.707-6.131
				c-1.921-7.571-1.921-7.571-1.921-7.571L182.086,217.087z"/>
		</g>
	</g>
	<g>
		<g>
			<path fill="#E3B41E" d="M143.055,230.822l0.661,18.22c0,0,13.376,6.333,15.507,7.802c2.128,1.47,4.172,4.581-0.986,3.515
				c-5.164-1.057-12.179-4.381-12.179-4.381l7.466,11.89c0,0,0.828,5.795-3.959,2.557c-4.784-3.243-6.002-14.022-7.347-14.623
				c-1.345-0.618-3.068,1.787-3.699,3.678c-0.632,1.874-1.41,6.613-4.135,6.206c-2.727-0.394,2.078-13.954,2.078-13.954
				l0.967-20.812L143.055,230.822z"/>
			<path fill="#FFE94F" d="M153.375,218.214c0,0-5.262,12.933-8.963,15.769c-3.692,2.843-9.403,1.751-11.722-7.397
				c-2.32-9.164-2.32-9.164-2.32-9.164L153.375,218.214z"/>
		</g>
	</g>
	<g>
		<path fill="#E9CC20" d="M82.175,147.455c-0.422-2.091,1.101-2.538,1.101-2.538s9.36,14.578,33.945-0.89
			c24.589-15.468,45.868-14.507,45.868-14.507c17.558,1.567,36.484,2.361,45.629,2.684c-1.458,2.855-2.967,5.921-4.129,8.537
			c-3.239,7.282-0.402,17.846,2.426,25.893c1.281,3.647,3.776,7.823,2.854,14.785c-5.366,21.57-16.785,42.533-40.799,44.589
			c-75.05,6.418-87.795-67.896-89.062-74.18C78.742,145.541,79.139,145.762,82.175,147.455z"/>
		<path fill="#FFE94F" d="M82.557,148.015c-0.422-2.095,0.64-2.563,0.64-2.563s9.839,15.873,34.427,0.407
			c24.587-15.468,45.841-15.004,45.841-15.004c19.607,1.747,37.156,2.896,43.201,3.277c-1.137,2.268-2.255,4.574-3.159,6.609
			c-3.234,7.282,3.43,10.642,5.968,18.785c2.658,8.52,1.045,13.853-0.303,19.783c-3.776,21.58-16.114,41.696-36.409,45.311
			c-75.706,13.495-90.906-67.04-92.179-73.323C79.321,145.011,79.522,146.318,82.557,148.015z"/>
		<path fill="#FFE24E" d="M79.993,146.65c1.674,4.344,7.372,18.507,13.26,26.205c7.011,9.173,18.285,49.611,63.866,45.834
			c45.581-3.776,47.198-37.492,46.12-48.279c-1.078-10.788-28.049-23.195-28.049-23.195l30.727-11.578
			c-0.869,1.773-1.703,3.522-2.409,5.104c-3.234,7.282,1.971,7.953,4.869,15.974c2.529,7.004,2.145,16.663,0.796,22.594
			c-3.776,21.58-16.114,41.696-36.409,45.311c-75.706,13.495-90.906-67.04-92.179-73.323
			C79.932,148.051,79.676,146.841,79.993,146.65z"/>
		<path fill="#FDED5F" d="M87.021,148.517c0,0,10.333,20.221,22.084,19.511c11.748-0.714,39.659-17.299,49.184-18.435
			c12.621-1.511,17.93-20.426-2.529-17.695c-22.102,2.952-36.334,14.373-46.222,17.737C97.632,153.685,93.03,154.236,87.021,148.517
			z"/>
	</g>
	<g>
		<path fill="#FFE94F" d="M155.164,137.073c14.862,16.309,45.849,13.869,60.081-2.975c12.394-14.672,12.826-39.916-2.011-57.671
			c-2.5-2.993-7.107-6.286-12.024-6.651c-21.502-1.587-27.125-4.011-43.43,10.854C141.469,95.492,140.299,120.763,155.164,137.073z"
			/>
	</g>
	<g>
		<path fill="#E9CC20" d="M138.315,222.784c0,0-24.876-2.31-33.68-14.135c-3.78-5.048-1.568-14.27-1.568-14.27
			s-6.309-14.761,3.334-18.491c-7.623-12.577,1.789-25.826,16.909-18.319c15.12,7.515,28.537,26.355,28.537,26.355"/>
		<path fill="#FFE94F" d="M140.791,223.848c0,0-25.886-5.055-34.973-17.083c-3.851-5.132-1.34-11.521-1.34-11.521
			s-6.476-15.027,3.505-18.867c-7.853-12.8-0.789-24.911,14.799-17.3c15.592,7.597,29.347,24.615,29.347,24.615"/>
		<path fill="#FFE24E" d="M166.883,219.323c0,0-33.138,2.356-52.75-13.471c-8.162-6.588-9.51-10.385-9.51-10.385
			s-3.647,7.884,3.837,14.458C114.924,215.599,143.456,231.695,166.883,219.323z"/>
		<path fill="#FFE24E" d="M106.168,161.094c0,0-5.413,8.252,4.092,17.36c9.51,9.102,24.125,10.601,24.125,10.601
			S109.17,179.948,106.168,161.094z"/>
		<path fill="#FFE24E" d="M104.293,179.283c0,0-13.774,20.984,28.976,26.324C110.44,194.964,104.937,189.793,104.293,179.283z"/>
	</g>
	<g>
		<path fill="#DFC026" d="M190.928,72.802c0,0-4.403-2.195-8.527-3.105c-1.441-0.317-3.54-0.046-4.532,0.129
			c-3.834,0.674-2.607-9.606,7.331-5.725c-8.295-5.67-6.837-14.226,5.376-4.663c-3.119-6.107-3.824-7.682,3.017-3.523
			c2.324,1.416,5.933,3.198,7.894,8.059C206.51,76.421,190.928,72.802,190.928,72.802z"/>
		<path fill="#FFE94F" d="M190.722,73.323c0,0-9.632-4.869-12.884-4.303c-3.251,0.57-0.396-7.466,8.368-4.16
			c-7.413-6.219-7.079-12.971,4.992-4.332c-1.567-5.371-4.867-8.56,1.97-4.401c2.326,1.416,5.821,3.2,8.086,7.927
			C207.569,77.243,190.722,73.323,190.722,73.323z"/>
		<path fill="#966C1D" d="M183.281,62.072c0,0,3.46,3.511,6.046,3.927c-3.212-0.548-4.075-1.539-5.031-2.462
			C183.343,62.62,183.281,62.072,183.281,62.072z"/>
		<polygon fill="#966C1D" points="190.337,59.833 192.832,62.329 190.691,59.527 		"/>
	</g>
	<g>
		<g>
			<path fill="#903514" d="M228.346,119.291c0,0,5.129,10.628-2.243,14.034c-3.919,1.808-10.414,0.343-11.801-3.315
				c-0.629-1.664-1.146-4.519-0.501-6.53C215.532,118.08,228.346,119.291,228.346,119.291z"/>
			<path fill="#E54F13" d="M228.43,121.129c0,0,3.296,11.444-4.79,12.195c-1.906,0.1-2.409,0.1-4.869-0.251
				c-3.299-1.528-4.543-6.301-3.173-9.951C217.588,117.813,228.43,121.129,228.43,121.129z"/>
			<path fill="#B94218" d="M224.439,120.91c0,0,3.848,8.172-2.102,10.606c-1.285,0.525-2.83,1.627-3.816,1.455
				c-3.597-0.621-5.525-5.673-3.946-10.072C216.445,117.699,224.439,120.91,224.439,120.91z"/>
			<path fill="#903514" d="M217.919,132.871c0,0,3.211-0.65,5.372-1.905c-1.759,1.354-3.616,2.157-4.32,2.308
				C218.27,133.426,217.919,132.871,217.919,132.871z"/>
		</g>
		<g>
			<path fill="#966C1D" d="M224.475,110.977c0,0-10.934,3.632-5.484,9.341c5.201,5.445,22.307,5.583,17.199,0.751
				C234.351,119.333,224.475,110.977,224.475,110.977z"/>
			<g>
				<path fill="#F5A904" d="M224.798,111.338c0,0-10.728,3.074-5.234,8.907c4.352,4.612,21.099,5.502,15.992,0.673
					C233.718,119.18,224.798,111.338,224.798,111.338z"/>
			</g>
			<path fill="#CB7712" d="M221.212,114.259c0,0,6.642,7.634,11.453,8.244c4.813,0.608-2.377-6.97-4.757-8.573
				C225.53,112.324,221.212,114.259,221.212,114.259z"/>
			<g>
				<path fill="#903514" d="M225.251,113.706c0,0,13.166,0.664,8.686,2.71c-3.336,1.526-10.345,0.279-10.345,0.279l-2.321-2.381
					L225.251,113.706z"/>
				<path fill="#E54F13" d="M224.203,114.038c0,0,12.943,0.663,9.57,2.105c-3.373,1.435-10.511,0.332-10.511,0.332l-1.771-1.994
					L224.203,114.038z"/>
			</g>
			<path fill="#F49F04" d="M219.713,114.107c0,0-2.557,1.903-1.562,4.299c1.628,3.908,8.632,5.511,11.595,5.698
				c2.965,0.186,3.301,0.016,3.301,0.016S220.614,120.583,219.713,114.107z"/>
		</g>
		<g>
			<g>
				<path fill="#966C1D" d="M243.34,110.637c0,0-9.771,4.461-23.668,3.901c-3.31-4.832-0.349-11.871,3.443-14.912
					C234.005,103.195,252.122,109.968,243.34,110.637z"/>
				<path fill="#F5A904" d="M243.105,110.021c0,0-9.338,4.506-22.95,3.724c-2.729-4.241-0.897-10.299,2.896-13.343
					C233.939,103.969,251.12,110.413,243.105,110.021z"/>
			</g>
			<path fill="#F6AD02" d="M220.416,104.046c0,0,0.836-2.274,2.634-3.644c6.892,2.027,17.116,6.444,19.512,7.675
				c2.4,1.238-3.015,0.1-7.735,0.433c-4.72,0.33-4.918-2.917-7.957-2.503C223.827,106.425,219.672,106.568,220.416,104.046z"/>
		</g>
	</g>
	<g>
		<path fill="#E9CC20" d="M179.1,93.984c0,0,7.835-13.526,22.698-10.644C192.49,76.535,182.867,83.256,179.1,93.984z"/>
		<path fill="#FDF081" d="M185.564,122.087c-0.704,2.875,2.516,6.134,7.185,7.278c4.669,1.139,9.029-0.26,9.734-3.13
			c0.706-2.878-2.512-6.135-7.183-7.282C190.63,117.81,186.269,119.211,185.564,122.087z"/>
	</g>
	<path fill="#F3F2F3" d="M209.427,97.076c0,5.403-4.381,9.784-9.784,9.784c-5.403,0-9.781-4.381-9.781-9.784
		c0-5.405,4.379-9.785,9.781-9.785C205.045,87.291,209.427,91.671,209.427,97.076z"/>
	<path fill="#2D2D2E" d="M207.59,97.076c0,2.766-2.244,5.009-5.01,5.009c-2.767,0-5.01-2.243-5.01-5.009
		c0-2.768,2.243-5.01,5.01-5.01C205.346,92.066,207.59,94.308,207.59,97.076z"/>
	<path fill="#F3F2F3" d="M201.798,93.984c0,2.335-1.892,4.227-4.227,4.227c-2.334,0-4.227-1.892-4.227-4.227
		c0-2.333,1.893-4.227,4.227-4.227C199.906,89.758,201.798,91.651,201.798,93.984z"/>
	<g>
		<path fill="#E9CC20" d="M208.926,93.984c0.93,1.92,1.3,4.086,1.089,6.308c-0.116,1.11-0.408,2.245-0.954,3.318
			c-0.541,1.071-1.372,2.062-2.405,2.777c-1.036,0.714-2.226,1.129-3.39,1.304c-1.171,0.177-2.306,0.09-3.395-0.08
			c-2.165-0.407-4.126-1.282-5.846-2.527c2.125,0.067,4.126,0.256,6.023,0.175c1.887-0.088,3.629-0.443,4.901-1.337
			c1.284-0.866,2.176-2.336,2.764-4.105C208.307,98.047,208.629,96.075,208.926,93.984z"/>
	</g>
	<g>
		<path fill="#4D4D4C" d="M199.642,87.291c-1.6,0.836-3.056,1.637-4.33,2.554c-1.273,0.91-2.309,1.935-2.998,3.113
			c-0.693,1.174-1.053,2.549-1.155,4.096c-0.125,1.548,0.008,3.217,0.08,5.031c-1.226-1.342-2.067-2.998-2.433-4.865
			c-0.374-1.844-0.145-4.004,0.921-5.78c1.046-1.786,2.748-3.024,4.499-3.68C195.991,87.111,197.855,86.9,199.642,87.291z"/>
	</g>
</g>
</svg>
