<?xml version="1.0" encoding="UTF-8"?>
<!DOCTYPE svg PUBLIC "-//W3C//DTD SVG 1.1//EN" "http://www.w3.org/Graphics/SVG/1.1/DTD/svg11.dtd">
<!-- Creator: CorelDRAW -->
<svg xmlns="http://www.w3.org/2000/svg" xml:space="preserve" width="40px" height="40px" style="shape-rendering:geometricPrecision; text-rendering:geometricPrecision; image-rendering:optimizeQuality; fill-rule:evenodd; clip-rule:evenodd"
viewBox="0 0 2048 2048"
 xmlns:xlink="http://www.w3.org/1999/xlink">
 <defs>
  <style type="text/css">
   <![CDATA[
    .fil2 {fill:none}
    .fil1 {fill:#00ACC1}
    .fil9 {fill:#212121}
    .fil10 {fill:#424242}
    .fil0 {fill:#4DD0E1}
    .fil3 {fill:#6D4C41}
    .fil4 {fill:#8D6E63}
    .fil6 {fill:white}
    .fil7 {fill:#212121;fill-rule:nonzero}
    .fil8 {fill:#424242;fill-rule:nonzero}
    .fil5 {fill:#4E342E;fill-rule:nonzero}
   ]]>
  </style>
   <clipPath id="id0">
    <path d="M1024 -0.0011811c565.539,0 1024,458.462 1024,1024 0,565.539 -458.462,1024 -1024,1024 -565.539,0 -1024,-458.462 -1024,-1024 0,-565.539 458.462,-1024 1024,-1024z"/>
   </clipPath>
 </defs>
 <g id="Layer_x0020_1">
  <metadata id="CorelCorpID_0Corel-Layer"/>
  <path class="fil0" d="M1024 -0.0011811c565.539,0 1024,458.462 1024,1024 0,565.539 -458.462,1024 -1024,1024 -565.539,0 -1024,-458.462 -1024,-1024 0,-565.539 458.462,-1024 1024,-1024z"/>
  <g style="clip-path:url(#id0)">
   <g id="_300471992">
    <g>
     <polygon id="_3603581601" class="fil1" points="1500.81,617.82 2636.69,1753.7 2643.67,1762.02 2650.34,1770.66 2656.71,1779.58 2662.78,1788.79 1526.9,652.904 1520.83,643.702 1514.46,634.775 1507.79,626.139 "/>
     <polygon id="_360358304" class="fil1" points="1526.9,652.904 2662.78,1788.79 2665.89,1793.79 2668.9,1798.87 2671.83,1804.01 2674.67,1809.22 2677.42,1814.49 2680.08,1819.81 2682.65,1825.19 2685.13,1830.62 2687.53,1836.1 2689.83,1841.62 2692.05,1847.18 2694.19,1852.78 2696.23,1858.42 2698.19,1864.08 2700.06,1869.77 2701.85,1875.49 2703.55,1881.23 2705.16,1886.98 2706.69,1892.75 2708.13,1898.53 2709.49,1904.31 2710.76,1910.1 2711.95,1915.89 2713.06,1921.68 2714.08,1927.46 2715.02,1933.23 2715.87,1938.99 2716.64,1944.74 2717.33,1950.46 2717.94,1956.16 2718.46,1961.84 2718.9,1967.49 1583.02,831.604 1582.58,825.959 1582.06,820.282 1581.45,814.581 1580.76,808.856 1579.99,803.112 1579.14,797.352 1578.2,791.58 1577.18,785.799 1576.07,780.01 1574.88,774.22 1573.61,768.431 1572.25,762.644 1570.81,756.865 1569.28,751.098 1567.66,745.343 1565.96,739.607 1564.18,733.892 1562.31,728.2 1560.35,722.535 1558.3,716.901 1556.17,711.301 1553.95,705.739 1551.65,700.217 1549.25,694.739 1546.77,689.31 1544.2,683.93 1541.54,678.604 1538.79,673.336 1535.95,668.129 1533.02,662.985 1530.01,657.91 "/>
     <polygon id="_360358232" class="fil1" points="1333.64,729.015 2469.52,1864.9 2468.27,1863.57 2466.99,1862.31 2465.67,1861.11 2464.31,1859.99 2462.92,1858.94 2461.48,1857.95 2460.01,1857.04 2458.49,1856.2 2456.93,1855.44 2455.33,1854.75 2453.69,1854.14 2452,1853.6 2450.27,1853.14 2448.5,1852.76 2446.68,1852.46 2444.81,1852.24 2442.89,1852.1 2440.93,1852.05 2438.91,1852.08 2436.85,1852.19 2434.73,1852.39 2432.57,1852.67 2430.35,1853.04 2428.08,1853.5 2425.75,1854.05 1289.87,718.169 1292.19,717.619 1294.47,717.16 1296.68,716.788 1298.85,716.503 1300.97,716.306 1303.03,716.194 1305.04,716.166 1307.01,716.221 1308.93,716.359 1310.8,716.579 1312.62,716.88 1314.39,717.26 1316.12,717.719 1317.81,718.255 1319.45,718.869 1321.05,719.558 1322.61,720.322 1324.12,721.16 1325.6,722.071 1327.03,723.054 1328.43,724.107 1329.79,725.232 1331.11,726.425 1332.39,727.686 "/>
     <polygon id="_360358496" class="fil1" points="1289.87,718.169 2425.75,1854.05 2430.55,1862.01 2435.24,1870.11 2439.83,1878.36 2444.31,1886.74 2448.7,1895.26 2452.97,1903.91 2457.14,1912.69 2461.2,1921.59 2465.16,1930.62 2469,1939.77 2472.74,1949.04 2476.37,1958.42 2479.9,1967.91 2483.31,1977.51 2486.61,1987.22 2489.8,1997.03 2492.88,2006.95 2495.85,2016.95 2498.7,2027.06 2501.45,2037.25 2504.07,2047.54 2506.59,2057.9 2508.99,2068.36 2511.28,2078.89 2513.45,2089.5 2515.5,2100.18 2517.44,2110.93 2519.26,2121.75 2520.97,2132.64 2522.55,2143.59 2524.02,2154.59 2525.36,2165.66 1389.48,1029.78 1388.14,1018.71 1386.67,1007.7 1385.08,996.755 1383.38,985.869 1381.56,975.049 1379.62,964.295 1377.57,953.613 1375.4,943.006 1373.11,932.474 1370.71,922.022 1368.19,911.655 1365.56,901.371 1362.82,891.177 1359.97,881.072 1357,871.064 1353.92,861.152 1350.73,851.34 1347.43,841.632 1344.01,832.029 1340.49,822.536 1336.86,813.154 1333.12,803.887 1329.27,794.737 1325.32,785.709 1321.26,776.803 1317.09,768.024 1312.81,759.375 1308.43,750.858 1303.95,742.476 1299.36,734.232 1294.67,726.128 "/>
     <polygon id="_360358520" class="fil1" points="1429.33,996.432 2565.22,2132.31 2561.7,2129.8 2558.4,2127.38 2555.3,2125.05 2552.4,2122.8 2549.68,2120.63 2547.14,2118.51 2544.78,2116.46 2542.58,2114.45 2540.54,2112.48 2538.66,2110.54 1402.77,974.662 1404.66,976.6 1406.7,978.569 1408.9,980.577 1411.26,982.632 1413.8,984.744 1416.51,986.919 1419.42,989.168 1422.52,991.497 1425.82,993.916 "/>
     <polygon id="_360357848" class="fil1" points="1583.02,831.604 2718.9,1967.49 2719.27,1973.26 2719.55,1978.99 2719.75,1984.7 2719.86,1990.37 2719.88,1995.99 2719.81,2001.58 2719.66,2007.11 2719.43,2012.6 2719.11,2018.03 2718.7,2023.4 2718.21,2028.71 2717.64,2033.96 2716.98,2039.13 2716.24,2044.24 2715.41,2049.27 2714.51,2054.22 2713.52,2059.09 2712.44,2063.87 2711.29,2068.57 2710.05,2073.17 2708.73,2077.67 2707.33,2082.08 2705.85,2086.38 2704.29,2090.58 2702.65,2094.67 2700.93,2098.64 2699.13,2102.49 2697.25,2106.23 2695.29,2109.84 2693.25,2113.32 2691.13,2116.68 2688.94,2119.89 1553.06,984.013 1555.25,980.794 1557.37,977.441 1559.41,973.958 1561.37,970.346 1563.25,966.611 1565.05,962.755 1566.77,958.783 1568.41,954.696 1569.97,950.501 1571.45,946.198 1572.85,941.792 1574.17,937.287 1575.41,932.685 1576.56,927.99 1577.63,923.207 1578.62,918.339 1579.53,913.387 1580.36,908.357 1581.1,903.251 1581.76,898.073 1582.33,892.828 1582.82,887.516 1583.23,882.145 1583.55,876.715 1583.78,871.23 1583.93,865.694 1584,860.111 1583.98,854.485 1583.87,848.816 1583.67,843.112 1583.39,837.373 "/>
     <polygon id="_360358016" class="fil1" points="1553.06,984.013 2688.94,2119.89 2686.28,2123.5 2683.54,2126.94 2680.71,2130.21 2677.81,2133.3 2674.82,2136.21 2671.76,2138.94 2668.62,2141.48 2665.39,2143.82 2662.09,2145.97 2658.71,2147.92 2655.25,2149.66 2651.71,2151.2 2648.09,2152.52 2644.4,2153.63 2640.63,2154.52 2636.79,2155.19 2632.87,2155.63 2628.87,2155.84 2624.8,2155.81 2620.65,2155.55 2616.43,2155.04 2612.14,2154.28 2607.77,2153.28 2603.33,2152.02 2598.82,2150.5 2594.23,2148.72 2589.57,2146.67 2584.84,2144.36 2580.04,2141.77 2575.17,2138.9 2570.23,2135.75 2565.22,2132.31 1429.33,996.432 1434.35,999.867 1439.29,1003.02 1444.16,1005.88 1448.96,1008.47 1453.69,1010.79 1458.35,1012.84 1462.93,1014.62 1467.45,1016.14 1471.89,1017.4 1476.26,1018.4 1480.55,1019.16 1484.77,1019.66 1488.92,1019.93 1492.99,1019.96 1496.99,1019.75 1500.91,1019.31 1504.75,1018.64 1508.52,1017.75 1512.21,1016.64 1515.83,1015.32 1519.37,1013.78 1522.83,1012.04 1526.21,1010.09 1529.51,1007.94 1532.73,1005.59 1535.88,1003.06 1538.94,1000.33 1541.93,997.42 1544.83,994.33 1547.65,991.063 1550.4,987.622 "/>
     <polygon id="_360358616" class="fil1" points="758.608,718.29 1894.49,1854.17 1892.14,1853.6 1889.84,1853.12 1887.6,1852.73 1885.41,1852.43 1883.27,1852.22 1881.19,1852.09 1879.15,1852.05 1877.17,1852.09 1875.23,1852.22 1873.34,1852.43 1871.5,1852.72 1869.71,1853.09 1867.96,1853.54 1866.26,1854.07 1864.6,1854.68 1862.99,1855.37 1861.42,1856.13 1859.89,1856.96 1858.4,1857.88 1856.95,1858.86 1855.55,1859.91 1854.18,1861.04 1852.85,1862.24 1851.55,1863.5 1850.3,1864.84 1849.07,1866.24 1847.89,1867.7 1846.74,1869.24 1845.62,1870.83 1844.53,1872.49 1843.48,1874.21 1842.45,1876 706.571,740.114 707.595,738.331 708.649,736.609 709.736,734.95 710.854,733.354 712.007,731.822 713.193,730.355 714.414,728.954 715.672,727.621 716.965,726.355 718.296,725.158 719.665,724.032 721.072,722.977 722.52,721.993 724.008,721.082 725.536,720.246 727.108,719.484 728.722,718.799 730.38,718.19 732.082,717.66 733.829,717.207 735.622,716.835 737.462,716.545 739.349,716.334 741.285,716.208 743.271,716.164 745.306,716.207 747.392,716.333 749.528,716.548 751.718,716.849 753.961,717.24 756.257,717.72 "/>
     <polygon id="_360359336" class="fil1" points="706.571,740.114 1842.45,1876 1840.72,1879.23 1839.05,1882.6 1837.42,1886.13 1835.84,1889.8 1834.31,1893.61 1832.82,1897.55 1831.38,1901.63 1829.97,1905.84 1828.6,1910.17 1827.27,1914.63 1825.97,1919.21 1824.71,1923.91 1823.47,1928.71 1822.27,1933.63 1821.09,1938.66 1819.94,1943.78 1818.81,1949.01 1817.7,1954.34 1816.61,1959.75 1815.53,1965.26 1814.48,1970.85 1813.43,1976.53 1812.4,1982.29 1811.38,1988.12 1810.36,1994.03 1809.35,2000.01 1808.35,2006.05 1807.34,2012.16 1806.34,2018.32 1805.34,2024.55 1804.33,2030.82 1803.31,2037.15 667.432,901.267 668.445,894.941 669.454,888.664 670.459,882.441 671.462,876.274 672.466,870.167 673.471,864.123 674.48,858.147 675.495,852.24 676.518,846.406 677.551,840.649 678.595,834.972 679.652,829.378 680.725,823.87 681.815,818.454 682.926,813.129 684.056,807.902 685.21,802.773 686.389,797.749 687.593,792.831 688.828,788.024 690.093,783.329 691.39,778.751 692.722,774.292 694.09,769.958 695.496,765.749 696.943,761.67 698.431,757.725 699.963,753.916 701.542,750.247 703.169,746.722 704.843,743.343 "/>
     <polygon id="_360359360" class="fil1" points="618.665,996.432 1754.55,2132.31 1749.54,2135.75 1744.59,2138.9 1739.72,2141.77 1734.92,2144.36 1730.19,2146.67 1725.53,2148.72 1720.95,2150.5 1716.43,2152.02 1711.99,2153.28 1707.62,2154.28 1703.33,2155.04 1699.11,2155.55 1694.96,2155.81 1690.89,2155.84 1686.89,2155.63 1682.97,2155.19 1679.13,2154.52 1675.36,2153.63 1671.67,2152.52 1668.05,2151.2 1664.51,2149.66 1661.06,2147.92 1657.67,2145.97 1654.37,2143.82 1651.15,2141.48 1648,2138.94 1644.94,2136.21 509.057,1000.33 512.122,1003.06 515.266,1005.59 518.49,1007.94 521.793,1010.09 525.174,1012.04 528.633,1013.78 532.172,1015.32 535.786,1016.64 539.478,1017.75 543.247,1018.64 547.093,1019.31 551.013,1019.75 555.01,1019.96 559.081,1019.93 563.228,1019.66 567.448,1019.16 571.743,1018.4 576.11,1017.4 580.551,1016.14 585.065,1014.62 589.652,1012.84 594.31,1010.79 599.039,1008.47 603.84,1005.88 608.711,1003.02 613.654,999.867 "/>
     <polygon id="_360358832" class="fil1" points="834.344,1449.69 1970.23,2585.57 1969.18,2584.93 1968.13,2584.29 1967.09,2583.65 1966.04,2583 1965,2582.35 1963.96,2581.69 1962.93,2581.03 1961.89,2580.36 1960.86,2579.7 1959.83,2579.03 1958.8,2578.35 1957.77,2577.67 1956.75,2576.99 1955.72,2576.31 1954.7,2575.62 1953.68,2574.92 817.801,1439.04 818.82,1439.73 819.842,1440.42 820.864,1441.11 821.89,1441.79 822.917,1442.47 823.946,1443.14 824.977,1443.81 826.01,1444.48 827.045,1445.15 828.082,1445.81 829.122,1446.46 830.162,1447.11 831.205,1447.76 832.249,1448.41 833.296,1449.05 "/>
     <polygon id="_360359024" class="fil1" points="817.801,1439.04 1953.68,2574.92 1943.56,2567.76 1933.64,2560.22 1923.96,2552.32 1914.52,2544.05 778.641,1408.17 788.082,1416.44 797.763,1424.34 807.674,1431.87 "/>
     <polygon id="_360358976" class="fil1" points="1389.48,1029.78 2525.36,2165.66 2527.37,2185.31 2528.77,2204.54 2529.59,2223.35 2529.84,2241.74 2529.53,2259.71 2528.68,2277.25 2527.28,2294.38 2525.37,2311.09 2522.95,2327.38 2520.03,2343.25 2516.63,2358.7 2512.76,2373.74 2508.42,2388.36 2503.64,2402.56 2498.43,2416.35 2492.8,2429.72 2486.76,2442.67 2480.32,2455.21 2473.5,2467.33 2466.31,2479.04 2458.76,2490.34 2450.87,2501.22 2442.64,2511.69 2434.1,2521.75 2425.24,2531.4 2416.09,2540.63 2406.66,2549.45 2396.96,2557.87 2387,2565.87 2376.8,2573.46 2366.37,2580.64 2355.71,2587.41 1219.83,1451.53 1230.48,1444.76 1240.92,1437.58 1251.12,1429.98 1261.08,1421.98 1270.78,1413.57 1280.21,1404.75 1289.36,1395.51 1298.22,1385.87 1306.76,1375.81 1314.99,1365.34 1322.88,1354.46 1330.43,1343.16 1337.62,1331.45 1344.44,1319.33 1350.88,1306.79 1356.92,1293.83 1362.55,1280.46 1367.76,1266.68 1372.54,1252.48 1376.87,1237.86 1380.75,1222.82 1384.15,1207.37 1387.07,1191.5 1389.49,1175.21 1391.4,1158.5 1392.79,1141.37 1393.65,1123.82 1393.96,1105.86 1393.71,1087.47 1392.89,1068.66 1391.49,1049.43 "/>
     <polygon id="_360358880" class="fil1" points="667.432,901.267 1803.31,2037.15 1801.76,2046.83 665.879,910.95 "/>
     <polygon id="_360359216" class="fil1" points="665.879,910.95 1801.76,2046.83 1799.98,2058.86 664.097,922.974 "/>
     <polygon id="_360359120" class="fil1" points="664.097,922.974 1799.98,2058.86 1799.48,2062.22 1799,2065.44 1798.52,2068.51 1798.05,2071.44 1797.57,2074.25 1797.08,2076.94 1796.57,2079.52 1796.02,2081.99 1795.44,2084.37 1794.82,2086.67 1794.14,2088.88 1793.4,2091.03 1792.6,2093.12 1791.72,2095.15 1790.76,2097.14 1789.71,2099.1 1788.57,2101.03 1787.31,2102.94 1785.95,2104.83 1784.47,2106.73 1782.85,2108.63 1781.11,2110.54 1779.22,2112.48 1777.18,2114.45 1774.98,2116.46 1772.62,2118.51 1770.08,2120.63 1767.37,2122.8 1764.46,2125.05 1761.36,2127.38 1758.06,2129.8 1754.55,2132.31 618.665,996.432 622.179,993.916 625.482,991.497 628.581,989.168 631.485,986.919 634.202,984.744 636.737,982.632 639.1,980.577 641.297,978.569 643.336,976.6 645.226,974.662 646.973,972.746 648.584,970.846 650.069,968.95 651.433,967.053 652.685,965.144 653.832,963.217 654.88,961.262 655.841,959.271 656.718,957.236 657.523,955.149 658.258,953 658.935,950.783 659.56,948.489 660.14,946.109 660.684,943.634 661.199,941.057 661.692,938.369 662.17,935.561 662.643,932.626 663.116,929.557 663.598,926.342 "/>
     <polygon id="_360358952" class="fil1" points="1219.83,1451.53 2355.71,2587.41 2350.24,2590.69 2344.71,2593.85 2339.14,2596.91 2333.52,2599.86 2327.85,2602.71 2322.14,2605.45 2316.38,2608.09 2310.58,2610.62 2304.75,2613.04 2298.87,2615.36 2292.96,2617.57 2287.01,2619.68 2281.03,2621.68 2275.02,2623.58 2268.98,2625.37 2262.91,2627.06 2256.82,2628.64 2250.7,2630.11 2244.55,2631.48 2238.39,2632.75 2232.2,2633.91 2226,2634.96 2219.78,2635.91 2213.54,2636.76 2207.29,2637.5 2201.03,2638.13 2194.75,2638.67 2188.47,2639.09 2182.18,2639.42 2175.89,2639.63 2169.59,2639.75 2163.29,2639.76 1027.41,1503.88 1033.71,1503.87 1040.01,1503.75 1046.3,1503.53 1052.59,1503.21 1058.87,1502.78 1065.15,1502.25 1071.41,1501.62 1077.66,1500.88 1083.89,1500.03 1090.12,1499.08 1096.32,1498.02 1102.51,1496.86 1108.67,1495.6 1114.82,1494.23 1120.94,1492.75 1127.03,1491.17 1133.1,1489.49 1139.14,1487.7 1145.15,1485.8 1151.13,1483.8 1157.08,1481.69 1162.99,1479.48 1168.86,1477.16 1174.7,1474.74 1180.5,1472.21 1186.25,1469.57 1191.97,1466.83 1197.64,1463.98 1203.26,1461.03 1208.83,1457.97 1214.36,1454.8 "/>
     <polygon id="_360359144" class="fil1" points="1027.41,1503.88 2163.29,2639.76 2157,2639.66 2150.71,2639.47 2144.41,2639.16 2138.13,2638.76 2131.85,2638.25 2125.57,2637.64 2119.31,2636.92 2113.05,2636.1 2106.81,2635.18 2100.58,2634.15 2094.36,2633.02 2088.17,2631.79 2081.99,2630.45 2075.83,2629.01 2069.69,2627.47 2063.57,2625.83 2057.48,2624.08 2051.42,2622.23 2045.39,2620.28 2039.38,2618.22 2033.41,2616.06 2027.46,2613.8 2021.56,2611.44 2015.69,2608.97 2009.86,2606.41 2004.06,2603.74 1998.31,2600.96 1992.6,2598.09 1986.94,2595.11 1981.32,2592.03 1975.75,2588.85 1970.23,2585.57 834.344,1449.69 839.866,1452.97 845.437,1456.15 851.056,1459.23 856.72,1462.21 862.43,1465.08 868.181,1467.85 873.974,1470.52 879.806,1473.09 885.676,1475.56 891.583,1477.92 897.524,1480.18 903.498,1482.34 909.504,1484.39 915.539,1486.35 921.602,1488.2 927.692,1489.95 933.807,1491.59 939.944,1493.13 946.105,1494.57 952.285,1495.91 958.482,1497.14 964.697,1498.27 970.927,1499.29 977.17,1500.22 983.426,1501.04 989.691,1501.75 995.965,1502.37 1002.25,1502.88 1008.53,1503.28 1014.82,1503.58 1021.12,1503.78 "/>
    </g>
    <path id="_300472232" class="fil1" d="M1176.61 595.614c172.951,-98.6599 287.147,-42.2422 350.292,57.2906 33.6236,52.9985 51.8433,118.642 56.1248,178.7 4.39725,61.6819 -6.13701,118.806 -29.9681,152.408 -27.9319,39.3874 -69.8882,50.5949 -123.721,12.4193 -38.628,-27.3898 -40.004,-36.6981 -45.4311,-73.4575l-1.78228 -12.0248 -1.55315 -9.68268c-10.852,-67.7363 -20.4319,-127.52 -39.1394,-161.153 -10.6878,-19.2177 -26.4638,-28.2827 -51.5599,-21.9449 51.7146,84.1217 85.8804,193.298 99.6142,311.608 24.5965,211.873 -54.8835,351.695 -169.654,421.753 -58.1079,35.4709 -125.209,52.7965 -192.419,52.3453 -67.1233,-0.45 -134.436,-18.6354 -193.066,-54.1855 -5.59607,-3.39331 -11.113,-6.94253 -16.5437,-10.6488 -109.142,-74.478 -183.163,-211.927 -159.268,-409.356 14.3008,-118.168 48.4985,-227.28 100.076,-311.394 -25.3736,-6.57284 -41.2819,2.48386 -52.037,21.8232 -18.7075,33.6331 -28.2874,93.417 -39.1394,161.153l-1.55315 9.68268 -1.78228 12.0248c-5.42717,36.7595 -6.80315,46.0678 -45.4311,73.4575 -53.8323,38.1756 -95.7887,26.9681 -123.721,-12.4193 -23.8311,-33.6024 -34.3654,-90.7264 -29.9681,-152.408 4.2815,-60.0579 22.5012,-125.701 56.1248,-178.7 63.1619,-99.5587 177.399,-155.98 350.427,-57.2138 44.8406,-30.2008 95.8513,-47.1367 152.479,-47.1367 56.5878,0 107.665,16.904 152.599,47.0599z"/>
   </g>
  </g>
  <path class="fil2" d="M1024 -0.0011811c565.539,0 1024,458.462 1024,1024 0,565.539 -458.462,1024 -1024,1024 -565.539,0 -1024,-458.462 -1024,-1024 0,-565.539 458.462,-1024 1024,-1024z"/>
  <path class="fil3" d="M1024.01 548.554c98.4627,0 180.243,51.1807 242.002,134.295 65.1201,87.6379 107.726,211.279 123.473,346.928 24.5965,211.873 -54.8835,351.695 -169.654,421.753 -58.1079,35.4709 -125.209,52.7965 -192.419,52.3453 -67.1233,-0.45 -134.436,-18.6354 -193.066,-54.1855 -118.078,-71.5985 -200.896,-212.753 -175.812,-420.005 16.4327,-135.778 59.1331,-259.601 124.285,-347.282 61.5532,-82.8379 142.911,-133.849 241.191,-133.849z"/>
  <path class="fil4" d="M1267.49 1416.48c-9.37796,8.22757 -19.1315,15.8705 -29.204,22.9429 -44.817,-1.72205 -85.6961,-9.99213 -120.807,-27.8481 -39.7347,-20.2063 -71.7969,-52.3772 -93.4737,-100.73 -21.6768,48.3532 -53.7378,80.5241 -93.4725,100.73 -32.9906,16.7776 -71.0741,25.0914 -112.732,27.4642 -10.1658,-6.93662 -20.0197,-14.4284 -29.5252,-22.4551 49.7764,0.292914 94.6312,-6.84922 131.723,-25.7126 41.7591,-21.2374 74.0729,-57.7654 92.9753,-115.983l11.0315 3.58701 11.0327 -3.58701c18.9036,58.2178 51.2162,94.7457 92.9753,115.983 39.0083,19.8366 86.6032,26.7118 139.476,25.6087z"/>
  <path class="fil5" d="M873.485 596.813c-174.123,-100.312 -288.984,-43.8414 -352.383,56.0918 -33.6236,52.9985 -51.8433,118.642 -56.1248,178.7 -4.39725,61.6819 6.13701,118.806 29.9681,152.408 27.9319,39.3874 69.8882,50.5949 123.721,12.4193 38.628,-27.3898 40.004,-36.6981 45.4311,-73.4575 0.809056,-5.47441 1.70315,-11.5299 1.78228,-12.0248l1.55315 -9.68268c10.852,-67.7363 20.4319,-127.52 39.1394,-161.153 11.4673,-20.6197 28.7918,-29.55 57.202,-20.3103 8.06575,-13.1681 16.6382,-25.924 25.7457,-38.1815 24.5067,-32.9823 52.539,-61.8119 83.9658,-84.8091z"/>
  <path class="fil5" d="M1173.54 597.377c174.67,-101.088 289.843,-44.5926 353.36,55.5272 33.6236,52.9985 51.8433,118.642 56.1248,178.7 4.39725,61.6819 -6.13701,118.806 -29.9681,152.408 -27.9319,39.3874 -69.8882,50.5949 -123.721,12.4193 -38.628,-27.3898 -40.004,-36.6981 -45.4311,-73.4575 -0.809056,-5.47441 -1.70315,-11.5299 -1.78228,-12.0248l-1.55315 -9.68268c-10.852,-67.7363 -20.4319,-127.52 -39.1394,-161.153 -11.6303,-20.9126 -29.2866,-29.8028 -58.4221,-19.904 -8.05512,-13.1516 -16.6181,-25.8933 -25.7197,-38.1425 -24.4406,-32.8914 -52.4056,-61.6772 -83.7485,-84.6898z"/>
  <path class="fil6" d="M906.427 801.989c17.5854,0 33.0721,8.92205 43.8874,23.3445 9.37324,12.4984 15.1725,29.3233 15.1725,47.5087 0,18.1843 -5.79922,35.0091 -15.1725,47.5087 -10.8177,14.4225 -26.302,23.3445 -43.8874,23.3445 -17.5866,0 -33.0721,-8.92205 -43.8886,-23.3445 -9.37442,-12.4996 -15.1736,-29.3244 -15.1736,-47.5087 0,-18.1843 5.79922,-35.0103 15.1725,-47.5087 10.8177,-14.4213 26.3032,-23.3445 43.8898,-23.3445z"/>
  <path class="fil7" d="M921.272 843.987c-5.04095,-3.97796 -10.6406,-6.44174 -15.5941,-6.44174 -4.95709,0 -10.5567,2.46378 -15.5965,6.44174 -8.70473,6.87166 -14.0917,17.0351 -14.0917,28.8555 0,11.8193 5.38937,21.9839 14.0941,28.8555 5.03977,3.97796 10.6394,6.44174 15.5941,6.44174 4.95355,0 10.5532,-2.46378 15.5941,-6.44174 8.70473,-6.87166 14.0906,-17.0351 14.0906,-28.8555 0,-11.8205 -5.38583,-21.9839 -14.0906,-28.8555z"/>
  <path class="fil8" d="M921.271 843.987c-0.360236,-0.284646 -0.722835,-0.561024 -1.08898,-0.830316 -1.29685,0.115748 -2.7189,0.783071 -4.00985,1.80236 -2.46024,1.94173 -3.98268,4.81418 -3.98268,8.15552 0,3.34134 1.52244,6.21378 3.98386,8.15552 1.42441,1.12441 3.00709,1.82008 4.4067,1.82008 1.40079,0 2.98229,-0.69567 4.40788,-1.82008 2.45906,-1.94173 3.98268,-4.81418 3.98268,-8.15552 0,-0.351969 -0.0177165,-0.698032 -0.0507874,-1.03819 -2.11063,-3.03425 -4.6878,-5.75197 -7.64882,-8.08938z"/>
  <path class="fil6" d="M1141.57 801.989c17.5854,0 33.0721,8.92205 43.8886,23.3445 9.37324,12.4984 15.1725,29.3233 15.1725,47.5087 0,18.1843 -5.79922,35.0091 -15.1725,47.5087 -10.8177,14.4225 -26.3032,23.3445 -43.8886,23.3445 -17.5866,0 -33.0721,-8.92205 -43.8874,-23.3445 -9.37442,-12.4996 -15.1736,-29.3244 -15.1736,-47.5087 0,-18.1843 5.79922,-35.0103 15.1725,-47.5087 10.8177,-14.4213 26.302,-23.3445 43.8886,-23.3445z"/>
  <path class="fil7" d="M1156.42 843.987c-5.03977,-3.97796 -10.6406,-6.44174 -15.5941,-6.44174 -4.95591,0 -10.5555,2.46378 -15.5965,6.44174 -8.70473,6.87166 -14.0917,17.0351 -14.0917,28.8555 0,11.8193 5.38937,21.9839 14.0941,28.8555 5.04095,3.97796 10.6406,6.44174 15.5941,6.44174 4.95355,0 10.5543,-2.46378 15.5941,-6.44174 8.70473,-6.87166 14.0917,-17.0351 14.0917,-28.8555 0,-11.8205 -5.38701,-21.9839 -14.0917,-28.8555z"/>
  <path class="fil8" d="M1156.42 843.987c-0.360236,-0.284646 -0.722835,-0.561024 -1.08898,-0.830316 -1.29803,0.115748 -2.7189,0.783071 -4.00985,1.80236 -2.46024,1.94173 -3.98268,4.81418 -3.98268,8.15552 0,3.34134 1.52244,6.21378 3.98268,8.15552 1.42441,1.12441 3.00709,1.82008 4.4067,1.82008 1.40079,0 2.98347,-0.69567 4.40788,-1.82008 2.46024,-1.94173 3.98268,-4.81418 3.98268,-8.15552 0,-0.351969 -0.0165354,-0.698032 -0.0496063,-1.03819 -2.11063,-3.03425 -4.6878,-5.75197 -7.64882,-8.08938z"/>
  <path class="fil9" d="M1024.01 1096.19c38.5512,0 73.7564,10.6193 99.508,27.7878 28.239,18.8256 45.7063,45.6343 45.7063,75.9627 0,30.3284 -17.4673,57.1382 -45.7063,75.9627 -25.7516,17.1685 -60.9567,27.7878 -99.508,27.7878 -38.5536,0 -73.7575,-10.6193 -99.5091,-27.7878 -28.239,-18.8244 -45.7063,-45.6343 -45.7063,-75.9627 0,-30.3284 17.4673,-57.1371 45.7063,-75.9627 25.7504,-17.1685 60.9567,-27.7878 99.5091,-27.7878z"/>
  <ellipse class="fil10" transform="matrix(1.28096 -0.292245 0.292245 1.28096 973.658 1172.29)" rx="31.9996" ry="16.0004"/>
 </g>
</svg>
