<?xml version="1.0" encoding="UTF-8"?>
<!DOCTYPE svg PUBLIC "-//W3C//DTD SVG 1.1//EN" "http://www.w3.org/Graphics/SVG/1.1/DTD/svg11.dtd">
<!-- Creator: CorelDRAW -->
<svg xmlns="http://www.w3.org/2000/svg" xml:space="preserve" width="30px" height="30px" style="shape-rendering:geometricPrecision; text-rendering:geometricPrecision; image-rendering:optimizeQuality; fill-rule:evenodd; clip-rule:evenodd"
viewBox="0 0 6.82666 6.82666"
 xmlns:xlink="http://www.w3.org/1999/xlink">
 <defs>
  <style type="text/css">
   <![CDATA[
    .fil0 {fill:none}
    .fil1 {fill:#212121;fill-rule:nonzero}
    .fil2 {fill:#66BB6A;fill-rule:nonzero}
   ]]>
  </style>
 </defs>
 <g id="Layer_x0020_1">
  <metadata id="CorelCorpID_0Corel-Layer"/>
  <g id="_372406360">
   <rect id="_372405664" class="fil0" width="6.82666" height="6.82666"/>
   <rect id="_372406072" class="fil0" x="0.853331" y="0.853331" width="5.12" height="5.12"/>
  </g>
  <path class="fil1" d="M5.70122 3.41333c-0.765976,-0.630858 -1.5288,-0.95552 -2.2883,-0.960358 -0.76063,-0.00484252 -1.52406,0.310799 -2.29041,0.960358 0.76635,0.649559 1.52978,0.965201 2.29041,0.960358 0.759504,-0.00483858 1.52233,-0.3295 2.2883,-0.960358zm-2.28747 -1.17286c0.84422,0.00537795 1.68487,0.374724 2.52208,1.09203l0.0943465 0.0808346 -0.0943465 0.0808346c-0.837213,0.717303 -1.67786,1.08665 -2.52208,1.09203 -0.844461,0.00537795 -1.6859,-0.353709 -2.52417,-1.09328l-0.0902008 -0.0795827 0.0902008 -0.0795827c0.838268,-0.739571 1.67971,-1.09866 2.52417,-1.09328z"/>
  <path class="fil2" d="M3.41333 2.53333c0.242992,0 0.462992,0.0985039 0.622248,0.257756 0.159252,0.159256 0.257756,0.379256 0.257756,0.622248 0,0.242992 -0.0985039,0.462992 -0.257756,0.622248 -0.159256,0.159252 -0.379256,0.257756 -0.622248,0.257756 -0.242992,0 -0.462992,-0.0985039 -0.622248,-0.257756 -0.159252,-0.159256 -0.257756,-0.379256 -0.257756,-0.622248 0,-0.242992 0.0985039,-0.462992 0.257756,-0.622248 0.159256,-0.159252 0.379256,-0.257756 0.622248,-0.257756zm0.471413 0.408591c-0.120638,-0.120634 -0.287307,-0.195252 -0.471413,-0.195252 -0.184106,0 -0.350776,0.0746181 -0.471413,0.195252 -0.120634,0.120638 -0.195252,0.287307 -0.195252,0.471413 0,0.184106 0.0746181,0.350776 0.195252,0.471413 0.120638,0.120634 0.287307,0.195252 0.471413,0.195252 0.184106,0 0.350776,-0.0746181 0.471413,-0.195252 0.120634,-0.120638 0.195252,-0.287307 0.195252,-0.471413 0,-0.184106 -0.0746181,-0.350776 -0.195252,-0.471413z"/>
  <path class="fil2" d="M3.41333 3.07999c0.0920354,0 0.17537,0.037315 0.235697,0.0976417 0.0603268,0.0603268 0.0976417,0.143661 0.0976417,0.235697 0,0.0920354 -0.037315,0.17537 -0.0976417,0.235697 -0.0603268,0.0603268 -0.143661,0.0976417 -0.235697,0.0976417 -0.0920354,0 -0.17537,-0.037315 -0.235697,-0.0976417 -0.0603268,-0.0603268 -0.0976417,-0.143661 -0.0976417,-0.235697 0,-0.0920354 0.037315,-0.17537 0.0976417,-0.235697 0.0603268,-0.0603268 0.143661,-0.0976417 0.235697,-0.0976417zm0.0848622 0.248476c-0.0217087,-0.0217087 -0.0517126,-0.0351378 -0.0848622,-0.0351378 -0.0331496,0 -0.0631535,0.0134291 -0.0848622,0.0351378 -0.0217087,0.0217087 -0.0351378,0.0517126 -0.0351378,0.0848622 0,0.0331496 0.0134291,0.0631535 0.0351378,0.0848622 0.0217087,0.0217087 0.0517126,0.0351378 0.0848622,0.0351378 0.0331496,0 0.0631535,-0.0134291 0.0848622,-0.0351378 0.0217087,-0.0217087 0.0351378,-0.0517126 0.0351378,-0.0848622 0,-0.0331496 -0.0134291,-0.0631535 -0.0351378,-0.0848622z"/>
 </g>
</svg>
